<svg id="Ebene_1" data-name="Ebene 1" xmlns="http://www.w3.org/2000/svg" viewBox="0 0 331.87 450"><defs><style>.cls-1{fill:#d5d8d1;}.cls-2{fill:#f9a801;}.cls-3{fill:#e69403;}.cls-4{fill:#fe823c;}.cls-5{fill:#ffc700;}.cls-6{fill:#fff;}.cls-7{fill:#3c0;}.cls-8{fill:lime;}.cls-9{fill:#063;}</style></defs><ellipse class="cls-1" cx="205.69" cy="428.67" rx="108.11" ry="21.33"/><path class="cls-2" d="M192.2,395.14s-101.79,51.71-83.64,84.37c14.65,26.35,103-39.32,112.72-44.56S192.2,395.14,192.2,395.14Z" transform="translate(-106.4 -198.09)"/><path class="cls-2" d="M359,427.05s44.1,79.85,73,58.67c25.4-18.63-31.89-94.86-61.19-106.61S359,427.05,359,427.05Z" transform="translate(-106.4 -198.09)"/><path class="cls-2" d="M246.19,501.79s-7.4,123,18.25,123c26.44,0,20.84-86.91,17.94-103.56C280.28,509.12,246.19,501.79,246.19,501.79Z" transform="translate(-106.4 -198.09)"/><path class="cls-2" d="M319.26,498.89s-.42,124.71,25.92,123.19c27.17-1.57,16.35-89.08,12.4-105.74C354.71,504.27,319.26,498.89,319.26,498.89Z" transform="translate(-106.4 -198.09)"/><path class="cls-2" d="M222.23,522.79S102.06,413.2,180.12,303.07s192.47-23.46,208.19,38.2-8.18,101.49-6.79,126.94,25.28,84.48-8.91,104.15S268.17,575.23,222.23,522.79Z" transform="translate(-106.4 -198.09)"/><path class="cls-3" d="M381.52,468.21c1.39,25.45,25.28,84.48-8.91,104.15a56.55,56.55,0,0,1-15.06,5.83c-16.3-32-35.08-82.32-35.08-119.87,0-42.14,14.59-103.25-10.34-148.85-10.23-18.71-35.27-40.07-59.45-57.76,62.75-11.35,124.4,45.49,135.63,89.57C404,402.94,380.13,442.75,381.52,468.21Z" transform="translate(-106.4 -198.09)"/><ellipse class="cls-4" cx="199.08" cy="394.45" rx="8.18" ry="18.7" transform="matrix(0.14, -0.99, 0.99, 0.14, -325.57, 338.8)"/><ellipse class="cls-4" cx="354.27" cy="400.09" rx="16.07" ry="8.18" transform="translate(-160.03 -143.24) rotate(-8.23)"/><ellipse class="cls-5" cx="200.51" cy="334.16" rx="34.48" ry="12.27" transform="translate(-290.21 200.56) rotate(-68.56)"/><ellipse class="cls-5" cx="78.04" cy="199.19" rx="7.89" ry="22.21"/><ellipse cx="133.51" cy="180.45" rx="19.87" ry="24.98"/><path d="M335,366.88H296.79a29.31,29.31,0,0,0-1,11.07c1.38,13.73,11.61,23.94,22.85,22.81s19.23-13.18,17.85-26.91A30.11,30.11,0,0,0,335,366.88Z" transform="translate(-106.4 -198.09)"/><circle class="cls-6" cx="137.97" cy="171.24" r="8.19"/><circle class="cls-6" cx="216.57" cy="179.43" r="8.19"/><path d="M276.47,418.14c-11.86,0-16.1-12.55-16.68-19.18a1.66,1.66,0,0,1,3.3-.29,27.72,27.72,0,0,0,2.35,8.35c2.45,5.18,6.17,7.8,11,7.8,10,0,15.35-10.44,17.64-14.9l.44-.84a1.66,1.66,0,1,1,2.93,1.55l-.42.81C294.71,406,288.46,418.14,276.47,418.14Z" transform="translate(-106.4 -198.09)"/><ellipse class="cls-7" cx="132" cy="69.59" rx="19.14" ry="10.67"/><path class="cls-8" d="M343.29,261c-10.39-11.16-48-37.62-94.85-12.44,0,0-15,10.59,4.49,20.23s71.23,16.38,90.25,1.08C348.09,265.87,345.63,263.47,343.29,261Z" transform="translate(-106.4 -198.09)"/><path class="cls-7" d="M243.09,256.19c-.69,3.67,1.08,8.21,9.84,12.55,19.6,9.7,71.23,16.38,90.25,1.08,4.91-3.95,2.45-6.35.11-8.87-.62-.67-1.34-1.39-2.15-2.15C320.55,264.23,288.11,267.34,243.09,256.19Z" transform="translate(-106.4 -198.09)"/><path class="cls-8" d="M185.22,236.75c4.55,9.08,21.56,31.47,44.45,38.51a4.63,4.63,0,0,0,4.43-1.12c3.57-3.26,9.31-12.64-6.92-31.77-14.61-17.23-33.27-14.12-40.82-11.25C184,232,184.08,234.47,185.22,236.75Z" transform="translate(-106.4 -198.09)"/><path class="cls-7" d="M200.45,228.9c8,8.86,18,23.47,20.57,42.87a57.08,57.08,0,0,0,8.65,3.49,4.63,4.63,0,0,0,4.43-1.12c3.57-3.26,9.31-12.64-6.92-31.77C218.64,232.3,208.73,229.18,200.45,228.9Z" transform="translate(-106.4 -198.09)"/><path class="cls-8" d="M262.06,198.67c-23.52,14.91-40.19,60.93-25.45,69.51,4.23,2.46,39.87-9.75,29.87-67.25C265.89,197.56,263.52,197.74,262.06,198.67Z" transform="translate(-106.4 -198.09)"/><path class="cls-7" d="M236.61,268.18c4.23,2.46,39.87-9.75,29.87-67.25-.59-3.37-3-3.19-4.42-2.26-.32.2-.63.43-.95.64C258.19,215.68,251,244,234.46,266.4A9.23,9.23,0,0,0,236.61,268.18Z" transform="translate(-106.4 -198.09)"/><path class="cls-9" d="M255.46,262.85c.58-.6,1.22-1.33,2-2.27,2.22-2.77,7.93-9.8,10.26-19.84-.84.23-1.68.46-2.53.73-4.06,12.73-11.48,20.08-17.78,23.81-4.2,2.48-7.91,3.37-9.81,3.16a2.46,2.46,0,0,1-1-.26c-5.19-3-6.49-10.68-5-20h0l-.37-.52c-.2-.28-.39-.56-.6-.84-.37-.5-.76-1-1.17-1.54a28.56,28.56,0,0,0-.44,13.1c.17.84.38,1.71.64,2.58,3.33,11.48,6.24,9.3,5.77,11.68h0c-.26,1.28-3.37,3.39-5.82,2.63a57,57,0,0,1-9.11-3.71c2.26,3.23,7.27,5.71,13.46,6.51a8.58,8.58,0,0,0,4.51-4.68,18.26,18.26,0,0,0,9.43-2,6.21,6.21,0,0,1,5.86,0,14.09,14.09,0,0,1,1.5,1,.53.53,0,0,0,.17.08,8.68,8.68,0,0,0,1.38-2c-1-.39-1.94-.78-2.82-1.2l0,0a5.33,5.33,0,0,1-1.57-.75s0,0,0,0a1.24,1.24,0,0,1-.44-1.63C252.6,265.46,253.42,265,255.46,262.85Z" transform="translate(-106.4 -198.09)"/></svg>