<svg id="Ebene_1" data-name="Ebene 1" xmlns="http://www.w3.org/2000/svg" viewBox="0 0 221.25 300"><defs><style>.cls-1{fill:#d5d8d1;}.cls-2{fill:#f9a801;}.cls-3{fill:#e69403;}.cls-4{fill:#fe823c;}.cls-5{fill:#ffc700;}.cls-6{fill:#fff;}.cls-7{fill:#3c0;}.cls-8{fill:lime;}.cls-9{fill:#063;}</style></defs><ellipse class="cls-1" cx="137.13" cy="285.78" rx="72.08" ry="14.22"/><path class="cls-2" d="M274.23,404.46s-67.87,34.47-55.77,56.24c9.77,17.57,68.68-26.21,75.15-29.7S274.23,404.46,274.23,404.46Z" transform="translate(-217.02 -273.09)"/><path class="cls-2" d="M385.41,425.73s29.4,53.23,48.64,39.11c16.93-12.42-21.26-63.24-40.79-71.07S385.41,425.73,385.41,425.73Z" transform="translate(-217.02 -273.09)"/><path class="cls-2" d="M310.22,475.56s-4.93,82,12.16,82c17.63,0,13.9-57.94,12-69C332.94,480.44,310.22,475.56,310.22,475.56Z" transform="translate(-217.02 -273.09)"/><path class="cls-2" d="M358.93,473.62s-.28,83.14,17.28,82.13c18.11-1,10.9-59.39,8.26-70.49C382.56,477.21,358.93,473.62,358.93,473.62Z" transform="translate(-217.02 -273.09)"/><path class="cls-2" d="M294.24,489.56s-80.11-73.06-28.07-146.49S394.48,327.43,405,368.55s-5.46,67.65-4.53,84.62,16.85,56.32-5.94,69.43S324.87,524.51,294.24,489.56Z" transform="translate(-217.02 -273.09)"/><path class="cls-3" d="M400.43,453.17c.93,17,16.86,56.32-5.93,69.43a37.82,37.82,0,0,1-10.05,3.89c-10.86-21.36-23.38-54.88-23.38-79.92,0-28.09,9.72-68.83-6.9-99.23-6.81-12.47-23.5-26.71-39.63-38.5,41.84-7.57,82.93,30.32,90.42,59.71C415.45,409.66,399.51,436.19,400.43,453.17Z" transform="translate(-217.02 -273.09)"/><ellipse class="cls-4" cx="278.81" cy="404" rx="5.45" ry="12.47" transform="translate(-376.98 350.98) rotate(-82.03)"/><ellipse class="cls-4" cx="382.27" cy="407.75" rx="10.71" ry="5.45" transform="translate(-271.47 -214.15) rotate(-8.23)"/><ellipse class="cls-5" cx="279.76" cy="363.8" rx="22.99" ry="8.18" transform="translate(-378.15 218.14) rotate(-68.56)"/><ellipse class="cls-5" cx="52.03" cy="132.79" rx="5.26" ry="14.8"/><ellipse cx="89.01" cy="120.3" rx="13.25" ry="16.66"/><path d="M369.4,385.61H344a19.79,19.79,0,0,0-.65,7.39c.92,9.15,7.74,16,15.24,15.2s12.82-8.78,11.9-17.94A20.58,20.58,0,0,0,369.4,385.61Z" transform="translate(-217.02 -273.09)"/><circle class="cls-6" cx="91.98" cy="114.16" r="5.46"/><circle class="cls-6" cx="144.38" cy="119.62" r="5.46"/><path d="M330.4,419.79c-7.9,0-10.73-8.37-11.12-12.79a1.11,1.11,0,0,1,1-1.19,1.09,1.09,0,0,1,1.19,1,18.83,18.83,0,0,0,1.57,5.56c1.63,3.46,4.11,5.21,7.35,5.21,6.65,0,10.23-7,11.76-9.94l.29-.56a1.11,1.11,0,0,1,2,1l-.28.54C342.56,411.7,338.4,419.79,330.4,419.79Z" transform="translate(-217.02 -273.09)"/><ellipse class="cls-7" cx="88" cy="46.4" rx="12.76" ry="7.11"/><path class="cls-8" d="M375,315c-6.93-7.44-32-25.07-63.23-8.29,0,0-10,7.06,3,13.49s47.49,10.92,60.17.72C378.15,318.27,376.51,316.67,375,315Z" transform="translate(-217.02 -273.09)"/><path class="cls-7" d="M308.15,311.82c-.46,2.45.72,5.47,6.56,8.37,13.07,6.47,47.49,10.92,60.17.72,3.27-2.64,1.63-4.24.07-5.92-.41-.44-.89-.92-1.43-1.43C359.79,317.18,338.17,319.26,308.15,311.82Z" transform="translate(-217.02 -273.09)"/><path class="cls-8" d="M269.57,298.86c3,6.06,14.37,21,29.63,25.68a3.11,3.11,0,0,0,3-.75c2.38-2.18,6.2-8.43-4.61-21.18a24.09,24.09,0,0,0-27.22-7.5C268.74,295.71,268.81,297.34,269.57,298.86Z" transform="translate(-217.02 -273.09)"/><path class="cls-7" d="M279.72,293.63c5.31,5.91,12,15.64,13.71,28.58a39.1,39.1,0,0,0,5.77,2.33,3.11,3.11,0,0,0,3-.75c2.38-2.18,6.2-8.43-4.61-21.18C291.85,295.9,285.24,293.82,279.72,293.63Z" transform="translate(-217.02 -273.09)"/><path class="cls-8" d="M320.79,273.47c-15.67,9.94-26.79,40.62-17,46.34,2.82,1.65,26.58-6.5,19.91-44.83C323.35,272.74,321.77,272.85,320.79,273.47Z" transform="translate(-217.02 -273.09)"/><path class="cls-7" d="M303.83,319.81c2.82,1.65,26.58-6.5,19.91-44.83-.39-2.24-2-2.13-2.95-1.51l-.63.43c-1.94,10.92-6.71,29.82-17.76,44.73A5.63,5.63,0,0,0,303.83,319.81Z" transform="translate(-217.02 -273.09)"/><path class="cls-9" d="M316.4,316.26c.38-.4.81-.89,1.31-1.51a33,33,0,0,0,6.84-13.23c-.56.16-1.12.31-1.68.49-2.72,8.49-7.66,13.39-11.86,15.87-2.8,1.65-5.27,2.25-6.54,2.11a1.68,1.68,0,0,1-.64-.18c-3.46-2-4.32-7.12-3.3-13.33h0l-.24-.35c-.14-.18-.27-.37-.41-.56s-.51-.67-.78-1a19.12,19.12,0,0,0-.29,8.74c.11.56.25,1.14.42,1.72,2.22,7.65,4.16,6.2,3.85,7.79h0c-.17.86-2.24,2.26-3.88,1.76a38.26,38.26,0,0,1-6.07-2.48c1.51,2.16,4.85,3.81,9,4.34a5.68,5.68,0,0,0,3-3.12A12.05,12.05,0,0,0,311.4,322a4.12,4.12,0,0,1,3.9,0,9,9,0,0,1,1,.64l.1.05a5.26,5.26,0,0,0,.92-1.34c-.66-.26-1.29-.52-1.87-.8h0a3.53,3.53,0,0,1-1.05-.5l0,0a.83.83,0,0,1-.29-1.09C314.49,318,315,317.71,316.4,316.26Z" transform="translate(-217.02 -273.09)"/></svg>