<svg id="Ebene_1" data-name="Ebene 1" xmlns="http://www.w3.org/2000/svg" viewBox="0 0 354.19 450"><defs><style>.cls-1{fill:#d5d8d1;}.cls-2{fill:#f9a801;}.cls-3{fill:#e69403;}.cls-4{fill:#ffc700;}.cls-5{fill:red;}.cls-6{fill:#fe823c;}.cls-7{fill:#fff;}.cls-8{fill:#3c0;}.cls-9{fill:lime;}.cls-10{fill:#063;}</style></defs><ellipse class="cls-1" cx="191.83" cy="429.43" rx="84.54" ry="20.57"/><path class="cls-2" d="M195.36,419.71s-92-41.13-99.57-15.5,79,64.77,103.49,48.19S195.36,419.71,195.36,419.71Z" transform="translate(-95.33 -196.04)"/><path class="cls-2" d="M347.56,432.31s70.85,85,97.6,62.77c23.18-19.28-52.26-79.5-80-85.85C344.47,404.5,347.56,432.31,347.56,432.31Z" transform="translate(-95.33 -196.04)"/><path class="cls-2" d="M233.45,504.4s-12.58,115.3,17,121.74c21,4.57,27.81-63.11,18.39-90.52C262.82,518.26,233.45,504.4,233.45,504.4Z" transform="translate(-95.33 -196.04)"/><path class="cls-2" d="M304.37,502.46s-5.1,119.28,25.89,123c24.46,2.9,22.53-109.3,3.39-121.25S304.37,502.46,304.37,502.46Z" transform="translate(-95.33 -196.04)"/><path class="cls-2" d="M187.24,289.2C158.36,322.56,132.51,393.3,163,454.42c17.85,35.84,32,22.41,39.66,72.55,7,46.24,47.37,47.47,82.39,41.51,87.5-14.9,133.25-95.16,128.6-193.11C407,236.9,251.12,215.38,187.24,289.2Z" transform="translate(-95.33 -196.04)"/><path class="cls-3" d="M302.51,564.46c38-47.59,77.2-110.66,75.33-166.65-2.22-66.32-43.94-116.5-83.81-150C352.86,252,409.7,292.94,413.61,375.37,417.93,466.56,378.57,542.42,302.51,564.46Z" transform="translate(-95.33 -196.04)"/><ellipse class="cls-4" cx="233.87" cy="293.27" rx="38.04" ry="16.63" transform="translate(-209.64 -42.31) rotate(-29.59)"/><ellipse class="cls-4" cx="196.51" cy="337.36" rx="24.23" ry="12.68" transform="translate(-163.95 -145.27) rotate(-12.55)"/><path d="M266.05,359.55c-9.79,1.69-25.71,6.78-24.88,20.51.74,12.48,4.69,42.69,48.8,42.69,39.81,0,49.67-45.13,38-53.19C321.15,364.83,295.71,354.45,266.05,359.55Z" transform="translate(-95.33 -196.04)"/><path class="cls-5" d="M328.63,398.44c-8.44-8.33-20.6-16.49-36.11-9.91-17.92,7.6-20.89,22.08-20.5,32.17a72.45,72.45,0,0,0,18,2.05C310.27,422.75,322.78,411,328.63,398.44Z" transform="translate(-95.33 -196.04)"/><ellipse class="cls-6" cx="128.16" cy="164.47" rx="16.91" ry="8.17"/><ellipse class="cls-6" cx="254.97" cy="164.47" rx="16.91" ry="8.17"/><circle cx="161.47" cy="139.84" r="15.49"/><circle cx="221.21" cy="140.96" r="15.49"/><circle class="cls-7" cx="159.12" cy="136.51" r="6.76"/><circle class="cls-7" cx="218.3" cy="136.51" r="6.76"/><path d="M242,325.64a1.66,1.66,0,0,1-.85-.24,1.59,1.59,0,0,1-.51-2.2c.24-.39,6-9.42,15.75-9.84s15.47,8.24,15.72,8.61a1.6,1.6,0,0,1-2.67,1.76c-.05-.07-4.88-7.19-12.41-7.19h-.51c-8.11.35-13.12,8.25-13.17,8.33A1.58,1.58,0,0,1,242,325.64Z" transform="translate(-95.33 -196.04)"/><path d="M302.29,326.2a1.6,1.6,0,0,1-1.36-2.44c.24-.39,6-9.42,15.75-9.83s15.48,8.23,15.72,8.6a1.6,1.6,0,1,1-2.67,1.77c0-.08-4.88-7.19-12.4-7.19h-.51c-8.12.34-13.12,8.25-13.17,8.33A1.63,1.63,0,0,1,302.29,326.2Z" transform="translate(-95.33 -196.04)"/><ellipse class="cls-8" cx="287.16" cy="253.97" rx="13.1" ry="26.49" transform="translate(-75.39 332.8) rotate(-87.3)"/><path class="cls-9" d="M208.1,205.68c11.58,16.48,47,59.34,78.55,51.15,0,0-.4-24.15-30-45.38-18.06-13-36.57-15.06-46.67-14.5C206.65,197.14,205.13,201.47,208.1,205.68Z" transform="translate(-95.33 -196.04)"/><path class="cls-8" d="M264.37,255.23c7.4,2.65,14.95,3.51,22.28,1.6,0,0-.4-24.15-30-45.38a78.76,78.76,0,0,0-15.19-8.54C250.45,217.07,260.22,235.81,264.37,255.23Z" transform="translate(-95.33 -196.04)"/><path class="cls-9" d="M289.57,258c-2,1.37-3.44,1-4.51-1.12-3.39-6.8-5-17.11-.59-33.45,4.61-16.93,9.07-24,11.29-26.51a2.48,2.48,0,0,1,3.89.19c2.56,3.65,7.13,13.43,6,27.27C303.92,244.81,294.56,254.49,289.57,258Z" transform="translate(-95.33 -196.04)"/><path class="cls-8" d="M289.57,258c5-3.48,14.35-13.16,16.06-33.62a49.92,49.92,0,0,0-.59-13c-4.7,12.55-12.14,28.8-22.15,39.65a28.94,28.94,0,0,0,2.17,5.89C286.13,259,287.59,259.34,289.57,258Z" transform="translate(-95.33 -196.04)"/><path class="cls-10" d="M305.58,245.21c-6.85,13.41-15.06,18.91-21.46,21.68h0c-1-.09-1.91-.2-2.83-.34-.39-.05-.77-.12-1.14-.18l-.66-.12-1-.19-.87-.2-.87-.2a39.82,39.82,0,0,1-7.38-2.62l-.58-.3c-.49-.26-1-.5-1.4-.78a5.8,5.8,0,0,1-.59-.36l-.34-.21-.68-.47c-.46-.33-.87-.66-1.27-1l-.56-.5c-.29-.27-.55-.54-.8-.81l-.35-.41a9,9,0,0,1-1-1.39,4.53,4.53,0,0,1-.27-.48c-.06-.11-.11-.23-.16-.34a3.93,3.93,0,0,1-.18-.43,4,4,0,0,1-.2-.58,5.61,5.61,0,0,1-.25-1.19c1.33.59,2.67,1.11,4,1.58.45.16.92.32,1.37.45s.91.29,1.37.42c1.38.39,2.74.72,4.12,1,.42.08.85.16,1.27.22.71.1,1.42.19,2.14.26.31,0,.61.06.91.08l1,.06a45.84,45.84,0,0,1-2.89-15.71v0a87.69,87.69,0,0,1,.71-13.4,65.23,65.23,0,0,1,7,11.33c0,.3,0,.61,0,.91a34.49,34.49,0,0,0,3.28,15.91l.17.31c1,1.87,2.47,2.11,4.35.8,3.09-2.15,7.86-6.68,11.44-14.67A32,32,0,0,1,305.58,245.21Z" transform="translate(-95.33 -196.04)"/></svg>