<svg id="Ebene_1" data-name="Ebene 1" xmlns="http://www.w3.org/2000/svg" viewBox="0 0 125.53 150"><defs><style>.cls-1{fill:#4f403b;}.cls-2{fill:#463732;}.cls-3{fill:#2b2320;}.cls-4{fill:#ffc700;}.cls-5{fill:#f8ffb9;}.cls-6{fill:#f7a501;}.cls-7{fill:#d5d8d1;}.cls-8{fill:#f9a801;}.cls-9{fill:#e69403;}.cls-10{fill:red;}.cls-11{fill:#fe823c;}.cls-12{fill:#fff;}.cls-13{fill:lime;}.cls-14{fill:#063;}.cls-15{fill:#3c0;}</style></defs><path class="cls-1" d="M460,459.92c-2.15,2.15-9.55,9.86-4.12,23.14,3.18,7.8,12.9,12.67,21.35,13.82a31.24,31.24,0,0,0,14.83-1.79c8.57-3.36,13-8.06,13-8.06l3.37-28.48s-1.86-8.53-17.2-9.89c-13.28-1.19-26.7-.92-30.54,1.5-4,2.55-2.91,3.61-1.31,6.52C460.55,458.87,460.26,459.65,460,459.92Z" transform="translate(-424.53 -375.83)"/><path class="cls-2" d="M462.11,458a14.83,14.83,0,0,1,3.75-9.4,14.76,14.76,0,0,0-5.21,1.53c-4,2.55-2.91,3.61-1.31,6.52,1.21,2.19.92,3,.66,3.24-2.15,2.15-9.55,9.86-4.12,23.14a13,13,0,0,0,.61,1.31c-1.16-8.47.29-13.12.79-15C458.24,465.71,462.11,462,462.11,458Z" transform="translate(-424.53 -375.83)"/><path class="cls-2" d="M499.7,450.52a44.74,44.74,0,0,0-12.54,29.15l-8.07-1s-4.44,1.34-2.19,5.77c2.47,4.84,10.49,4.51,11.75,11.72a27.21,27.21,0,0,0,3.41-1.07c8.57-3.36,13-8.06,13-8.06l3.37-28.48S507.27,453.46,499.7,450.52Z" transform="translate(-424.53 -375.83)"/><path class="cls-3" d="M459.68,460.24a86.94,86.94,0,0,0,23.11,3.22,82.63,82.63,0,0,0,23.77-3.53l-.95-3.19a79,79,0,0,1-23.5,3.41,83.36,83.36,0,0,1-22.77-3.47c1.21,2.2.92,3,.66,3.24Z" transform="translate(-424.53 -375.83)"/><ellipse class="cls-3" cx="481.6" cy="453.54" rx="4.29" ry="21.74" transform="translate(-413.5 542.69) rotate(-87.94)"/><path class="cls-4" d="M499.43,455.3c-2.1-1.89-3.67-.81-5.67-.69s-1.85-1.51-3.6-1.37c-3.84.32-3.24-.7-6.88-.4a11.36,11.36,0,0,1-5.86-1.09c-2.59-1.17-5.39-1.79-7.49-.71-1,.51-2.68.19-4.81,1.29a3.8,3.8,0,0,0-1.76,2.91c3.84,1.3,10.49,2.31,18.08,2.59,8,.28,15-.31,18.8-1.44A3.37,3.37,0,0,0,499.43,455.3Z" transform="translate(-424.53 -375.83)"/><path class="cls-5" d="M472.26,452.71c-.88.34-3.26-.15-3.62.66s.16,1.44,1.89,1.66,5.58.62,5.58-1C476.11,451.91,473.05,452.41,472.26,452.71Z" transform="translate(-424.53 -375.83)"/><path class="cls-5" d="M482.08,454.88s-.46.79.64.95,1.64-.29,2.25.06a3,3,0,0,0,1.93.43c.9-.05,2.07-.13,1.89-1.09s-.76-.62-1.15-.67-1.71.19-2.22-.4-1.09-1-1.62-.49S483.23,454.69,482.08,454.88Z" transform="translate(-424.53 -375.83)"/><path class="cls-5" d="M496.59,454.79s-1.34-.23-1.37.71.88.86,1.48.82C497.66,456.27,498.7,455.11,496.59,454.79Z" transform="translate(-424.53 -375.83)"/><path class="cls-5" d="M479.38,437.18c1,0,1.76,3.21.42,6.63-.7,1.81-.24,1.69-.39,3.09s-.68,3.59-2.39,1.67c-1.18-1.32-.54-3.42-.63-4.21a4.87,4.87,0,0,1,.7-4C478.36,438.63,477.36,437.18,479.38,437.18Z" transform="translate(-424.53 -375.83)"/><path class="cls-4" d="M474.68,426.61c1.79,1.41,5.94,3.55,9.13,0,4.05-4.53,1.89-6,4.13-8.94s4.66-7.38,4.75-9.52,1.55-5,4.53-5,22.69-.6,25.42-2.94,8.41-8.57,3-14.59-11.47-3.66-15.34-2.46-8.2,1.86-14.24-3.71c-3.06-2.83-10.65-2.75-15-2.15s-7.58-3.71-14,.15-7.54,9.14-20.63,9.85-10.34,2.24-12.84,3.49-9.89,2.89-9,7.17,8.25,5.67,15.67,3.48,9.76-1.78,13.09.25,8.81,3.11,9.42,6.26,3.79,5.48,5.51,6.73,2.41,2.32,2.61,5.61S472.92,425.23,474.68,426.61Z" transform="translate(-424.53 -375.83)"/><path class="cls-5" d="M436,394.94c-.34.63-1.87,1.7.21,2.86s3.33-.92,5-1.36,6-.36,7.1-1.38,2.27-2.78-1.26-4.15-4.93.66-6.47,1.29S436.6,393.78,436,394.94Z" transform="translate(-424.53 -375.83)"/><path class="cls-5" d="M466.78,394.3c1.06-.61,3.05-.25,4.56,1.72,3.89,5.07,1.52,6,3.62,10.16,1.5,2.94,3,10.37-1.79,6.51s-4.41-6.07-4.41-8.41-1.36-3.54-2.8-5.12S465.48,395.05,466.78,394.3Z" transform="translate(-424.53 -375.83)"/><path class="cls-5" d="M473.54,386c0,.85.63,2.15,2.55,2.25,2.59.12,6.53-.09,8.89,1s6.64-.15,7.89-3.16c.73-1.72-.44-4.62-2.85-4.51s-2.88,1.52-5.62,1.35S473.67,382.54,473.54,386Z" transform="translate(-424.53 -375.83)"/><path class="cls-5" d="M497.06,395c0,2.2,4.26,4,12.35,3.31,2.68-.24,7.26.66,10.05-1.62s5.28-4.72,2-7.58-5.42,0-6.78,1.21c-2.05,1.76-3.56,1.65-9.64,1.65S497.06,392.87,497.06,395Z" transform="translate(-424.53 -375.83)"/><path class="cls-6" d="M459,399.57h-.11a2.45,2.45,0,0,1-2.63-2.27v0a1,1,0,1,0-2,.14v.12a2.44,2.44,0,0,1-2.27,2.62h0a1,1,0,0,0-.92,1,.78.78,0,0,0,.06.32,1.1,1.1,0,0,0,1.1.67h0a2.44,2.44,0,0,1,2.62,2.25v.05a1,1,0,0,0,1,.92.8.8,0,0,0,.33-.06,1.09,1.09,0,0,0,.67-1.1v0a2.43,2.43,0,0,1,2.26-2.6h0a1,1,0,1,0-.14-2Z" transform="translate(-424.53 -375.83)"/><path class="cls-6" d="M510.23,382.06h-.11a2.46,2.46,0,0,1-2.63-2.27v0a1,1,0,1,0-2,.14V380a2.44,2.44,0,0,1-2.27,2.62h0a1,1,0,0,0-.92,1,.78.78,0,0,0,.06.32,1.1,1.1,0,0,0,1.1.67h0a2.44,2.44,0,0,1,2.62,2.25v.05a1,1,0,0,0,1,.92.8.8,0,0,0,.33-.06,1.1,1.1,0,0,0,.67-1.1v0a2.43,2.43,0,0,1,2.26-2.6h0a1,1,0,1,0-.14-2Z" transform="translate(-424.53 -375.83)"/><path class="cls-6" d="M476,413.44H476a1.39,1.39,0,0,1-1.48-1.28v0a.56.56,0,0,0-1.12.08v.07a1.38,1.38,0,0,1-1.28,1.48h0a.57.57,0,0,0-.53.56.42.42,0,0,0,0,.18.6.6,0,0,0,.62.38h0a1.36,1.36,0,0,1,1.47,1.27v0a.57.57,0,0,0,.56.53.46.46,0,0,0,.19,0,.6.6,0,0,0,.37-.62v0a1.37,1.37,0,0,1,1.27-1.47h0a.58.58,0,0,0,.52-.61A.56.56,0,0,0,476,413.44Z" transform="translate(-424.53 -375.83)"/><path class="cls-6" d="M486.49,440.91h-.06a1.39,1.39,0,0,1-1.48-1.28h0a.56.56,0,0,0-.6-.53.57.57,0,0,0-.52.61v.06a1.39,1.39,0,0,1-1.28,1.48h0a.57.57,0,0,0-.53.56.39.39,0,0,0,0,.18.6.6,0,0,0,.62.38h0a1.37,1.37,0,0,1,1.47,1.27v0a.57.57,0,0,0,.56.52.46.46,0,0,0,.19,0,.61.61,0,0,0,.37-.62v0a1.37,1.37,0,0,1,1.27-1.47h0a.56.56,0,0,0,.52-.6A.57.57,0,0,0,486.49,440.91Z" transform="translate(-424.53 -375.83)"/><ellipse class="cls-7" cx="85.6" cy="145.71" rx="21.74" ry="4.29"/><path class="cls-8" d="M518.3,501.41s2.13,12-.48,17.89c-2.48,5.61-4.41,4.06-6.24.32-1.33-2.74-2.06-14.24-2.06-14.24Z" transform="translate(-424.53 -375.83)"/><path class="cls-8" d="M501.34,501.41s-2.13,12,.48,17.89c2.49,5.61,4.42,4.06,6.24.32,1.34-2.74,2.07-14.24,2.07-14.24Z" transform="translate(-424.53 -375.83)"/><path class="cls-8" d="M504.47,483.22s-13.71-6.75-21.72-5.5c-7.64,1.19-6.45,4.13-2.59,7.68,2.83,2.6,16.42,7.43,16.42,7.43Z" transform="translate(-424.53 -375.83)"/><path class="cls-8" d="M533.65,439c-7.78-2.87-21.44-.75-31.92,13.19-21.87,29.09-4.16,36.45-4.16,50.43,0,5.41,13.36,12.51,21.2,8.4,9-4.71,8.71-11.68,16.52-15.06C547.31,490.73,562.2,449.5,533.65,439Z" transform="translate(-424.53 -375.83)"/><path class="cls-9" d="M537.53,440.71c-.73,19.35-7.55,44.89-31.87,69.81,4.24,1.8,9.32,2.44,13.11.45,9-4.71,8.71-11.68,16.52-15.06C546.72,491,560.75,453.45,537.53,440.71Z" transform="translate(-424.53 -375.83)"/><path class="cls-10" d="M501.25,467.15c-1.55.88-3.82-.16-5.06-2.33a5.64,5.64,0,0,1-.78-3s3.06,1.07,3.33,1.12a26.05,26.05,0,0,0,3.62,0h0C502.89,464.73,502.48,466.44,501.25,467.15Z" transform="translate(-424.53 -375.83)"/><path d="M505.83,462.51a24.66,24.66,0,0,1-10.38-.75c-.12.21-.23.41-.33.61a21,21,0,0,0,6.94,1c1.16,0,2.44-.06,3.84-.2a.33.33,0,0,0,.29-.37A.34.34,0,0,0,505.83,462.51Z" transform="translate(-424.53 -375.83)"/><ellipse class="cls-11" cx="91.35" cy="86.73" rx="3.35" ry="1.7"/><ellipse class="cls-4" cx="528.78" cy="453.49" rx="2.17" ry="1.23" transform="translate(-544.58 331.18) rotate(-61.96)"/><ellipse class="cls-4" cx="530.42" cy="458.98" rx="3.17" ry="2.23" transform="translate(-591.21 161.03) rotate(-47.24)"/><circle cx="84.68" cy="75.65" r="4.29"/><circle class="cls-12" cx="83.58" cy="74.34" r="1.53"/><path d="M516.65,452.56a.21.21,0,0,1-.15,0,.33.33,0,0,1-.14-.41,5.24,5.24,0,0,0-.24-5.41c-1.4-2-4.68-1.23-4.71-1.22a.3.3,0,0,1-.35-.23.32.32,0,0,1,.21-.38c.15,0,3.69-.9,5.31,1.46a5.85,5.85,0,0,1,.3,6.05A.27.27,0,0,1,516.65,452.56Z" transform="translate(-424.53 -375.83)"/><ellipse class="cls-13" cx="532.1" cy="439.77" rx="3.41" ry="8.25" transform="translate(-441.3 482.6) rotate(-76.91)"/><path class="cls-14" d="M536.32,437.61a18.15,18.15,0,0,0-3.15-1.09c-4.42-1.1-8.48-.53-9.07,1.26s2.51,4.15,6.93,5.25a18.3,18.3,0,0,0,4.45.56,6.4,6.4,0,0,0,1.2-3A6.29,6.29,0,0,0,536.32,437.61Z" transform="translate(-424.53 -375.83)"/><path class="cls-13" d="M523.62,441.87c2.41-1.64,8.58-6.77,11.24-3.16s-3,7.36-5.9,8.38c-2.33.83-6.74,1.36-9.15.5-1.07-.38-1.41-1.24-.66-2.08A26.56,26.56,0,0,1,523.62,441.87Z" transform="translate(-424.53 -375.83)"/><path class="cls-15" d="M533.6,437.7a30.4,30.4,0,0,1-14.74,8.24c-.32.69.07,1.34.95,1.65,2.41.86,6.82.33,9.15-.5,2.88-1,8.56-4.77,5.9-8.38A3,3,0,0,0,533.6,437.7Z" transform="translate(-424.53 -375.83)"/><path class="cls-13" d="M519.87,433.52c-.78.25-.81,1.08-.27,1.7.94,1.09,3.3,2.78,7.65,4.46,5.34,2.05,7.46-.07,7.89-1.3.57-1.65.28-3.28-5.21-4.63C525.65,432.69,521.72,432.91,519.87,433.52Z" transform="translate(-424.53 -375.83)"/><path class="cls-15" d="M527.25,439.68c5.34,2.05,7.46-.07,7.89-1.3a3.42,3.42,0,0,0,.19-.86,45,45,0,0,1-6.63-1,21.1,21.1,0,0,1-7.7-3.27,6.72,6.72,0,0,0-1.13.27c-.78.25-.81,1.08-.27,1.7C520.54,436.31,522.9,438,527.25,439.68Z" transform="translate(-424.53 -375.83)"/></svg>