<svg id="Ebene_1" data-name="Ebene 1" xmlns="http://www.w3.org/2000/svg" viewBox="0 0 376.59 450"><defs><style>.cls-1{fill:#4f403b;}.cls-2{fill:#463732;}.cls-3{fill:#2b2320;}.cls-4{fill:#ffc700;}.cls-5{fill:#f8ffb9;}.cls-6{fill:#f7a501;}.cls-7{fill:#d5d8d1;}.cls-8{fill:#f9a801;}.cls-9{fill:#e69403;}.cls-10{fill:red;}.cls-11{fill:#fe823c;}.cls-12{fill:#fff;}.cls-13{fill:lime;}.cls-14{fill:#063;}.cls-15{fill:#3c0;}</style></defs><path class="cls-1" d="M279.86,478.1c-6.43,6.43-28.65,29.56-12.36,69.42,9.56,23.39,38.7,38,64.06,41.45,21.33,2.9,39.68-3.47,44.5-5.36,25.71-10.08,38.86-24.18,38.86-24.18L425,474s-5.57-25.58-51.59-29.68c-39.83-3.55-80.1-2.74-91.6,4.52-12.11,7.64-8.75,10.81-3.95,19.54C281.51,475,280.66,477.29,279.86,478.1Z" transform="translate(-173.47 -225.83)"/><path class="cls-2" d="M286.2,472.42c0-11.8,5.63-21.48,11.24-28.2-7,1.07-12.42,2.58-15.61,4.6-12.11,7.64-8.75,10.81-3.95,19.54,3.63,6.59,2.78,8.93,2,9.74-6.43,6.43-28.65,29.56-12.36,69.42.55,1.34,1.16,2.64,1.83,3.91-3.48-25.4.88-39.35,2.39-45.09C274.58,495.45,286.2,484.42,286.2,472.42Z" transform="translate(-173.47 -225.83)"/><path class="cls-2" d="M399,449.88a134.27,134.27,0,0,0-37.6,87.46l-24.23-3s-13.31,4-6.55,17.29c7.4,14.53,31.46,13.53,35.23,35.18a85.9,85.9,0,0,0,10.25-3.21c25.71-10.08,38.86-24.18,38.86-24.18L425,474S421.69,458.72,399,449.88Z" transform="translate(-173.47 -225.83)"/><path class="cls-3" d="M278.92,479.05a261,261,0,0,0,69.33,9.67,248.57,248.57,0,0,0,71.3-10.59l-2.84-9.58a236.45,236.45,0,0,1-70.5,10.23,251.13,251.13,0,0,1-68.31-10.39c3.61,6.57,2.76,8.91,2,9.71Z" transform="translate(-173.47 -225.83)"/><ellipse class="cls-3" cx="344.66" cy="458.95" rx="12.87" ry="65.23" transform="translate(-299.86 561.05) rotate(-87.94)"/><path class="cls-4" d="M398.16,464.22c-6.3-5.66-11-2.43-17-2.05s-5.55-4.54-10.8-4.11c-11.51.94-9.71-2.12-20.64-1.22a34,34,0,0,1-17.57-3.25c-7.76-3.53-16.18-5.38-22.47-2.14-3,1.52-8.05.58-14.44,3.87-3.39,1.75-4.75,5.55-5.28,8.73,11.53,3.91,31.48,6.94,54.25,7.76,23.92.86,44.92-.93,56.4-4.31A10.56,10.56,0,0,0,398.16,464.22Z" transform="translate(-173.47 -225.83)"/><path class="cls-5" d="M316.64,456.47c-2.63,1-9.76-.46-10.85,2s.49,4.3,5.66,5,16.76,1.87,16.76-3C328.21,454.06,319,455.55,316.64,456.47Z" transform="translate(-173.47 -225.83)"/><path class="cls-5" d="M346.11,463s-1.39,2.37,1.93,2.86,4.91-.87,6.75.19a8.92,8.92,0,0,0,5.79,1.28c2.69-.14,6.2-.4,5.66-3.27s-2.28-1.87-3.46-2-5.13.58-6.65-1.19-3.26-3.07-4.87-1.46S349.56,462.39,346.11,463Z" transform="translate(-173.47 -225.83)"/><path class="cls-5" d="M389.63,462.7s-4-.69-4.12,2.12,2.67,2.59,4.47,2.48C392.86,467.14,396,463.65,389.63,462.7Z" transform="translate(-173.47 -225.83)"/><path class="cls-5" d="M338,409.86c2.91,0,5.28,9.64,1.26,19.9-2.12,5.43-.74,5.08-1.19,9.27s-2,10.77-7.17,5c-3.54-4-1.62-10.26-1.89-12.64s-1.58-7.17,2.11-12.09C335,414.23,332,409.86,338,409.86Z" transform="translate(-173.47 -225.83)"/><path class="cls-4" d="M323.9,378.17c5.39,4.23,17.82,10.65,27.39-.06,12.16-13.6,5.69-17.92,12.4-26.84s14-22.13,14.25-28.55,4.66-14.9,13.58-14.9S459.6,306,467.79,299s25.23-25.71,9.1-43.77-34.42-11-46-7.36-24.62,5.58-42.72-11.14c-9.18-8.48-32-8.25-45-6.45s-22.74-11.13-42.14.45-22.62,27.41-61.88,29.56-31,6.71-38.52,10.46-29.67,8.68-26.93,21.51,24.75,17,47,10.45,29.28-5.36,39.26.73,26.43,9.34,28.26,18.8,11.38,16.43,16.52,20.18,7.22,7,7.83,16.82S318.62,374,323.9,378.17Z" transform="translate(-173.47 -225.83)"/><path class="cls-5" d="M207.8,283.14c-1,1.89-5.6,5.11.63,8.58s10-2.74,15.08-4.06,17.93-1.1,21.3-4.16,6.81-8.33-3.79-12.45-14.8,2-19.41,3.88S209.67,279.68,207.8,283.14Z" transform="translate(-173.47 -225.83)"/><path class="cls-5" d="M300.21,281.23c3.17-1.81,9.15-.74,13.68,5.16,11.66,15.21,4.56,18.09,10.87,30.49,4.49,8.81,9,31.09-5.38,19.51s-13.23-18.18-13.23-25.23-4.07-10.62-8.4-15.35S296.32,283.47,300.21,281.23Z" transform="translate(-173.47 -225.83)"/><path class="cls-5" d="M320.5,256.46c-.09,2.54,1.89,6.45,7.63,6.73,7.78.37,19.61-.25,26.68,3s19.91-.45,23.68-9.48c2.17-5.18-1.33-13.88-8.55-13.55s-8.66,4.58-16.86,4.06S320.89,246,320.5,256.46Z" transform="translate(-173.47 -225.83)"/><path class="cls-5" d="M391.05,283.35c0,6.6,12.79,12,37,9.93,8.05-.7,21.79,2,30.15-4.84s15.84-14.16,6.05-22.76c-10.07-8.84-16.26.14-20.34,3.63-6.17,5.28-10.69,5-28.93,5S391.05,277,391.05,283.35Z" transform="translate(-173.47 -225.83)"/><path class="cls-6" d="M276.84,297l-.34,0a7.36,7.36,0,0,1-7.88-6.81v-.09a3,3,0,0,0-6,.44l0,.34a7.34,7.34,0,0,1-6.81,7.87h-.09a3,3,0,0,0-2.78,3,2.59,2.59,0,0,0,.18,1,3.27,3.27,0,0,0,3.31,2h.1a7.33,7.33,0,0,1,7.84,6.76v.14a3,3,0,0,0,3,2.78,2.59,2.59,0,0,0,1-.18,3.26,3.26,0,0,0,2-3.3v-.12a7.3,7.3,0,0,1,6.76-7.82h.14a3,3,0,0,0-.43-6Z" transform="translate(-173.47 -225.83)"/><path class="cls-6" d="M430.56,244.5l-.34,0a7.36,7.36,0,0,1-7.88-6.81v-.09a3,3,0,0,0-6,.43l0,.35a7.35,7.35,0,0,1-6.81,7.87h-.09a3,3,0,0,0-2.78,3,2.59,2.59,0,0,0,.18,1,3.27,3.27,0,0,0,3.31,2h.1a7.32,7.32,0,0,1,7.84,6.76v.14a3,3,0,0,0,3,2.78,2.59,2.59,0,0,0,1-.18,3.26,3.26,0,0,0,2-3.3v-.12a7.3,7.3,0,0,1,6.76-7.82H431a3,3,0,0,0-.43-6Z" transform="translate(-173.47 -225.83)"/><path class="cls-6" d="M328,338.66l-.19,0a4.15,4.15,0,0,1-4.44-3.84v0a1.71,1.71,0,0,0-1.81-1.57A1.69,1.69,0,0,0,320,335v.19a4.14,4.14,0,0,1-3.84,4.44h-.05a1.66,1.66,0,0,0-1.47,2.23,1.85,1.85,0,0,0,1.87,1.12h.06a4.11,4.11,0,0,1,4.41,3.81v.08a1.68,1.68,0,0,0,1.68,1.57,1.6,1.6,0,0,0,.55-.1,1.84,1.84,0,0,0,1.13-1.87v-.07a4.12,4.12,0,0,1,3.81-4.4h.08a1.69,1.69,0,1,0-.24-3.37Z" transform="translate(-173.47 -225.83)"/><path class="cls-6" d="M359.35,421.05h-.19a4.15,4.15,0,0,1-4.44-3.83v-.05a1.69,1.69,0,1,0-3.37.24v.19a4.14,4.14,0,0,1-3.83,4.44h0a1.7,1.7,0,0,0-1.57,1.69,1.46,1.46,0,0,0,.1.55,1.84,1.84,0,0,0,1.86,1.12h.06a4.12,4.12,0,0,1,4.42,3.81v.08a1.7,1.7,0,0,0,1.69,1.57,1.49,1.49,0,0,0,.55-.11,1.83,1.83,0,0,0,1.12-1.86v-.07a4.11,4.11,0,0,1,3.81-4.4h.08a1.69,1.69,0,0,0-.25-3.37Z" transform="translate(-173.47 -225.83)"/><ellipse class="cls-7" cx="256.79" cy="437.13" rx="65.23" ry="12.87"/><path class="cls-8" d="M454.78,602.55s6.39,36-1.44,53.68c-7.46,16.83-13.25,12.17-18.72.95-4-8.21-6.2-42.7-6.2-42.7Z" transform="translate(-173.47 -225.83)"/><path class="cls-8" d="M403.9,602.55s-6.39,36,1.44,53.68c7.46,16.83,13.25,12.17,18.72.95,4-8.21,6.2-42.7,6.2-42.7Z" transform="translate(-173.47 -225.83)"/><path class="cls-8" d="M413.29,548s-41.13-20.25-65.17-16.51c-22.91,3.57-19.35,12.39-7.77,23,8.48,7.8,49.26,22.3,49.26,22.3Z" transform="translate(-173.47 -225.83)"/><path class="cls-8" d="M500.83,415.19c-23.35-8.63-64.33-2.26-95.78,39.56-65.61,87.26-12.46,109.34-12.46,151.3,0,16.21,40.08,37.51,63.59,25.18,26.93-14.12,26.14-35,49.57-45.16C541.79,570.51,586.46,446.83,500.83,415.19Z" transform="translate(-173.47 -225.83)"/><path class="cls-9" d="M512.47,420.47c-2.2,58-22.66,134.67-95.62,209.43,12.71,5.39,28,7.3,39.33,1.33,26.93-14.12,26.14-35,49.57-45.16C540,571.27,582.11,458.67,512.47,420.47Z" transform="translate(-173.47 -225.83)"/><path class="cls-10" d="M403.61,499.77c-4.65,2.66-11.44-.47-15.16-7a17,17,0,0,1-2.35-9c0-.1,9.17,3.21,10,3.36,2.77.52,10.41.1,10.87.1H407C408.53,492.53,407.3,497.66,403.61,499.77Z" transform="translate(-173.47 -225.83)"/><path d="M417.36,485.87c-14.5,1.45-24.43,0-31.15-2.26-.34.62-.67,1.23-1,1.84,5.16,1.8,11.93,3,20.82,3,3.5,0,7.33-.19,11.52-.61a1,1,0,0,0,.89-1.09A1,1,0,0,0,417.36,485.87Z" transform="translate(-173.47 -225.83)"/><ellipse class="cls-11" cx="274.05" cy="260.2" rx="10.05" ry="5.11"/><ellipse class="cls-4" cx="486.22" cy="458.79" rx="6.52" ry="3.7" transform="translate(-320.76 446.42) rotate(-61.96)"/><ellipse class="cls-4" cx="491.14" cy="475.27" rx="9.52" ry="6.7" transform="translate(-364.72 287.41) rotate(-47.24)"/><circle cx="254.04" cy="226.94" r="12.87"/><circle class="cls-12" cx="250.74" cy="223.02" r="4.58"/><path d="M449.83,456a1,1,0,0,1-.46-.09,1,1,0,0,1-.41-1.25c1.86-4.34,3.47-10.11-.73-16.22s-14-3.69-14.13-3.66a.87.87,0,0,1-1-.7.91.91,0,0,1,.62-1.12c.45-.12,11.06-2.72,15.93,4.38,4.74,6.91,3,13.32.9,18.13A.85.85,0,0,1,449.83,456Z" transform="translate(-173.47 -225.83)"/><ellipse class="cls-13" cx="496.16" cy="417.65" rx="10.24" ry="24.75" transform="translate(-196.49 580.49) rotate(-76.91)"/><path class="cls-14" d="M508.83,411.15a54.27,54.27,0,0,0-9.46-3.26c-13.25-3.3-25.44-1.6-27.21,3.79s7.53,12.43,20.79,15.73a54.51,54.51,0,0,0,13.37,1.68,18.9,18.9,0,0,0,2.51-17.94Z" transform="translate(-173.47 -225.83)"/><path class="cls-13" d="M470.72,423.93c7.25-4.9,25.74-20.3,33.72-9.47s-9.06,22.08-17.68,25.15c-7,2.49-20.22,4.06-27.47,1.49-3.19-1.13-4.21-3.71-2-6.25C459.3,432.57,464.33,428.25,470.72,423.93Z" transform="translate(-173.47 -225.83)"/><path class="cls-15" d="M500.68,411.43c-15.14,15-31.33,21.81-44.23,24.71-.95,2.09.2,4,2.84,5,7.25,2.57,20.46,1,27.47-1.49,8.62-3.07,25.66-14.32,17.68-25.15A8.92,8.92,0,0,0,500.68,411.43Z" transform="translate(-173.47 -225.83)"/><path class="cls-13" d="M459.47,398.89c-2.32.76-2.41,3.25-.81,5.1,2.83,3.27,9.91,8.35,22.95,13.37,16,6.17,22.4-.2,23.67-3.9,1.71-4.94.84-9.82-15.63-13.88C476.82,396.41,465,397.06,459.47,398.89Z" transform="translate(-173.47 -225.83)"/><path class="cls-15" d="M481.61,417.36c16,6.17,22.4-.2,23.67-3.9a11,11,0,0,0,.59-2.57,132.11,132.11,0,0,1-19.9-3c-10.28-2.33-17.73-6-23.11-9.81a24.14,24.14,0,0,0-3.39.82c-2.32.76-2.41,3.25-.81,5.1C461.49,407.26,468.57,412.34,481.61,417.36Z" transform="translate(-173.47 -225.83)"/></svg>