<svg id="Ebene_1" data-name="Ebene 1" xmlns="http://www.w3.org/2000/svg" viewBox="0 0 236.13 300"><defs><style>.cls-1{fill:#d5d8d1;}.cls-2{fill:#f9a801;}.cls-3{fill:#e69403;}.cls-4{fill:#ffc700;}.cls-5{fill:red;}.cls-6{fill:#fe823c;}.cls-7{fill:#fff;}.cls-8{fill:#3c0;}.cls-9{fill:lime;}.cls-10{fill:#063;}</style></defs><ellipse class="cls-1" cx="127.89" cy="286.29" rx="56.36" ry="13.71"/><path class="cls-2" d="M280.08,420.15s-61.36-27.42-66.38-10.33,52.68,43.18,69,32.13S280.08,420.15,280.08,420.15Z" transform="translate(-213.39 -271.04)"/><path class="cls-2" d="M381.55,428.56s47.23,56.68,65.06,41.84c15.45-12.86-34.84-53-53.35-57.23C379.48,410,381.55,428.56,381.55,428.56Z" transform="translate(-213.39 -271.04)"/><path class="cls-2" d="M305.48,476.61s-8.39,76.87,11.29,81.16c14,3.05,18.54-42.07,12.26-60.34C325.05,485.85,305.48,476.61,305.48,476.61Z" transform="translate(-213.39 -271.04)"/><path class="cls-2" d="M352.75,475.32s-3.4,79.52,17.27,82c16.3,1.93,15-72.87,2.25-80.84S352.75,475.32,352.75,475.32Z" transform="translate(-213.39 -271.04)"/><path class="cls-2" d="M274.66,333.14c-19.25,22.25-36.48,69.41-16.19,110.15,11.9,23.89,21.37,14.94,26.44,48.37,4.68,30.82,31.58,31.65,54.93,27.67,58.34-9.93,88.83-63.44,85.73-128.74C421.2,298.28,317.25,283.93,274.66,333.14Z" transform="translate(-213.39 -271.04)"/><path class="cls-3" d="M351.51,516.65c25.34-31.72,51.47-73.77,50.22-111.1-1.48-44.21-29.29-77.67-55.87-100,39.22,2.74,77.11,30.06,79.72,85C428.46,451.38,402.22,502,351.51,516.65Z" transform="translate(-213.39 -271.04)"/><ellipse class="cls-4" cx="305.75" cy="335.86" rx="25.36" ry="11.08" transform="translate(-339.36 -76.26) rotate(-29.59)"/><ellipse class="cls-4" cx="280.85" cy="365.25" rx="16.16" ry="8.45" transform="translate(-286.05 -201.28) rotate(-12.55)"/><path d="M327.2,380.05c-6.52,1.12-17.13,4.51-16.58,13.67.5,8.32,3.12,28.46,32.53,28.46,26.54,0,33.12-30.09,25.35-35.46C363.94,383.57,347,376.65,327.2,380.05Z" transform="translate(-213.39 -271.04)"/><path class="cls-5" d="M368.92,406c-5.62-5.55-13.73-11-24.07-6.61-12,5.07-13.93,14.72-13.67,21.45a48.2,48.2,0,0,0,12,1.37C356.69,422.18,365,414.35,368.92,406Z" transform="translate(-213.39 -271.04)"/><ellipse class="cls-6" cx="85.44" cy="109.65" rx="11.27" ry="5.45"/><ellipse class="cls-6" cx="169.98" cy="109.65" rx="11.27" ry="5.45"/><circle cx="107.64" cy="93.22" r="10.33"/><circle cx="147.47" cy="93.98" r="10.33"/><circle class="cls-7" cx="106.08" cy="91.01" r="4.51"/><circle class="cls-7" cx="145.53" cy="91.01" r="4.51"/><path d="M311.16,357.44a1.06,1.06,0,0,1-.9-1.63c.16-.26,4-6.28,10.5-6.56s10.31,5.5,10.48,5.74a1.07,1.07,0,1,1-1.78,1.18c0-.05-3.26-4.79-8.27-4.79h-.34c-5.41.23-8.75,5.5-8.78,5.55A1.06,1.06,0,0,1,311.16,357.44Z" transform="translate(-213.39 -271.04)"/><path d="M351.37,357.81a1.07,1.07,0,0,1-.57-.16,1.06,1.06,0,0,1-.34-1.46c.16-.26,4-6.28,10.5-6.56s10.32,5.49,10.48,5.74a1.07,1.07,0,0,1-1.78,1.17s-3.25-4.79-8.27-4.79h-.34c-5.41.23-8.75,5.5-8.78,5.55A1.07,1.07,0,0,1,351.37,357.81Z" transform="translate(-213.39 -271.04)"/><ellipse class="cls-8" cx="341.28" cy="309.66" rx="8.74" ry="17.66" transform="translate(-197.52 364.92) rotate(-87.3)"/><path class="cls-9" d="M288.57,277.47c7.73,11,31.36,39.56,52.37,34.1,0,0-.27-16.11-20-30.26a50.05,50.05,0,0,0-31.11-9.66C287.61,271.77,286.6,274.66,288.57,277.47Z" transform="translate(-213.39 -271.04)"/><path class="cls-8" d="M326.08,310.5a25.07,25.07,0,0,0,14.86,1.07s-.27-16.11-20-30.26a52.42,52.42,0,0,0-10.12-5.69C316.8,285.06,323.32,297.56,326.08,310.5Z" transform="translate(-213.39 -271.04)"/><path class="cls-9" d="M342.88,312.32c-1.31.92-2.29.69-3-.74-2.26-4.54-3.36-11.41-.4-22.3,3.08-11.29,6-16,7.53-17.67a1.65,1.65,0,0,1,2.6.13c1.7,2.43,4.75,8.95,4,18.17C352.45,303.55,346.21,310,342.88,312.32Z" transform="translate(-213.39 -271.04)"/><path class="cls-8" d="M342.88,312.32c3.33-2.31,9.57-8.77,10.71-22.41a33.56,33.56,0,0,0-.39-8.69c-3.13,8.37-8.09,19.2-14.77,26.43a19.4,19.4,0,0,0,1.45,3.93C340.59,313,341.57,313.24,342.88,312.32Z" transform="translate(-213.39 -271.04)"/><path class="cls-10" d="M353.56,303.82c-4.57,8.94-10,12.6-14.31,14.45h0c-.64-.06-1.27-.13-1.88-.22l-.76-.12-.44-.09c-.23,0-.46-.08-.67-.12l-.58-.13-.58-.14a25.08,25.08,0,0,1-4.92-1.75,3.54,3.54,0,0,1-.39-.19c-.33-.18-.64-.34-.94-.52l-.39-.24-.22-.14-.46-.32q-.45-.33-.84-.66l-.38-.34c-.19-.18-.37-.36-.53-.54l-.23-.27a6,6,0,0,1-.66-.92,2.68,2.68,0,0,1-.18-.33,2.14,2.14,0,0,1-.1-.22,1.78,1.78,0,0,1-.12-.29,2.58,2.58,0,0,1-.14-.39,4.43,4.43,0,0,1-.16-.79c.88.39,1.78.74,2.67,1,.3.11.61.21.91.3s.61.2.92.28c.91.26,1.82.48,2.74.65l.85.15c.47.07.95.13,1.43.17l.61.05.67,0a30.51,30.51,0,0,1-1.92-10.47h0a58.54,58.54,0,0,1,.47-8.94,43,43,0,0,1,4.68,7.56c0,.2,0,.4,0,.6a23,23,0,0,0,2.18,10.61l.12.21c.7,1.25,1.64,1.4,2.9.53a23.47,23.47,0,0,0,7.63-9.78A21.2,21.2,0,0,1,353.56,303.82Z" transform="translate(-213.39 -271.04)"/></svg>