<svg id="Ebene_1" data-name="Ebene 1" xmlns="http://www.w3.org/2000/svg" viewBox="0 0 378.34 450"><defs><style>.cls-1{fill:#d5d8d1;}.cls-2{fill:#f9a801;}.cls-3{fill:#e69403;}.cls-4{fill:#fe823c;}.cls-5{fill:#ffc700;}.cls-6{fill:#fff;}.cls-7{fill:red;}.cls-8{fill:#3c0;}.cls-9{fill:#063;}.cls-10{fill:lime;}</style></defs><ellipse class="cls-1" cx="190.12" cy="422.93" rx="137.22" ry="27.07"/><path class="cls-2" d="M186.26,322s-42.86,48.41-50.09,98.92c-5.22,36.38,9.44,43.56,27.37,32.63s46.24-65,46.24-65Z" transform="translate(-135.1 -179)"/><path class="cls-2" d="M461.43,312s46.5,47.67,51.4,98.64c4.16,43.27-13.65,42.69-32.14,30.23S436,372,436,372Z" transform="translate(-135.1 -179)"/><path class="cls-2" d="M252.28,465.79s-13.45,75.76,3,112.92c15.7,35.4,27.87,25.6,39.39,2,8.42-17.27,13-89.82,13-89.82Z" transform="translate(-135.1 -179)"/><path class="cls-2" d="M395.63,464.89s16.82,75.08,2,112.94c-14.1,36.07-26.7,26.82-39.25,3.76-9.2-16.88-17.05-89.15-17.05-89.15Z" transform="translate(-135.1 -179)"/><path class="cls-2" d="M197.68,475.44c-42.09-60.2-48.42-180.19,4.45-233.06C317.84,126.67,445,227.78,468.82,280.67c26.88,59.7,28.32,159.1-38.28,225.71C329.8,607.12,218.5,505.22,197.68,475.44Z" transform="translate(-135.1 -179)"/><path class="cls-3" d="M430.54,506.38c66.6-66.61,65.16-166,38.28-225.71-11.14-24.75-44.92-60.06-89.57-78.77q-14.89-3.39-28.88-5.55c63.22,71.25,110,188.65,51.37,333.41A170.42,170.42,0,0,0,430.54,506.38Z" transform="translate(-135.1 -179)"/><ellipse class="cls-4" cx="213.32" cy="362.56" rx="9.64" ry="21.14" transform="translate(-317.15 327.21) rotate(-79.5)"/><ellipse class="cls-4" cx="412.37" cy="323.8" rx="21.14" ry="10.75" transform="translate(-216.17 -32.43) rotate(-18.38)"/><ellipse class="cls-5" cx="226.06" cy="258.33" rx="28.37" ry="11.87" transform="translate(-222.17 -61.34) rotate(-24.62)"/><ellipse class="cls-5" cx="194.17" cy="294.93" rx="13.72" ry="7.79" transform="translate(-292.52 148.66) rotate(-61.96)"/><circle cx="142.06" cy="148.02" r="27.07"/><circle class="cls-6" cx="135.1" cy="139.79" r="9.64"/><path d="M263.06,289.62a2.22,2.22,0,0,1-.51-.06A2.11,2.11,0,0,1,261,287a15.63,15.63,0,0,1,13.42-11.51c8.67-.89,13.22,4.68,14.41,7.74a2.11,2.11,0,0,1-3.93,1.51c-.09-.22-2.45-5.84-10.06-5.07s-9.68,8-9.75,8.33A2.11,2.11,0,0,1,263.06,289.62Z" transform="translate(-135.1 -179)"/><path d="M321.27,291.25a2.13,2.13,0,0,1-.5.11,2.1,2.1,0,0,1-2.28-1.9,15.62,15.62,0,0,1,8.95-15.24c7.92-3.66,14,.13,16.14,2.64a2.1,2.1,0,0,1-3.22,2.71c-.16-.19-4.22-4.74-11.16-1.53s-6.55,10.73-6.52,11A2.1,2.1,0,0,1,321.27,291.25Z" transform="translate(-135.1 -179)"/><path d="M317.51,337.08a1.8,1.8,0,0,1-.46-.05,2.09,2.09,0,0,1-1.64-2c0-9.79,3.88-18.8,11.87-27.53,10.93-11.95,25.11-6.14,25.25-6.08a2.1,2.1,0,0,1-1.63,3.87,18.67,18.67,0,0,0-20.52,5.05c-5.22,5.7-7.94,10.83-9.34,15.22a46.93,46.93,0,0,1,10.59-10.14c5.59-3.8,16.35-5.54,26.77-.35a2.1,2.1,0,1,1-1.87,3.76c-9.51-4.73-18.69-2.55-22.54.06-9.55,6.5-14.53,16.93-14.58,17A2.1,2.1,0,0,1,317.51,337.08Z" transform="translate(-135.1 -179)"/><path d="M269.61,400.65a126.11,126.11,0,0,1-14.47-.7,2.1,2.1,0,0,1,.55-4.17c.82.11,82.24,10.13,128.88-50.63a2.1,2.1,0,0,1,3.33,2.56C351.87,394.66,295.86,400.65,269.61,400.65Z" transform="translate(-135.1 -179)"/><path class="cls-7" d="M390.53,383.87c-3,10.88-17.71,16.32-32.92,12.18a35.35,35.35,0,0,1-17.31-10.37A128.22,128.22,0,0,0,377,360.18C387.09,365.78,392.87,375.24,390.53,383.87Z" transform="translate(-135.1 -179)"/><ellipse class="cls-8" cx="320.79" cy="194.63" rx="34.3" ry="15.39" transform="translate(-150.97 -150.04) rotate(-5.04)"/><path class="cls-9" d="M355,191.61c.67,7.56-11,14.94-27,17.61a18.47,18.47,0,0,1-2.27-14c1.84-7.26,8.21-12.42,16.26-14.2h0C349.56,183.2,354.55,187,355,191.61Z" transform="translate(-135.1 -179)"/><path class="cls-9" d="M318.92,207.35a16.44,16.44,0,0,1-1,2.86c-17,.56-30.6-4.73-31.28-12.56-.54-5.94,6.53-11.74,17.28-15.25C317.59,183,321.4,197.59,318.92,207.35Z" transform="translate(-135.1 -179)"/><path class="cls-10" d="M241.36,226c-2.79,7-1.09,10.38,2.3,10.49,9.18.3,30.77-2.62,45.53-11.38,23.14-13.74,31.81-31.33,20.92-37.62-12.48-7.21-29.32-12-48.56,7.21C246.55,209.65,244.39,218.38,241.36,226Z" transform="translate(-135.1 -179)"/><path class="cls-8" d="M310.11,187.44a57.8,57.8,0,0,0-7.53-3.69c-13.93,21.7-35.19,39.86-57.25,52.71,9.93-.07,29.93-3.13,43.86-11.4C312.33,211.32,321,193.73,310.11,187.44Z" transform="translate(-135.1 -179)"/><path class="cls-10" d="M330,195.1c2.9,11.71,6.85,26.3,32.86,40.71,21,11.64,32.78,11.15,32.95,8.26.19-3.39-8.55-31.58-27.67-46.56C352.62,185.34,327.52,184.94,330,195.1Z" transform="translate(-135.1 -179)"/><path class="cls-8" d="M368.17,197.51c-9.55-7.47-22.69-10.5-30.84-9.38,15.43,12.74,35.86,33,43.22,55.56,9.83,3.16,15.17,2.32,15.29.38C396,240.68,387.29,212.49,368.17,197.51Z" transform="translate(-135.1 -179)"/></svg>