<svg id="Ebene_1" data-name="Ebene 1" xmlns="http://www.w3.org/2000/svg" viewBox="0 0 252.23 300"><defs><style>.cls-1{fill:#d5d8d1;}.cls-2{fill:#f9a801;}.cls-3{fill:#e69403;}.cls-4{fill:#fe823c;}.cls-5{fill:#ffc700;}.cls-6{fill:#fff;}.cls-7{fill:red;}.cls-8{fill:#3c0;}.cls-9{fill:#063;}.cls-10{fill:lime;}</style></defs><ellipse class="cls-1" cx="126.74" cy="281.95" rx="91.48" ry="18.05"/><path class="cls-2" d="M295.32,349.3s-28.57,32.28-33.4,65.95c-3.47,24.25,6.3,29,18.25,21.75S311,393.69,311,393.69Z" transform="translate(-261.21 -254)"/><path class="cls-2" d="M478.77,342.66s31,31.78,34.26,65.76c2.77,28.85-9.1,28.46-21.42,20.15s-29.83-45.89-29.83-45.89Z" transform="translate(-261.21 -254)"/><path class="cls-2" d="M339.33,445.2s-9,50.5,2,75.27c10.46,23.6,18.58,17.07,26.25,1.34,5.62-11.52,8.7-59.89,8.7-59.89Z" transform="translate(-261.21 -254)"/><path class="cls-2" d="M434.9,444.6s11.21,50,1.35,75.29c-9.39,24-17.8,17.88-26.17,2.51C404,511.14,398.72,463,398.72,463Z" transform="translate(-261.21 -254)"/><path class="cls-2" d="M302.93,451.63c-28.06-40.13-32.28-120.13,3-155.37,77.14-77.14,161.92-9.74,177.79,25.52,17.92,39.8,18.88,106.07-25.52,150.47C391,539.41,316.81,471.48,302.93,451.63Z" transform="translate(-261.21 -254)"/><path class="cls-3" d="M458.17,472.25c44.4-44.4,43.44-110.67,25.52-150.47-7.43-16.5-29.95-40-59.71-52.51q-9.93-2.26-19.25-3.7c42.14,47.5,73.34,125.76,34.24,222.27A112.63,112.63,0,0,0,458.17,472.25Z" transform="translate(-261.21 -254)"/><ellipse class="cls-4" cx="313.36" cy="376.37" rx="6.43" ry="14.09" transform="translate(-375.04 361.87) rotate(-79.5)"/><ellipse class="cls-4" cx="446.06" cy="350.54" rx="14.09" ry="7.17" transform="translate(-349 -95.44) rotate(-18.38)"/><ellipse class="cls-5" cx="321.85" cy="306.89" rx="18.91" ry="7.91" transform="translate(-359.8 -92.01) rotate(-24.62)"/><ellipse class="cls-5" cx="300.59" cy="331.29" rx="9.15" ry="5.19" transform="translate(-394.32 186.85) rotate(-61.96)"/><circle cx="94.7" cy="98.68" r="18.05"/><circle class="cls-6" cx="90.07" cy="93.19" r="6.43"/><path d="M346.52,327.75a1.27,1.27,0,0,1-.34,0,1.41,1.41,0,0,1-1-1.69,10.43,10.43,0,0,1,9-7.67c5.78-.59,8.81,3.12,9.6,5.16a1.4,1.4,0,0,1-2.61,1c-.06-.15-1.64-3.9-6.71-3.38a7.6,7.6,0,0,0-6.5,5.55A1.43,1.43,0,0,1,346.52,327.75Z" transform="translate(-261.21 -254)"/><path d="M385.32,328.84a1.6,1.6,0,0,1-.33.07,1.41,1.41,0,0,1-1.52-1.27,10.42,10.42,0,0,1,6-10.16c5.28-2.44,9.35.09,10.76,1.76a1.4,1.4,0,0,1-2.15,1.8c-.1-.12-2.81-3.15-7.44-1a7.63,7.63,0,0,0-4.35,7.36A1.4,1.4,0,0,1,385.32,328.84Z" transform="translate(-261.21 -254)"/><path d="M382.82,359.39l-.31,0a1.4,1.4,0,0,1-1.09-1.37c0-6.53,2.59-12.54,7.91-18.36,7.29-8,16.75-4.09,16.84-4.05a1.4,1.4,0,0,1-1.09,2.58,12.44,12.44,0,0,0-13.68,3.37,27.57,27.57,0,0,0-6.23,10.14,31.65,31.65,0,0,1,7.06-6.76c3.73-2.53,10.9-3.69,17.85-.23a1.39,1.39,0,0,1,.63,1.88,1.41,1.41,0,0,1-1.88.63c-6.34-3.16-12.46-1.71-15,0a31.94,31.94,0,0,0-9.72,11.35A1.42,1.42,0,0,1,382.82,359.39Z" transform="translate(-261.21 -254)"/><path d="M350.89,401.77a83.48,83.48,0,0,1-9.65-.47,1.4,1.4,0,1,1,.37-2.78c.54.08,54.82,6.75,85.91-33.75a1.41,1.41,0,1,1,2.23,1.71C405.73,397.77,368.38,401.77,350.89,401.77Z" transform="translate(-261.21 -254)"/><path class="cls-7" d="M431.5,390.58c-2,7.25-11.81,10.88-21.95,8.12A23.54,23.54,0,0,1,398,391.79a85.56,85.56,0,0,0,24.45-17C429.2,378.52,433.06,384.83,431.5,390.58Z" transform="translate(-261.21 -254)"/><ellipse class="cls-8" cx="385.01" cy="264.42" rx="22.87" ry="10.26" transform="translate(-282.97 -219.12) rotate(-5.04)"/><path class="cls-9" d="M407.79,262.41c.45,5-7.34,9.95-18,11.73a12.29,12.29,0,0,1-1.51-9.32c1.23-4.84,5.47-8.28,10.84-9.47h0C404.18,256.8,407.52,259.3,407.79,262.41Z" transform="translate(-261.21 -254)"/><path class="cls-9" d="M383.76,272.9a11.37,11.37,0,0,1-.67,1.91c-11.32.37-20.4-3.16-20.86-8.38-.35-3.95,4.35-7.82,11.52-10.17C382.88,256.68,385.41,266.39,383.76,272.9Z" transform="translate(-261.21 -254)"/><path class="cls-10" d="M332.05,285.3c-1.86,4.66-.72,6.92,1.54,7,6.12.2,20.51-1.75,30.35-7.59,15.42-9.16,21.21-20.89,13.95-25.08-8.32-4.81-19.55-8-32.38,4.8C335.51,274.44,334.07,280.25,332.05,285.3Z" transform="translate(-261.21 -254)"/><path class="cls-8" d="M377.89,259.63a37.84,37.84,0,0,0-5-2.46c-9.28,14.46-23.46,26.57-38.16,35.14,6.62-.05,19.95-2.09,29.24-7.6C379.36,275.55,385.15,263.82,377.89,259.63Z" transform="translate(-261.21 -254)"/><path class="cls-10" d="M391.17,264.73c1.93,7.81,4.56,17.54,21.9,27.14,14,7.76,21.85,7.44,22,5.51.13-2.26-5.7-21.06-18.45-31C406.22,258.22,389.49,258,391.17,264.73Z" transform="translate(-261.21 -254)"/><path class="cls-8" d="M416.59,266.34c-6.36-5-15.13-7-20.56-6.25,10.29,8.49,23.91,22,28.81,37,6.56,2.1,10.12,1.54,10.2.25C435.17,295.12,429.34,276.32,416.59,266.34Z" transform="translate(-261.21 -254)"/></svg>