<svg id="Ebene_1" data-name="Ebene 1" xmlns="http://www.w3.org/2000/svg" viewBox="0 0 251.06 300"><defs><style>.cls-1{fill:#4f403b;}.cls-2{fill:#463732;}.cls-3{fill:#2b2320;}.cls-4{fill:#ffc700;}.cls-5{fill:#f8ffb9;}.cls-6{fill:#f7a501;}.cls-7{fill:#d5d8d1;}.cls-8{fill:#f9a801;}.cls-9{fill:#e69403;}.cls-10{fill:red;}.cls-11{fill:#fe823c;}.cls-12{fill:#fff;}.cls-13{fill:lime;}.cls-14{fill:#063;}.cls-15{fill:#3c0;}</style></defs><path class="cls-1" d="M369.93,469c-4.29,4.29-19.1,19.71-8.24,46.28,6.37,15.59,25.8,25.33,42.7,27.63a62.56,62.56,0,0,0,29.67-3.57C451.2,532.63,460,523.23,460,523.23l6.73-57s-3.71-17.06-34.39-19.79c-26.55-2.37-53.4-1.83-61.07,3-8.07,5.1-5.83,7.21-2.63,13C371,466.91,370.46,468.47,369.93,469Z" transform="translate(-299 -300.83)"/><path class="cls-2" d="M374.15,465.23c0-7.87,3.76-14.32,7.5-18.8-4.67.71-8.28,1.72-10.41,3.06-8.07,5.1-5.83,7.21-2.63,13,2.42,4.39,1.85,6,1.32,6.49-4.29,4.29-19.1,19.71-8.24,46.28a28.12,28.12,0,0,0,1.22,2.61c-2.32-16.94.58-26.24,1.59-30.06C366.41,480.58,374.15,473.22,374.15,465.23Z" transform="translate(-299 -300.83)"/><path class="cls-2" d="M449.33,450.2a89.5,89.5,0,0,0-25.07,58.3l-16.15-2s-8.87,2.68-4.37,11.53c4.93,9.68,21,9,23.49,23.45a56.53,56.53,0,0,0,6.83-2.14C451.2,532.63,460,523.23,460,523.23l6.73-57S464.48,456.09,449.33,450.2Z" transform="translate(-299 -300.83)"/><path class="cls-3" d="M369.3,469.64a173.79,173.79,0,0,0,46.22,6.45A165.66,165.66,0,0,0,463.06,469l-1.9-6.38a157.71,157.71,0,0,1-47,6.82,167.85,167.85,0,0,1-45.54-6.93c2.41,4.38,1.84,5.94,1.31,6.47Z" transform="translate(-299 -300.83)"/><ellipse class="cls-3" cx="413.13" cy="456.24" rx="8.58" ry="43.48" transform="translate(-356.68 551.87) rotate(-87.94)"/><path class="cls-4" d="M448.79,459.76c-4.19-3.77-7.33-1.62-11.34-1.37s-3.7-3-7.2-2.74c-7.68.63-6.47-1.41-13.76-.81a22.64,22.64,0,0,1-11.71-2.17c-5.18-2.35-10.79-3.59-15-1.42-2,1-5.36.38-9.62,2.58-2.26,1.16-3.17,3.69-3.52,5.82,7.68,2.6,21,4.62,36.17,5.17,15.94.57,29.94-.62,37.59-2.88A6.85,6.85,0,0,0,448.79,459.76Z" transform="translate(-299 -300.83)"/><path class="cls-5" d="M394.45,454.59c-1.75.68-6.51-.3-7.24,1.32s.33,2.87,3.78,3.31,11.17,1.24,11.17-2C402.16,453,396,454,394.45,454.59Z" transform="translate(-299 -300.83)"/><path class="cls-5" d="M414.1,458.92s-.93,1.58,1.28,1.9,3.27-.57,4.5.13a5.92,5.92,0,0,0,3.86.85c1.79-.09,4.13-.26,3.78-2.17s-1.52-1.25-2.31-1.35-3.42.39-4.44-.8-2.17-2-3.24-1S416.39,458.54,414.1,458.92Z" transform="translate(-299 -300.83)"/><path class="cls-5" d="M443.11,458.74s-2.67-.46-2.75,1.42,1.78,1.72,3,1.65C445.26,461.7,447.34,459.38,443.11,458.74Z" transform="translate(-299 -300.83)"/><path class="cls-5" d="M408.7,423.52c1.94,0,3.52,6.43.84,13.27-1.41,3.62-.49,3.38-.79,6.17s-1.35,7.18-4.78,3.34c-2.36-2.64-1.08-6.83-1.26-8.42s-1.06-4.78,1.41-8.06S404.65,423.52,408.7,423.52Z" transform="translate(-299 -300.83)"/><path class="cls-4" d="M399.29,402.39c3.59,2.82,11.88,7.1,18.26,0,8.11-9.07,3.79-12,8.26-17.89s9.33-14.75,9.5-19,3.11-9.94,9.06-9.94,45.38-1.2,50.85-5.89,16.82-17.14,6.06-29.18-22.94-7.32-30.68-4.91-16.41,3.72-28.48-7.42c-6.12-5.66-21.31-5.5-30-4.31s-15.16-7.42-28.09.31S369,322.36,342.8,323.79s-20.68,4.48-25.68,7-19.78,5.79-18,14.34,16.5,11.34,31.34,7,19.52-3.57,26.18.49,17.61,6.23,18.83,12.53,7.59,11,11,13.45,4.82,4.65,5.22,11.22S395.77,399.62,399.29,402.39Z" transform="translate(-299 -300.83)"/><path class="cls-5" d="M321.89,339c-.68,1.26-3.73,3.41.42,5.72s6.66-1.83,10.05-2.71,11.95-.73,14.2-2.77,4.54-5.56-2.53-8.3-9.86,1.32-12.94,2.58S323.13,336.73,321.89,339Z" transform="translate(-299 -300.83)"/><path class="cls-5" d="M383.5,337.77c2.11-1.21,6.1-.5,9.11,3.44,7.78,10.13,3,12.06,7.25,20.32,3,5.87,6,20.73-3.58,13s-8.82-12.12-8.82-16.82-2.72-7.08-5.61-10.24S380.9,339.26,383.5,337.77Z" transform="translate(-299 -300.83)"/><path class="cls-5" d="M397,321.25c-.06,1.69,1.26,4.3,5.09,4.49,5.18.25,13.07-.17,17.78,2s13.28-.3,15.79-6.32c1.45-3.45-.89-9.25-5.7-9s-5.77,3.05-11.24,2.7S397.28,314.25,397,321.25Z" transform="translate(-299 -300.83)"/><path class="cls-5" d="M444.05,339.18c0,4.4,8.53,8,24.7,6.62,5.37-.47,14.53,1.32,20.1-3.23s10.56-9.44,4-15.17c-6.71-5.89-10.84.09-13.56,2.42-4.11,3.52-7.13,3.31-19.29,3.31S444.05,334.91,444.05,339.18Z" transform="translate(-299 -300.83)"/><path class="cls-6" d="M367.91,348.3l-.22,0a4.89,4.89,0,0,1-5.25-4.54v-.06a2,2,0,1,0-4,.29v.23a4.91,4.91,0,0,1-4.54,5.25h-.06a2,2,0,0,0-1.85,2,1.76,1.76,0,0,0,.12.65,2.17,2.17,0,0,0,2.2,1.33h.07a4.88,4.88,0,0,1,5.23,4.5v.1a2,2,0,0,0,2,1.85,1.58,1.58,0,0,0,.65-.12,2.16,2.16,0,0,0,1.34-2.2v-.08a4.86,4.86,0,0,1,4.51-5.21h.09a2,2,0,1,0-.29-4Z" transform="translate(-299 -300.83)"/><path class="cls-6" d="M470.39,313.28l-.22,0a4.9,4.9,0,0,1-5.25-4.54v-.06a2,2,0,1,0-4,.29v.23a4.89,4.89,0,0,1-4.54,5.24h-.06a2,2,0,0,0-1.85,2,1.8,1.8,0,0,0,.12.65,2.17,2.17,0,0,0,2.2,1.33h.07a4.88,4.88,0,0,1,5.23,4.5v.1a2,2,0,0,0,2,1.85,1.76,1.76,0,0,0,.65-.12,2.16,2.16,0,0,0,1.34-2.2v-.08a4.87,4.87,0,0,1,4.51-5.21h.09a2,2,0,0,0-.29-4Z" transform="translate(-299 -300.83)"/><path class="cls-6" d="M402,376.05h-.13a2.77,2.77,0,0,1-3-2.56v0a1.13,1.13,0,0,0-2.25.16v.13a2.76,2.76,0,0,1-2.56,3h0a1.13,1.13,0,0,0-1.05,1.12,1,1,0,0,0,.07.37,1.22,1.22,0,0,0,1.24.75h0a2.75,2.75,0,0,1,2.95,2.54v.05a1.13,1.13,0,0,0,1.12,1.05,1,1,0,0,0,.37-.07,1.22,1.22,0,0,0,.75-1.24v-.05a2.74,2.74,0,0,1,2.54-2.94h0a1.13,1.13,0,0,0-.16-2.25Z" transform="translate(-299 -300.83)"/><path class="cls-6" d="M422.92,431h-.12a2.77,2.77,0,0,1-3-2.56v0a1.14,1.14,0,0,0-1.21-1,1.13,1.13,0,0,0-1,1.21v.13a2.76,2.76,0,0,1-2.56,2.95h0a1.12,1.12,0,0,0-1.05,1.12,1.09,1.09,0,0,0,.07.37,1.23,1.23,0,0,0,1.24.75h0a2.75,2.75,0,0,1,2.94,2.54v.06a1.12,1.12,0,0,0,1.12,1,.86.86,0,0,0,.37-.07,1.23,1.23,0,0,0,.75-1.24v0a2.75,2.75,0,0,1,2.54-2.94h.06a1.13,1.13,0,1,0-.17-2.25Z" transform="translate(-299 -300.83)"/><ellipse class="cls-7" cx="171.19" cy="291.42" rx="43.48" ry="8.58"/><path class="cls-8" d="M486.54,552s4.26,24-1,35.78c-5,11.22-8.83,8.12-12.48.64-2.67-5.48-4.13-28.47-4.13-28.47Z" transform="translate(-299 -300.83)"/><path class="cls-8" d="M452.62,552s-4.26,24,1,35.78c5,11.22,8.83,8.12,12.48.64,2.67-5.48,4.14-28.47,4.14-28.47Z" transform="translate(-299 -300.83)"/><path class="cls-8" d="M458.88,515.61s-27.42-13.5-43.45-11c-15.27,2.38-12.89,8.25-5.17,15.35,5.65,5.2,32.83,14.87,32.83,14.87Z" transform="translate(-299 -300.83)"/><path class="cls-8" d="M517.24,427.07c-15.57-5.75-42.89-1.51-63.85,26.37-43.74,58.18-8.31,72.9-8.31,100.87,0,10.81,26.72,25,42.4,16.79,17.95-9.42,17.42-23.36,33-30.11C544.55,530.62,574.33,448.16,517.24,427.07Z" transform="translate(-299 -300.83)"/><path class="cls-9" d="M525,430.59c-1.46,38.69-15.11,89.78-63.75,139.62,8.48,3.6,18.64,4.87,26.23.89,17.95-9.42,17.42-23.36,33-30.11C543.37,531.13,571.43,456.06,525,430.59Z" transform="translate(-299 -300.83)"/><path class="cls-10" d="M452.43,483.46c-3.1,1.77-7.63-.31-10.11-4.65a11.21,11.21,0,0,1-1.56-6c0-.07,6.11,2.14,6.65,2.24a52.25,52.25,0,0,0,7.25.06h0C455.71,478.63,454.89,482.05,452.43,483.46Z" transform="translate(-299 -300.83)"/><path d="M461.6,474.19c-9.67,1-16.29,0-20.77-1.51l-.66,1.23a42.11,42.11,0,0,0,13.88,2c2.33,0,4.89-.12,7.68-.4a.67.67,0,0,0-.13-1.33Z" transform="translate(-299 -300.83)"/><ellipse class="cls-11" cx="182.7" cy="173.47" rx="6.7" ry="3.41"/><ellipse class="cls-4" cx="507.5" cy="456.14" rx="4.35" ry="2.47" transform="translate(-432.67 388.8) rotate(-61.96)"/><ellipse class="cls-4" cx="510.78" cy="467.12" rx="6.35" ry="4.47" transform="translate(-477.97 224.22) rotate(-47.24)"/><circle cx="169.36" cy="151.29" r="8.58"/><circle class="cls-12" cx="167.16" cy="148.68" r="3.06"/><path d="M483.24,454.29a.52.52,0,0,1-.3-.06.65.65,0,0,1-.28-.83c1.24-2.9,2.31-6.74-.48-10.81s-9.36-2.46-9.42-2.45a.59.59,0,0,1-.7-.46.61.61,0,0,1,.42-.75c.3-.08,7.37-1.81,10.61,2.92s2,8.88.61,12.09A.56.56,0,0,1,483.24,454.29Z" transform="translate(-299 -300.83)"/><ellipse class="cls-13" cx="514.13" cy="428.71" rx="6.83" ry="16.5" transform="translate(-318.89 531.54) rotate(-76.91)"/><path class="cls-14" d="M522.57,424.38a36,36,0,0,0-6.3-2.17c-8.84-2.2-17-1.07-18.14,2.52s5,8.29,13.86,10.49a36.62,36.62,0,0,0,8.91,1.12,12.82,12.82,0,0,0,2.4-6.06A12.61,12.61,0,0,0,522.57,424.38Z" transform="translate(-299 -300.83)"/><path class="cls-13" d="M497.17,432.9c4.83-3.27,17.16-13.54,22.48-6.32s-6,14.73-11.79,16.77c-4.67,1.66-13.48,2.71-18.31,1-2.13-.76-2.81-2.48-1.32-4.17A53.55,53.55,0,0,1,497.17,432.9Z" transform="translate(-299 -300.83)"/><path class="cls-15" d="M517.14,424.56A60.88,60.88,0,0,1,487.66,441c-.64,1.39.13,2.68,1.89,3.31,4.83,1.71,13.64.66,18.31-1,5.75-2,17.11-9.54,11.79-16.77A6,6,0,0,0,517.14,424.56Z" transform="translate(-299 -300.83)"/><path class="cls-13" d="M489.67,416.2c-1.55.51-1.61,2.17-.54,3.4,1.88,2.18,6.61,5.57,15.3,8.92,10.68,4.11,14.93-.13,15.78-2.6,1.14-3.3.56-6.55-10.42-9.26C501.24,414.55,493.37,415,489.67,416.2Z" transform="translate(-299 -300.83)"/><path class="cls-15" d="M504.43,428.52c10.69,4.11,14.93-.13,15.78-2.6a7.14,7.14,0,0,0,.39-1.71,89.78,89.78,0,0,1-13.26-2,42.09,42.09,0,0,1-15.41-6.54,16,16,0,0,0-2.26.54c-1.55.51-1.61,2.17-.54,3.4C491,421.78,495.74,425.17,504.43,428.52Z" transform="translate(-299 -300.83)"/></svg>