<svg id="Ebene_1" data-name="Ebene 1" xmlns="http://www.w3.org/2000/svg" viewBox="0 0 194.91 225"><defs><style>.cls-1{fill:#f60;}.cls-2{fill:#fff;}</style></defs><path class="cls-1" d="M216.47,333.84s41.24,29.1,75,1.86c0,0-12.79,23.77-26,31.74,0,0,31.24-4.74,52.86,5.28A244.79,244.79,0,0,0,260,377.57c-34.13,7-55.28-6.75-55.28-6.75s43.27,6.42,59-16.27C263.79,354.55,231.5,355.49,216.47,333.84Z" transform="translate(-204.75 -230.45)"/><path d="M353.33,445.27c-2,2.66-.55,6.27,1.72,10.18-5.38-2-9.43-7.83-10.91-12.47-2.2.87-1.12,6.08-.28,7.91-1.57.63-6.59-3.22-8.09-10.17-2.17-10,4.57-13.43,4.18-14.33-1.8-4.14-4.34-7.79-9.25-10-3.1-1.37-18.07-5.08-30.63-1.12-20.67,6.53-38.58,6.09-49.62,3.91-11.47-2.27-15.5.17-18.82,2.2.72-4.44,9.83-9.63,22-9,8.69.45,18.46,4.05,38.55-3.77,11.66-4.54,27.47-6.56,40.14-1.19,5.52,2.34,10.41,7,15.16,18.22,9,1.08,16.55,5,18.8,14.38-4-3.38-6.87-3.74-9.47-3.44.35,7.24,11.26,12.77,10.85,12.74C358.35,448.73,354.48,446,353.33,445.27Z" transform="translate(-204.75 -230.45)"/><path d="M205.65,375.93c1.82,4.09,37.54,26.8,88.42,11.68a63.29,63.29,0,0,0,24-13.1c0,1-7.74,16.64-26.25,23.73-24.23,9.27-48.42,6-64.21,3.05-16.93-2.68-6,12.35-3.64,15.42C222.7,416.67,205,392.78,205.65,375.93Z" transform="translate(-204.75 -230.45)"/><path d="M289.91,356.8a5,5,0,0,0,1,3.18,3.65,3.65,0,0,0,6.14-1.05l3.6.51c-1.18,2.77-3.52,4.16-7,4.16a8,8,0,0,1-5.61-1.94,6.62,6.62,0,0,1-2.09-5.06,7.07,7.07,0,0,1,2-5.27,8.62,8.62,0,0,1,10.87-.1,6.81,6.81,0,0,1,1.93,5.13v.44Zm7.27-1.83a3.47,3.47,0,0,0-1-2.44,3.41,3.41,0,0,0-2.58-1,3.3,3.3,0,0,0-2.58,1.1,3.49,3.49,0,0,0-1,2.38Z" transform="translate(-204.75 -230.45)"/><path d="M302.73,340.05h3.79v11a6.6,6.6,0,0,1,4.88-1.66,6.7,6.7,0,0,1,5.06,2.1,6.89,6.89,0,0,1,2,4.94,7.12,7.12,0,0,1-2,5.15,6.84,6.84,0,0,1-5.15,2.06q-3.4,0-4.73-1.69l-.08,1.25h-3.79Zm11.88,16.41a4.25,4.25,0,0,0-1.21-3,4.05,4.05,0,0,0-3.09-1.28,4,4,0,0,0-3.05,1.27,4.28,4.28,0,0,0-1.17,3,4.19,4.19,0,0,0,1.23,3,4.38,4.38,0,0,0,6.14,0A4.34,4.34,0,0,0,314.61,356.46Z" transform="translate(-204.75 -230.45)"/><path d="M324.3,351.18a5.42,5.42,0,0,1,4.53-1.83,4.73,4.73,0,0,1,1.8.34l-.47,3a3.76,3.76,0,0,0-1.87-.47c-2.66,0-4,1.64-4,4.94v6h-3.79V349.79h3.79Z" transform="translate(-204.75 -230.45)"/><path d="M346.66,363.16h-3.72v-1.22a7.61,7.61,0,0,1-10.06-.5,7.39,7.39,0,0,1-1.93-5.08,6.88,6.88,0,0,1,2-5,7.65,7.65,0,0,1,10-.35v-1.26h3.72Zm-3.29-6.7a4.11,4.11,0,0,0-1.21-3.06,4.65,4.65,0,0,0-6.19,0,4.62,4.62,0,0,0,0,6.21,4.27,4.27,0,0,0,3.12,1.19,4,4,0,0,0,4.26-4.3Z" transform="translate(-204.75 -230.45)"/><path d="M353.61,351a6.32,6.32,0,0,1,4.73-1.66q5.32,0,5.32,5.66v8.15h-3.75v-7.07c0-2.82-1-4.23-3-4.23q-3.28,0-3.29,4.53v6.77h-3.79V349.79h3.79Z" transform="translate(-204.75 -230.45)"/><path d="M381.52,362q0,6.87-7.39,6.87a9.61,9.61,0,0,1-5.55-1.54,4.66,4.66,0,0,1-2.26-4h4a2.59,2.59,0,0,0,1.14,1.93,3.86,3.86,0,0,0,2.54.95q3.71,0,3.71-3.86v-.85a6.24,6.24,0,0,1-4.87,1.76,6.54,6.54,0,0,1-7-6.77,7.11,7.11,0,0,1,2-5.14,6.85,6.85,0,0,1,5.18-2.06,5.84,5.84,0,0,1,4.67,1.72v-1.28h3.79Zm-3.24-5.82a3.84,3.84,0,0,0-1.18-2.94,4.26,4.26,0,0,0-3.08-1.12,4.12,4.12,0,0,0-3.11,1.22,4.2,4.2,0,0,0-1.19,3.08q0,4,4.3,4a4.1,4.1,0,0,0,3.1-1.2A4.2,4.2,0,0,0,378.28,356.19Z" transform="translate(-204.75 -230.45)"/><path d="M399.66,356.46a6.6,6.6,0,0,1-2.23,5.14,8.41,8.41,0,0,1-5.85,2,8.52,8.52,0,0,1-5.88-2,6.51,6.51,0,0,1-2.26-5.12,6.58,6.58,0,0,1,2.22-5.13,8.48,8.48,0,0,1,5.87-2,8.57,8.57,0,0,1,5.88,2A6.52,6.52,0,0,1,399.66,356.46Zm-12.39.05a4.08,4.08,0,0,0,1.21,3.06,4.27,4.27,0,0,0,3.12,1.19,3.93,3.93,0,0,0,3.07-1.27,4.33,4.33,0,0,0,1.16-3,4.29,4.29,0,0,0-1.18-3,4,4,0,0,0-3.07-1.27,4.17,4.17,0,0,0-3.1,1.21A4.22,4.22,0,0,0,387.27,356.51Z" transform="translate(-204.75 -230.45)"/><path class="cls-2" d="M286.33,270.86c-2.52.35-5-.59-7.36-1.64-2.8-1.26-5-7.67-12.84-6.92-2.91.28-16-4.26-18.94,10.64a31.33,31.33,0,0,0-.41,4,6.88,6.88,0,0,0,1.92,5.34c1.63,1.74,3.31,3.45,5.06,5.08q4,3.74,8.19,7.34c1.28,1.11,2.71,2.06,4.07,3.08l-.09.55c-4,.44-7.87-.73-11.72-1.7a29.48,29.48,0,0,1-10.78-4.85,4.78,4.78,0,0,0-2.26,4.45c.2,5.91,5.17,9.33,9.64,11.07,8.23,3.21,13.21.88,15.68-.68-1,1.72-9.61,9.78-23.71,8.46.09,1.78.13,3.48.29,5.17.13,1.43,2.68,4.64,11.19,5,2.89.12,8.72-2.37,10.82-4.39,6.23-6,8.53-12.47,8.34-16.3,1.65,2.79.61,8.74-2.71,15.85,4-1.37,6.42-7.08,7.73-11.15s1.73-9.44,1.3-15.46c3.06,5.89,2.42,12.14,2.88,18.51a16.92,16.92,0,0,1,10.84-1.76c-.72-6.77,1.48-12.42,6.63-16.64.1-2.36,0-4.58.32-6.76a8.63,8.63,0,0,1,3.54-5.64C301.76,278.64,293.25,269.92,286.33,270.86ZM275.07,288c-3.13,4.26-8.14,4.29-11.3.07a13.85,13.85,0,0,1-2.64-7.95,14.85,14.85,0,0,1,2.24-9.21c3.22-5,8.79-5,12.07-.08S278.48,283.33,275.07,288Z" transform="translate(-204.75 -230.45)"/><path class="cls-2" d="M273.9,280.05a4.27,4.27,0,0,1-1.24,1.58l1.6,2.92a9.06,9.06,0,0,0-.21-6.64A3,3,0,0,1,273.9,280.05Z" transform="translate(-204.75 -230.45)"/><path class="cls-2" d="M320.28,302.37c-1.79-.89-3.85-1.71-3.85-1.71-.32,2.85-.64,5.54-1,8.55l6,2.62C322,309.41,323.2,303.82,320.28,302.37Z" transform="translate(-204.75 -230.45)"/><path class="cls-2" d="M268.64,273.9c-2,.1-3.5,2.59-4.39,4.88l4.23.05c.18-.93.28-2.64,2.07-3.09a3.27,3.27,0,0,1,2.6.58A4.29,4.29,0,0,0,268.64,273.9Z" transform="translate(-204.75 -230.45)"/><path class="cls-2" d="M217.21,263.78a14.19,14.19,0,0,0,4.56,14.42c7.1,6.46,14.06,4.73,14.06,4.73C230.54,271.19,217.21,263.78,217.21,263.78Z" transform="translate(-204.75 -230.45)"/><path class="cls-2" d="M308.89,305.16l5.38,3.36c.89-2.09,1-8.12,1-8.12s-2.69-1.35-4.38-2C310.22,300.73,309.59,302.85,308.89,305.16Z" transform="translate(-204.75 -230.45)"/><path class="cls-2" d="M267.9,259l2.67.59c1.55.34,6.68-4.12,2.73-18.24C269.25,245.85,263.51,258.08,267.9,259Z" transform="translate(-204.75 -230.45)"/><path class="cls-2" d="M311,288.8c3.76,1.62,6.78,1.19,10.23.76a34,34,0,0,0-5.7-4.23c-3.68-2-5.55-1.59-6.23-.34C308.39,286.75,310.41,288.52,311,288.8Z" transform="translate(-204.75 -230.45)"/><path class="cls-2" d="M308.15,304.66c.71-2.52,1.89-6.63,1.89-6.63-1.66-.83-3.19-1.39-4.73-2.16a10.1,10.1,0,0,0,0,6C305.5,302.79,306.06,303.38,308.15,304.66Z" transform="translate(-204.75 -230.45)"/><path class="cls-2" d="M321.62,312.88c.18,3.64,1.28,5.06-.47,11.33,5.54-.81,8.24-5.45,6.24-10.55Z" transform="translate(-204.75 -230.45)"/><path class="cls-2" d="M323.19,303.69c-.18,2.74-.35,5.39-.52,8.21a8.5,8.5,0,0,0,5,.5c1.91-.3,1.51-2.92,1.51-2.92A7.26,7.26,0,0,0,323.19,303.69Z" transform="translate(-204.75 -230.45)"/><path class="cls-2" d="M320.63,313.18a1.56,1.56,0,0,0-.77-1c-1.39-.66-2.83-1.23-4.45-1.92a19.73,19.73,0,0,1-4,11.55,8.44,8.44,0,0,0,8.42,2.55C321.85,319.17,321.18,317,320.63,313.18Z" transform="translate(-204.75 -230.45)"/><path class="cls-2" d="M314.47,311.38a2.42,2.42,0,0,0-1.29-2.54c-3.1-1.9-5.78-4.22-7.95-5,.42,6.2,1.44,12,5.42,17.1a8.87,8.87,0,0,0,1.05-1.12A18,18,0,0,0,314.47,311.38Z" transform="translate(-204.75 -230.45)"/><path d="M316.55,279.59a8.59,8.59,0,0,0,6.29-.52c6.29-2.84,9.28-1.52,12.85,3.56a4.83,4.83,0,0,1,.36.56,35.63,35.63,0,0,1,4.5,20.25,15.29,15.29,0,0,1-3.74,8.73c-1.47,1.7-3.41,2.75-5.49.38a7.1,7.1,0,0,0-.76-.62l-1.94,1.31a46.33,46.33,0,0,1,.22,5.44c-.36,4.62-2.72,8.37-5.8,11.61a14.42,14.42,0,0,1-15.55,4.13c-4.65-1.39-7.52-4.68-9.54-8.88a58.69,58.69,0,0,1-4.19-12.85c-2.1-1.26-8.49,1-18.47,8.75-15.26,11.85-31.91,3.6-33,3.11-4.12,15.52-15.56,10.17-21.43,6.1,2.19-.52,13.15-4.23,11.37-22,1.78,1.22,2.88,1.95,4.84.76a29,29,0,0,1-5.69-20.32,22.47,22.47,0,0,1-10.63-2.52c-11.61-5.91-12.24-31.24-12-31.66,11.26,3,20.35,9.22,28.08,17.9,7.38-11,6.48-22,1.24-33.42a23,23,0,0,1,13,10.27c4.2-9.83-5.68-17.77-5.93-18.2a45.15,45.15,0,0,1,12.67,9.25c-.81-7.1-1.37-6.67-2.65-10.27,3.87,3.66,6.22,8.2,7.88,13.42.51-.63,6.76-7.48,9.94-10.4,2.52-2.32,4.09-1.8,5.27,1.4a35.34,35.34,0,0,1,1.71,18.3c-.5,3.07-1.47,6.06-2.27,9.26a2.58,2.58,0,0,0,.36.26c4.35,2.48,8.55,5.25,13,7.46,3.67,1.81,7.16,3.54,13.7,10.57C308,276.86,315.41,279.25,316.55,279.59Zm-62.34,17a29.48,29.48,0,0,1-10.78-4.85,4.78,4.78,0,0,0-2.26,4.45c.2,5.91,5.17,9.33,9.64,11.07,8.23,3.21,13.21.88,15.68-.68-1,1.72-9.61,9.78-23.71,8.46.09,1.78.13,3.48.29,5.17.13,1.43,2.68,4.64,11.19,5,2.89.12,8.72-2.37,10.82-4.39,6.23-6,8.53-12.47,8.34-16.3,1.65,2.79.61,8.74-2.71,15.85,4-1.37,6.42-7.08,7.73-11.15s1.73-9.44,1.3-15.46c3.06,5.89,2.42,12.14,2.88,18.51a16.92,16.92,0,0,1,10.84-1.76c-.72-6.77,1.48-12.42,6.63-16.64.1-2.36,0-4.58.32-6.76a8.63,8.63,0,0,1,3.54-5.64c-2.19-2.84-10.7-11.56-17.62-10.62-2.52.35-5-.59-7.36-1.64-2.8-1.26-5-7.67-12.84-6.92-2.91.28-16-4.26-18.94,10.64a31.33,31.33,0,0,0-.41,4,6.88,6.88,0,0,0,1.92,5.34c1.63,1.74,3.31,3.45,5.06,5.08q4,3.74,8.19,7.34c1.28,1.11,2.71,2.06,4.07,3.08l-.09.55C261.9,298.77,258.06,297.6,254.21,296.63Zm-37-32.85a14.19,14.19,0,0,0,4.56,14.42c7.1,6.46,14.06,4.73,14.06,4.73C230.54,271.19,217.21,263.78,217.21,263.78Zm53.36-4.15c1.55.34,6.68-4.12,2.73-18.24-4.05,4.46-9.79,16.69-5.4,17.65Zm40.89,62.19a8.44,8.44,0,0,0,8.42,2.55c2-5.2,1.3-7.41.75-11.19a1.56,1.56,0,0,0-.77-1c-1.39-.66-2.83-1.23-4.45-1.92A19.73,19.73,0,0,1,311.46,321.82Zm-.81-.89a8.87,8.87,0,0,0,1.05-1.12,18,18,0,0,0,2.77-8.43,2.42,2.42,0,0,0-1.29-2.54c-3.1-1.9-5.78-4.22-7.95-5C305.65,310,306.67,315.84,310.65,320.93Zm16.74-7.27-5.77-.78c.18,3.64,1.28,5.06-.47,11.33C326.69,323.4,329.39,318.76,327.39,313.66Zm-5.95-1.83c.58-2.42,1.76-8-1.16-9.46-1.79-.89-3.85-1.71-3.85-1.71l-1,8.55Zm1.23.07a8.5,8.5,0,0,0,5,.5c1.91-.3,1.51-2.92,1.51-2.92a7.26,7.26,0,0,0-6-5.79C323,306.43,322.84,309.08,322.67,311.9Zm-7.1-26.57c-3.68-2-5.55-1.59-6.23-.34-.95,1.76,1.07,3.53,1.7,3.81,3.76,1.62,6.78,1.19,10.23.76A34,34,0,0,0,315.57,285.33Zm-6.68,19.83,5.38,3.36c.89-2.09,1-8.12,1-8.12s-2.69-1.35-4.38-2C310.22,300.73,309.59,302.85,308.89,305.16ZM310,298c-1.66-.83-3.19-1.39-4.73-2.16a10.1,10.1,0,0,0,0,6c.23,1,.79,1.55,2.88,2.83C308.86,302.14,310,298,310,298Z" transform="translate(-204.75 -230.45)"/><path d="M263.37,270.89c3.22-5,8.79-5,12.07-.08s3,12.52-.37,17.17c-3.13,4.26-8.14,4.29-11.3.07a13.85,13.85,0,0,1-2.64-7.95A14.85,14.85,0,0,1,263.37,270.89Zm5.27,3c-2,.1-3.5,2.59-4.39,4.88l4.23.05c.18-.93.28-2.64,2.07-3.09a3.27,3.27,0,0,1,2.6.58A4.29,4.29,0,0,0,268.64,273.9Zm5.41,4a3,3,0,0,1-.15,2.14,4.27,4.27,0,0,1-1.24,1.58l1.6,2.92A9.06,9.06,0,0,0,274.05,277.91Z" transform="translate(-204.75 -230.45)"/></svg>