<svg id="Ebene_1" data-name="Ebene 1" xmlns="http://www.w3.org/2000/svg" xmlns:xlink="http://www.w3.org/1999/xlink" viewBox="0 0 145.96 150"><defs><style>.cls-1{fill:url(#Unbenannter_Verlauf_2);}.cls-2{fill:#fdfdfc;}.cls-3{fill:#f60;}</style><radialGradient id="Unbenannter_Verlauf_2" cx="4.94" cy="838.95" r="0.79" gradientTransform="matrix(97.29, 44.13, 44.15, -97.24, -37220.69, 81827.6)" gradientUnits="userSpaceOnUse"><stop offset="0" stop-color="#7cfb4c"/><stop offset="1" stop-color="#2e6438"/></radialGradient></defs><g id="Zebrango_logo_03_KopfRundHG_150px" data-name="Zebrango logo 03 KopfRundHG 150px"><path id="Pfad_29-2" data-name="Pfad 29-2" class="cls-1" d="M281.47,377.38A66.57,66.57,0,1,0,348,444v0a66.56,66.56,0,0,0-66.54-66.56Z" transform="translate(-203.4 -360.52)"/><path id="Pfad_30" data-name="Pfad 30" class="cls-2" d="M301.19,396.48a12.24,12.24,0,0,1-6.55-1.45c-2.48-1.12-4.39-6.81-11.4-6.15-2.59.26-14.23-3.78-16.84,9.46a29.89,29.89,0,0,0-.36,3.54,6.18,6.18,0,0,0,1.71,4.75c1.45,1.55,2.94,3.07,4.49,4.52q3.57,3.32,7.28,6.52a44.73,44.73,0,0,0,3.61,2.67l-.08.49c-3.57.39-7-.65-10.4-1.51a26,26,0,0,1-9.58-4.32,4.29,4.29,0,0,0-2,4c.18,5.26,4.6,8.3,8.58,9.84,7.3,2.86,11.73.78,13.93-.61-.88,1.53-8.55,8.69-21.07,7.52.07,1.59.11,3.09.26,4.59.1,1.33,2.37,4.13,9.94,4.42,2.56.11,7.75-2.1,9.62-3.89,5.53-5.33,7.57-11.09,7.41-14.49,1.45,2.48.53,7.77-2.41,14.09,3.57-1.23,5.7-6.31,6.86-9.92a37.85,37.85,0,0,0,1.15-13.73c2.67,5.22,2.16,10.78,2.57,16.44a15,15,0,0,1,9.63-1.56,15.92,15.92,0,0,1,5.89-14.79c.1-2.09,0-4.07.28-6a7.68,7.68,0,0,1,3.15-5C314.89,403.35,307.33,395.6,301.19,396.48Zm-10,15.22c-2.77,3.78-7.22,3.81-10,.06a12.21,12.21,0,0,1-2.36-7.06,13.32,13.32,0,0,1,2-8.19c2.88-4.44,7.83-4.45,10.74-.07a14.27,14.27,0,0,1-.34,15.2Z" transform="translate(-203.4 -360.52)"/><path id="Pfad_31" data-name="Pfad 31" class="cls-2" d="M321.23,426.91l4.78,3c.79-1.87.92-7.22.92-7.22s-2.38-1.2-3.89-1.77C322.41,423,321.85,424.86,321.23,426.91Z" transform="translate(-203.4 -360.52)"/><path id="Pfad_32" data-name="Pfad 32" class="cls-2" d="M331.35,424.48c-1.59-.78-3.42-1.52-3.42-1.52-.29,2.54-.57,4.94-.88,7.6l5.34,2.34C332.89,430.68,334,425.71,331.35,424.48Z" transform="translate(-203.4 -360.52)"/><path id="Pfad_33" data-name="Pfad 33" class="cls-2" d="M323.15,412.38c3.33,1.44,6,1.05,9.08.68a29.71,29.71,0,0,0-5.07-3.78c-3.27-1.8-4.93-1.41-5.53-.29C320.79,410.55,322.59,412.12,323.15,412.38Z" transform="translate(-203.4 -360.52)"/><path id="Pfad_34" data-name="Pfad 34" class="cls-2" d="M284.81,385.94l2.38.52c1.33.3,5.92-3.67,2.42-16.22C286,374.22,280.91,385.08,284.81,385.94Z" transform="translate(-203.4 -360.52)"/><path id="Pfad_35" data-name="Pfad 35" class="cls-2" d="M290.13,404.6A3.75,3.75,0,0,1,289,406l1.43,2.6a8.07,8.07,0,0,0-.19-5.9A2.6,2.6,0,0,1,290.13,404.6Z" transform="translate(-203.4 -360.52)"/><path id="Pfad_36" data-name="Pfad 36" class="cls-2" d="M285.47,399.15c-1.78.08-3.11,2.29-3.91,4.33h3.77c.15-.82.24-2.33,1.83-2.74a2.85,2.85,0,0,1,2.31.52A3.78,3.78,0,0,0,285.47,399.15Z" transform="translate(-203.4 -360.52)"/><path id="Pfad_37" data-name="Pfad 37" class="cls-2" d="M239.77,390.14a12.63,12.63,0,0,0,4,12.82c6.32,5.74,12.5,4.2,12.5,4.2C251.61,396.72,239.77,390.14,239.77,390.14Z" transform="translate(-203.4 -360.52)"/><path id="Pfad_38" data-name="Pfad 38" class="cls-2" d="M332.55,433.82c.14,3.24,1.13,4.5-.43,10.08,4.93-.72,7.32-4.84,5.55-9.34Z" transform="translate(-203.4 -360.52)"/><path id="Pfad_39" data-name="Pfad 39" class="cls-2" d="M333.93,425.6c-.16,2.43-.3,4.79-.46,7.3a7.66,7.66,0,0,0,4.46.45c1.71-.27,1.34-2.6,1.34-2.6A6.47,6.47,0,0,0,333.93,425.6Z" transform="translate(-203.4 -360.52)"/><path id="Pfad_40" data-name="Pfad 40" class="cls-2" d="M326.19,432.48a2.15,2.15,0,0,0-1.15-2.26c-2.75-1.68-5.13-3.75-7.07-4.46.38,5.52,1.34,10.67,4.83,15.2a7.35,7.35,0,0,0,.93-1,16,16,0,0,0,2.46-7.48Z" transform="translate(-203.4 -360.52)"/><path id="Pfad_41" data-name="Pfad 41" class="cls-2" d="M320.57,426.47c.63-2.24,1.68-5.89,1.68-5.89-1.48-.75-2.84-1.24-4.2-1.92a9,9,0,0,0,0,5.33C318.21,424.8,318.68,425.32,320.57,426.47Z" transform="translate(-203.4 -360.52)"/><path id="Pfad_42" data-name="Pfad 42" class="cls-2" d="M331.65,434a1.31,1.31,0,0,0-.68-.88c-1.22-.6-2.5-1.09-4-1.7a17.49,17.49,0,0,1-3.5,10.25A7.46,7.46,0,0,0,331,444C332.75,439.36,332.15,437.39,331.65,434Z" transform="translate(-203.4 -360.52)"/><path id="Pfad_43-2" data-name="Pfad 43-2" d="M327.93,404.19a7.65,7.65,0,0,0,5.6-.45c5.59-2.54,8.24-1.34,11.42,3.14.11.17.22.34.32.51a31.65,31.65,0,0,1,4,18,13.65,13.65,0,0,1-3.32,7.76c-1.34,1.5-3,2.44-4.88.33a5,5,0,0,0-.68-.53l-1.72,1.14a39.16,39.16,0,0,1,.18,4.84,16.75,16.75,0,0,1-5.14,10.32,12.81,12.81,0,0,1-13.82,3.67c-4.13-1.24-6.66-4.16-8.48-7.89a53.15,53.15,0,0,1-3.72-11.42c-1.86-1.12-7.54.88-16.41,7.78-13.56,10.53-28.35,3.2-29.33,2.76-3.66,13.8-13.82,9-19,5.42,1.93-.46,11.67-3.76,10.09-19.54,1.59,1.09,2.56,1.73,4.3.68a25.92,25.92,0,0,1-5.06-18.06,19.78,19.78,0,0,1-9.44-2.24c-10.32-5.25-10.88-27.76-10.66-28.13a50.26,50.26,0,0,1,24.94,15.89c6.56-9.78,5.76-19.52,1.11-29.69a20.43,20.43,0,0,1,11.51,9.13c3.73-8.73-5-15.78-5.26-16.17a40.23,40.23,0,0,1,11.26,8.23c-.72-6.31-1.23-5.94-2.36-9.14a27.11,27.11,0,0,1,7,11.92c.45-.54,6-6.66,8.84-9.24,2.24-2.05,3.62-1.6,4.68,1.26a31.45,31.45,0,0,1,1.52,16.25c-.46,2.73-1.34,5.33-2,8.23l.33.22c3.86,2.22,7.59,4.68,11.59,6.67,3.25,1.6,6.36,3.15,12.17,9.33C320.31,401.82,326.92,403.88,327.93,404.19Zm-55.38,15.15A26.26,26.26,0,0,1,263,415a4.28,4.28,0,0,0-2,4c.17,5.25,4.6,8.29,8.57,9.84,7.31,2.85,11.74.77,13.92-.62-.86,1.54-8.53,8.7-21.05,7.52,0,1.59.11,3.1.24,4.59.12,1.33,2.39,4.13,9.95,4.43,2.57.1,7.76-2.11,9.61-3.9,5.55-5.33,7.59-11.09,7.43-14.49,1.45,2.48.53,7.77-2.43,14.09,3.59-1.22,5.72-6.3,6.88-9.92a38.52,38.52,0,0,0,1.15-13.73c2.66,5.23,2.16,10.79,2.56,16.44a15.26,15.26,0,0,1,9.64-1.56,15.91,15.91,0,0,1,5.92-14.83,57.37,57.37,0,0,1,.28-6,7.63,7.63,0,0,1,3.14-5c-1.94-2.52-9.5-10.27-15.65-9.44a12.35,12.35,0,0,1-6.55-1.45c-2.49-1.12-4.38-6.82-11.4-6.15-2.58.25-14.22-3.79-16.84,9.45a30.28,30.28,0,0,0-.36,3.55,6.16,6.16,0,0,0,1.71,4.75c1.45,1.54,2.95,3.06,4.49,4.52q3.58,3.31,7.28,6.52a42.59,42.59,0,0,0,3.62,2.66l-.08.5C279.39,421.23,276,420.19,272.55,419.34Zm-32.87-29.2a12.61,12.61,0,0,0,4,12.82c6.31,5.74,12.49,4.2,12.49,4.2C251.52,396.72,239.68,390.14,239.68,390.14Zm47.4-3.68c1.33.3,5.93-3.67,2.43-16.22-3.6,4-8.7,14.84-4.8,15.7Zm36.33,55.25a7.5,7.5,0,0,0,7.5,2.27c1.74-4.62,1.14-6.59.65-9.94a1.34,1.34,0,0,0-.68-.88c-1.23-.6-2.51-1.1-4-1.7a17.57,17.57,0,0,1-3.47,10.25Zm-.72-.79a6.36,6.36,0,0,0,.94-1,16,16,0,0,0,2.46-7.48,2.15,2.15,0,0,0-1.14-2.26c-2.75-1.68-5.14-3.75-7.07-4.46.37,5.52,1.28,10.68,4.8,15.2Zm14.88-6.45-5.12-.71c.15,3.24,1.14,4.51-.42,10.08C337,443.15,339.35,439,337.57,434.47Zm-5.33-1.63c.52-2.16,1.57-7.13-1-8.41-1.58-.79-3.41-1.52-3.41-1.52l-.88,7.6Zm1.09,0a7.61,7.61,0,0,0,4.47.46c1.71-.27,1.33-2.6,1.33-2.6a6.43,6.43,0,0,0-5.33-5.15ZM327,409.23c-3.27-1.8-4.94-1.41-5.54-.29-.84,1.56.95,3.13,1.51,3.38,3.35,1.44,6,1.06,9.09.68a30.49,30.49,0,0,0-5-3.72Zm-5.94,17.63,4.79,3c.79-1.86.92-7.21.92-7.21s-2.39-1.2-3.89-1.77Zm1-6.34c-1.48-.74-2.84-1.24-4.2-1.92a9,9,0,0,0,0,5.34c.2.85.71,1.33,2.56,2.52.63-2.23,1.68-5.88,1.68-5.88Z" transform="translate(-203.4 -360.52)"/><path id="Pfad_44" data-name="Pfad 44" d="M280.68,396.48c2.87-4.44,7.83-4.45,10.73-.06a14.29,14.29,0,0,1-.33,15.25c-2.77,3.79-7.23,3.81-10,.07a12.4,12.4,0,0,1-2.35-7.07A13.36,13.36,0,0,1,280.68,396.48Zm4.69,2.67c-1.77.08-3.1,2.29-3.9,4.33h3.76c.16-.82.25-2.33,1.84-2.74a2.83,2.83,0,0,1,2.3.52,3.78,3.78,0,0,0-4-2.11Zm4.8,3.56a2.63,2.63,0,0,1-.13,1.91A3.91,3.91,0,0,1,289,406l1.42,2.6a8,8,0,0,0-.2-5.92Z" transform="translate(-203.4 -360.52)"/><path id="Pfad_45-2" data-name="Pfad 45-2" class="cls-3" d="M216.75,437.38s47.21,33.33,85.89,2.13c0,0-14.67,27.21-29.77,36.33,0,0,35.76-5.42,60.5,6a280.13,280.13,0,0,0-66.69,5.56c-39.07,8-63.28-7.73-63.28-7.73S252.93,487.06,271,461C270.92,461.1,234,462.16,216.75,437.38Z" transform="translate(-203.4 -360.52)"/></g></svg>