<svg id="Ebene_1" data-name="Ebene 1" xmlns="http://www.w3.org/2000/svg" viewBox="0 0 423.9 375"><defs><style>.cls-1{fill:#fdfdfc;}.cls-2{fill:#f60;}</style></defs><path class="cls-1" d="M434.74,193.94c-6.5.88-13-1.54-19-4.23-7.23-3.25-12.76-19.8-33.11-17.85-7.51.72-41.28-11-48.86,27.43a82.56,82.56,0,0,0-1.05,10.32,17.78,17.78,0,0,0,4.94,13.76c4.22,4.5,8.55,8.91,13.06,13.11q10.38,9.66,21.12,18.94c3.31,2.86,7,5.31,10.49,8l-.24,1.41c-10.38,1.14-20.27-1.9-30.2-4.38s-19.42-6.23-27.82-12.52c-4.29,3-6,6.6-5.82,11.48.5,15.25,13.34,24.06,24.87,28.56,21.21,8.27,34.07,2.26,40.43-1.77-2.54,4.44-24.78,25.23-61.14,21.83.22,4.6.33,9,.73,13.32.33,3.71,6.92,12,28.86,12.83,7.45.3,22.5-6.12,27.91-11.31,16.08-15.45,22-32.18,21.52-42.05,4.24,7.2,1.56,22.54-7,40.89,10.4-3.54,16.58-18.28,19.94-28.77,3.24-10.11,4.48-24.36,3.35-39.88,7.89,15.19,6.25,31.32,7.44,47.73,8.83-4.59,16.74-5.89,28-4.52-1.88-17.47,3.79-32,17.1-42.92.25-6.08.09-11.82.82-17.44.77-5.93,4.23-10.66,9.13-14.55C474.55,214,452.58,191.51,434.74,193.94Zm-29.05,44.14c-8.06,11-21,11.08-29.13.19-4.55-6.08-6.51-13-6.82-20.52-.51-8.5,1.12-16.53,5.77-23.73,8.33-12.91,22.7-13,31.14-.21C414.92,206.29,414.49,226.08,405.69,238.08Z" transform="translate(-150.72 -89.72)"/><path class="cls-1" d="M492.92,282.39l13.88,8.66c2.29-5.4,2.69-20.93,2.69-20.93s-6.94-3.47-11.31-5.16Z" transform="translate(-150.72 -89.72)"/><path class="cls-1" d="M522.29,275.19c-4.62-2.29-9.91-4.39-9.91-4.39-.85,7.34-1.65,14.28-2.55,22.05l15.45,6.75C526.78,293.35,529.83,278.93,522.29,275.19Z" transform="translate(-150.72 -89.72)"/><path class="cls-1" d="M498.47,240.19c9.71,4.18,17.49,3.07,26.37,2,.09-.44-9.52-8.08-14.69-10.93-9.5-5.23-14.32-4.1-16.07-.86C491.62,234.92,496.84,239.49,498.47,240.19Z" transform="translate(-150.72 -89.72)"/><path class="cls-1" d="M387.21,163.46l6.88,1.51c4,.88,17.22-10.63,7.05-47C390.68,129.43,375.89,161,387.21,163.46Z" transform="translate(-150.72 -89.72)"/><path class="cls-1" d="M402.67,217.63a10.93,10.93,0,0,1-3.19,4.07l4.14,7.54c2-6.34,1.75-11.74-.54-17.13A7.67,7.67,0,0,1,402.67,217.63Z" transform="translate(-150.72 -89.72)"/><path class="cls-1" d="M389.13,201.77c-5.16.25-9,6.67-11.34,12.6l10.92.1c.45-2.39.71-6.79,5.32-8a8.4,8.4,0,0,1,6.71,1.5C397.57,202.84,394.5,201.52,389.13,201.77Z" transform="translate(-150.72 -89.72)"/><path class="cls-1" d="M256.49,175.66s-6.78,20.36,11.74,37.21c18.32,16.66,36.26,12.2,36.26,12.2C290.86,194.78,256.49,175.66,256.49,175.66Z" transform="translate(-150.72 -89.72)"/><path class="cls-1" d="M525.76,302.3c.45,9.39,3.31,13.06-1.22,29.22,14.3-2.09,21.24-14,16.09-27.2Z" transform="translate(-150.72 -89.72)"/><path class="cls-1" d="M529.79,278.61c-.44,7.05-.88,13.89-1.34,21.16,3.86,1.86,8.43,2,13,1.3,4.93-.78,3.9-7.53,3.9-7.53A18.74,18.74,0,0,0,529.79,278.61Z" transform="translate(-150.72 -89.72)"/><path class="cls-1" d="M507.31,298.44c.18-3-.59-4.88-3.34-6.56C496,287,489.09,281,483.47,279c1.09,16,3.71,31,14,44.1a20.86,20.86,0,0,0,2.7-2.89A46.48,46.48,0,0,0,507.31,298.44Z" transform="translate(-150.72 -89.72)"/><path class="cls-1" d="M491,281.1c1.82-6.49,4.88-17.09,4.88-17.09-4.3-2.15-8.24-3.59-12.21-5.58-1.93,5.33-1.27,10.56-.12,15.37C484.17,276.28,485.63,277.79,491,281.1Z" transform="translate(-150.72 -89.72)"/><path class="cls-1" d="M523.19,303.08a4,4,0,0,0-2-2.56c-3.58-1.71-7.29-3.17-11.47-4.95-.17,11.33-3.81,20.87-10.19,29.78,6,6.34,13,8.34,21.72,6.59C526.35,318.53,524.61,312.82,523.19,303.08Z" transform="translate(-150.72 -89.72)"/><path d="M512.39,216.44a22.13,22.13,0,0,0,16.24-1.33c16.22-7.33,23.93-3.92,33.13,9.17a14,14,0,0,1,.94,1.46c8.74,16.32,13.23,33.62,11.58,52.21a39.24,39.24,0,0,1-9.63,22.51c-3.78,4.39-8.8,7.1-14.17,1a16.59,16.59,0,0,0-1.94-1.59l-5,3.36c.23,4.92.92,9.52.57,14-.92,11.92-7,21.59-15,30-11,11.61-24.53,15.28-40.1,10.64-12-3.58-19.41-12.07-24.62-22.9-5.12-10.63-8.29-21.91-10.8-33.14-5.4-3.23-21.89,2.57-47.64,22.57-39.35,30.57-82.28,9.29-85.08,8-10.63,40-40.12,26.22-55.25,15.72,5.63-1.33,33.89-10.89,29.3-56.72,4.6,3.16,7.42,5,12.48,2C295.87,277.5,291.12,260.3,292.75,241c-10.23.35-20-2.74-27.4-6.5-29.94-15.25-31.56-80.55-31.08-81.65,29,7.6,52.49,23.79,72.43,46.15,19-28.42,16.7-56.69,3.19-86.18a59.27,59.27,0,0,1,33.42,26.49c10.83-25.35-14.63-45.84-15.28-46.93a116.43,116.43,0,0,1,32.67,23.86c-2.08-18.32-3.55-17.21-6.84-26.49,10,9.43,16,21.13,20.33,34.59,1.31-1.61,17.43-19.27,25.64-26.82,6.49-6,10.53-4.63,13.6,3.61a91.17,91.17,0,0,1,4.4,47.2C416.52,156.22,414,164,412,172.18a7.89,7.89,0,0,0,1,.67c11.21,6.41,22,13.56,33.62,19.26,9.45,4.65,18.46,9.12,35.33,27.25C490.26,209.41,509.45,215.56,512.39,216.44Zm-160.76,44c-10-2.48-19.42-6.23-27.82-12.52-4.29,3-6,6.6-5.82,11.48.5,15.25,13.34,24.06,24.87,28.56,21.21,8.27,34.07,2.26,40.43-1.77-2.54,4.44-24.78,25.23-61.14,21.83.22,4.6.33,9,.73,13.32.34,3.71,6.92,12,28.86,12.83,7.45.3,22.5-6.12,27.91-11.31,16.08-15.45,22-32.18,21.53-42.05,4.23,7.2,1.55,22.54-7,40.89,10.4-3.54,16.58-18.28,19.94-28.77,3.24-10.11,4.48-24.36,3.35-39.88,7.9,15.19,6.25,31.32,7.44,47.73,8.83-4.59,16.74-5.89,28-4.52-1.88-17.47,3.79-32,17.1-42.92.25-6.08.09-11.82.82-17.44.77-5.93,4.23-10.66,9.13-14.55-5.64-7.32-27.61-29.8-45.45-27.37-6.49.88-13-1.54-19-4.23-7.23-3.25-12.76-19.8-33.11-17.85-7.51.72-41.28-11-48.86,27.43a82.56,82.56,0,0,0-1.05,10.32,17.78,17.78,0,0,0,4.94,13.76c4.22,4.5,8.55,8.91,13.06,13.11q10.4,9.66,21.12,18.94c3.31,2.86,7,5.31,10.49,8l-.23,1.41C371.45,265.92,361.56,262.88,351.63,260.4Zm-95.42-84.74S249.43,196,268,212.87c18.32,16.66,36.27,12.2,36.27,12.2C290.58,194.78,256.21,175.66,256.21,175.66ZM393.81,165c4,.88,17.22-10.63,7.05-47-10.46,11.49-25.25,43-13.93,45.52ZM499.27,325.35c6,6.34,13,8.34,21.72,6.59,5.09-13.41,3.35-19.12,1.92-28.86a4,4,0,0,0-2-2.56c-3.59-1.71-7.3-3.17-11.48-4.95C509.29,306.9,505.65,316.44,499.27,325.35Zm-2.08-2.29a20.86,20.86,0,0,0,2.7-2.89A46.48,46.48,0,0,0,507,298.44c.18-3-.59-4.88-3.34-6.56-8-4.88-14.88-10.88-20.5-12.92C484.28,295,486.91,310,497.19,323.06Zm43.16-18.74-14.86-2c.44,9.39,3.3,13.06-1.23,29.22C538.56,329.43,545.5,317.48,540.35,304.32ZM525,299.6c1.5-6.25,4.55-20.67-3-24.41-4.62-2.29-9.91-4.39-9.91-4.39-.85,7.34-1.65,14.28-2.55,22.05Zm3.17.17c3.86,1.86,8.43,2,13,1.3,4.93-.78,3.9-7.53,3.9-7.53a18.74,18.74,0,0,0-15.52-14.93C529.07,285.66,528.63,292.5,528.17,299.77Zm-18.3-68.53c-9.5-5.23-14.32-4.1-16.07-.86-2.46,4.54,2.76,9.11,4.39,9.81,9.71,4.18,17.49,3.07,26.38,2C524.65,241.73,515.05,234.09,509.87,231.24Zm-17.23,51.15,13.88,8.66c2.29-5.39,2.69-20.93,2.69-20.93s-6.94-3.47-11.31-5.16Zm3-18.38c-4.3-2.15-8.24-3.59-12.21-5.58-1.93,5.33-1.27,10.56-.11,15.37.59,2.48,2.05,4,7.44,7.3C492.56,274.61,495.62,264,495.62,264Z" transform="translate(-150.72 -89.72)"/><path d="M375.23,194c8.33-12.91,22.7-13,31.14-.21,8.27,12.48,7.84,32.27-1,44.27-8.06,11-21,11.08-29.13.19-4.54-6.08-6.51-13-6.81-20.52C369,209.25,370.58,201.22,375.23,194Zm13.62,7.75c-5.16.25-9,6.67-11.34,12.6l10.92.1c.45-2.39.71-6.79,5.32-8a8.43,8.43,0,0,1,6.72,1.5C397.29,202.84,394.22,201.52,388.85,201.77Zm13.95,10.34a7.67,7.67,0,0,1-.41,5.52,10.93,10.93,0,0,1-3.19,4.07l4.14,7.54C405.35,222.9,405.09,217.5,402.8,212.11Z" transform="translate(-150.72 -89.72)"/><path class="cls-2" d="M189.67,312.76s137,96.72,249.29,6.2c0,0-42.5,79-86.41,105.48,0,0,103.79-15.77,175.62,17.52,0,0-88.3-5.61-193.77,16.12C221,481.44,150.72,435.64,150.72,435.64s143.77,21.34,196.17-54C346.89,381.6,239.6,384.7,189.67,312.76Z" transform="translate(-150.72 -89.72)"/></svg>