<svg id="Ebene_1" data-name="Ebene 1" xmlns="http://www.w3.org/2000/svg" viewBox="0 0 454.78 525"><defs><style>.cls-1{fill:#f60;}</style></defs><path class="cls-1" d="M315.19,411.85s96.23,67.92,175.05,4.36c0,0-29.84,55.45-60.68,74.07,0,0,72.89-11.07,123.33,12.3,0,0-62-3.93-136.07,11.32-79.63,16.41-129-15.76-129-15.76s101,15,137.75-37.94C425.59,460.2,350.25,462.37,315.19,411.85Z" transform="translate(-287.84 -170.63)"/><path d="M634.52,671.87c-4.76,6.22-1.28,14.62,4,23.76-12.56-4.68-22-18.29-25.47-29.12-5.13,2-2.6,14.21-.65,18.48-3.66,1.45-15.36-7.53-18.87-23.74-5-23.34,10.65-31.33,9.75-33.43-4.19-9.66-10.13-18.19-21.59-23.24-7.23-3.2-42.15-11.87-71.46-2.62-48.23,15.23-90,14.21-115.78,9.12-26.77-5.28-36.17.4-43.92,5.13,1.68-10.36,22.95-22.46,51.4-21,20.28,1,43.07,9.45,89.95-8.81,27.22-10.6,64.09-15.31,93.66-2.77,12.89,5.46,24.3,16.26,35.39,42.5,21,2.52,38.6,11.62,43.86,33.57-9.36-7.9-16-8.75-22.11-8,.82,16.89,26.28,29.8,25.32,29.73C646.23,679.94,637.2,673.46,634.52,671.87Z" transform="translate(-287.84 -170.63)"/><path d="M289.93,510.08c4.25,9.53,87.61,62.53,206.32,27.24,34.33-10.21,54.07-28.9,56-30.56,0,2.42-18.07,38.83-61.25,55.36-56.54,21.65-113,14-149.82,7.13-39.51-6.25-13.92,28.81-8.5,36C329.72,605.14,288.39,549.4,289.93,510.08Z" transform="translate(-287.84 -170.63)"/><path d="M486.53,465.44a11.7,11.7,0,0,0,2.28,7.42,7.54,7.54,0,0,0,6.3,2.92q6.28,0,8-5.37l8.39,1.19q-4.09,9.7-16.41,9.71-8.22,0-13.09-4.54A15.4,15.4,0,0,1,477.14,465q0-7.65,4.7-12.28t12.77-4.62q8.07,0,12.58,4.39t4.52,12v1Zm17-4.27a8,8,0,0,0-2.33-5.68,7.89,7.89,0,0,0-6-2.45,7.75,7.75,0,0,0-6,2.56,8.16,8.16,0,0,0-2.32,5.57Z" transform="translate(-287.84 -170.63)"/><path d="M516.45,426.34h8.84v25.59q3.84-3.87,11.4-3.87A15.7,15.7,0,0,1,548.5,453a16.11,16.11,0,0,1,4.7,11.53,16.59,16.59,0,0,1-4.65,12,16,16,0,0,1-12,4.82q-7.93,0-11-3.95l-.19,2.92h-8.84Zm27.72,38.31a9.81,9.81,0,0,0-2.83-6.95,9.45,9.45,0,0,0-7.2-3,9.2,9.2,0,0,0-7.11,3,10,10,0,0,0-2.74,7,9.75,9.75,0,0,0,2.87,7,10.21,10.21,0,0,0,14.32.08A10.08,10.08,0,0,0,544.17,464.65Z" transform="translate(-287.84 -170.63)"/><path d="M566.79,452.33q3.38-4.27,10.58-4.27a11,11,0,0,1,4.19.79l-1.09,6.95a9,9,0,0,0-4.38-1.1q-9.3,0-9.3,11.53v14h-8.85V449.09h8.85Z" transform="translate(-287.84 -170.63)"/><path d="M619,480.28h-8.66v-2.84q-3.84,3.87-11.4,3.87t-12.09-5.05a17.26,17.26,0,0,1-4.51-11.85,16.07,16.07,0,0,1,4.61-11.57,15.69,15.69,0,0,1,11.81-4.78q7.65,0,11.58,3.95v-2.92H619Zm-7.66-15.63a9.62,9.62,0,0,0-2.83-7.15,10.84,10.84,0,0,0-14.45-.08,10.76,10.76,0,0,0,0,14.49,11,11,0,0,0,14.5.08A9.83,9.83,0,0,0,611.29,464.65Z" transform="translate(-287.84 -170.63)"/><path d="M635.18,451.93c2.5-2.58,6.17-3.87,11-3.87q12.4,0,12.4,13.19v19h-8.75v-16.5q0-9.87-7-9.87-7.65,0-7.66,10.58v15.79h-8.84V449.09h8.84Z" transform="translate(-287.84 -170.63)"/><path d="M700.3,477.6q0,16-17.24,16A22.57,22.57,0,0,1,670.11,490q-5.28-3.6-5.29-9.36h9.4c0,1.53.88,3,2.64,4.5a9,9,0,0,0,5.93,2.21q8.67,0,8.66-9v-2q-3.74,4.11-11.35,4.11t-12-4.58a15.69,15.69,0,0,1-4.33-11.21,16.62,16.62,0,0,1,4.65-12,16.06,16.06,0,0,1,12.09-4.82q7.43,0,10.89,4v-3h8.85ZM692.73,464a9,9,0,0,0-2.74-6.87,10,10,0,0,0-7.2-2.6,9.7,9.7,0,0,0-7.25,2.84,9.84,9.84,0,0,0-2.78,7.19q0,9.31,10,9.32a9.57,9.57,0,0,0,7.25-2.81A9.81,9.81,0,0,0,692.73,464Z" transform="translate(-287.84 -170.63)"/><path d="M742.62,464.65a15.41,15.41,0,0,1-5.2,12q-5.2,4.67-13.64,4.66t-13.72-4.66a16.27,16.27,0,0,1-.09-23.93q5.19-4.65,13.68-4.66t13.72,4.62A15.2,15.2,0,0,1,742.62,464.65Zm-28.91.12a9.55,9.55,0,0,0,2.82,7.14,10,10,0,0,0,7.3,2.77,9.2,9.2,0,0,0,7.16-3,10.09,10.09,0,0,0,2.69-7,10,10,0,0,0-2.74-7,9.27,9.27,0,0,0-7.16-3,9.69,9.69,0,0,0-10.07,10.07Z" transform="translate(-287.84 -170.63)"/><path d="M548.7,285.28a20,20,0,0,0,14.69-1.2c14.67-6.64,21.64-3.55,30,8.29a12.33,12.33,0,0,1,.85,1.32c7.91,14.77,12,30.42,10.48,47.23A35.55,35.55,0,0,1,596,361.29c-3.43,4-8,6.43-12.82.9a14.84,14.84,0,0,0-1.76-1.44l-4.55,3c.22,4.45.84,8.61.52,12.7-.83,10.78-6.33,19.53-13.52,27.09-10,10.51-22.2,13.83-36.28,9.63C516.7,410,510,402.3,505.29,392.5c-4.63-9.62-7.49-19.83-9.76-30-4.9-2.93-19.81,2.31-43.11,20.41-35.6,27.66-74.44,8.41-77,7.26-9.6,36.22-36.28,23.73-50,14.23,5.1-1.2,30.66-9.86,26.51-51.31,4.16,2.86,6.72,4.55,11.29,1.78A67.87,67.87,0,0,1,350,307.47a52,52,0,0,1-24.8-5.88c-27.09-13.8-28.55-72.88-28.11-73.87,26.28,6.88,47.48,21.52,65.52,41.75,17.22-25.71,15.12-51.29,2.88-78a53.63,53.63,0,0,1,30.25,24C405.52,192.53,382.49,174,381.9,173a105.28,105.28,0,0,1,29.56,21.58c-1.89-16.56-3.21-15.56-6.19-24,9,8.53,14.51,19.12,18.39,31.3,1.19-1.46,15.77-17.44,23.2-24.27,5.87-5.41,9.53-4.19,12.3,3.27a82.43,82.43,0,0,1,4,42.7c-1.18,7.17-3.44,14.16-5.31,21.6a5.94,5.94,0,0,0,.86.61c10.14,5.8,19.94,12.27,30.42,17.43,8.55,4.21,16.7,8.25,32,24.65C528.67,278.92,546,284.48,548.7,285.28ZM403.25,325.05c-9-2.25-17.57-5.64-25.17-11.33a11.17,11.17,0,0,0-5.26,10.39c.45,13.8,12.07,21.77,22.5,25.84,19.18,7.48,30.82,2,36.57-1.61-2.29,4-22.42,22.83-55.31,19.75.2,4.17.3,8.13.66,12.06.3,3.35,6.26,10.83,26.12,11.61,6.73.26,20.35-5.54,25.24-10.24,14.55-14,19.9-29.11,19.48-38,3.83,6.52,1.4,20.4-6.35,37,9.41-3.2,15-16.54,18-26,2.93-9.15,4.05-22,3-36.08,7.14,13.75,5.65,28.34,6.73,43.19,8-4.16,15.15-5.33,25.3-4.09-1.69-15.81,3.44-29,15.47-38.83.23-5.51.09-10.7.75-15.78.7-5.37,3.83-9.65,8.26-13.16-5.11-6.63-25-27-41.12-24.77-5.88.8-11.75-1.39-17.17-3.83-6.54-2.93-11.55-17.91-30-16.14-6.79.65-37.34-9.95-44.2,24.81a72.79,72.79,0,0,0-.95,9.34,16.11,16.11,0,0,0,4.47,12.45c3.81,4.07,7.73,8.06,11.81,11.86q9.4,8.73,19.11,17.13c3,2.59,6.32,4.81,9.49,7.19l-.21,1.29C421.19,330,412.23,327.29,403.25,325.05Zm-86.33-76.67s-6.13,18.43,10.63,33.67c16.57,15.07,32.8,11,32.8,11C348,265.68,316.92,248.38,316.92,248.38Zm124.5-9.67c3.62.8,15.57-9.62,6.37-42.55-9.46,10.4-22.84,38.94-12.6,41.18Zm95.4,145.1c5.41,5.73,11.8,7.55,19.66,6,4.6-12.13,3-17.29,1.73-26.11a3.56,3.56,0,0,0-1.78-2.31c-3.25-1.55-6.6-2.87-10.39-4.48C545.89,367.12,542.59,375.75,536.82,383.81Zm-1.88-2.08a17.58,17.58,0,0,0,2.44-2.61,41.87,41.87,0,0,0,6.46-19.65c.17-2.69-.52-4.42-3-5.94-7.21-4.42-13.47-9.84-18.55-11.69C523.27,356.31,525.64,369.87,534.94,381.73Zm39-16.94L560.54,363c.4,8.49,3,11.81-1.11,26.43C572.37,387.5,578.65,376.69,574,364.79Zm-13.89-4.28c1.36-5.65,4.12-18.7-2.7-22.08-4.18-2.07-9-4-9-4-.76,6.65-1.49,12.93-2.3,20Zm2.87.16c3.49,1.68,7.63,1.82,11.73,1.18,4.46-.71,3.53-6.82,3.53-6.82a17,17,0,0,0-14-13.51C563.78,347.9,563.39,354.09,563,360.67Zm-16.55-62c-8.6-4.73-13-3.71-14.54-.78-2.23,4.11,2.49,8.24,4,8.87,8.78,3.79,15.82,2.78,23.86,1.79C559.78,308.16,551.1,301.25,546.42,298.67ZM530.83,345l12.55,7.83c2.08-4.88,2.44-18.94,2.44-18.94s-6.28-3.14-10.24-4.67C533.94,334.61,532.45,339.55,530.83,345Zm2.69-16.63c-3.88-1.95-7.45-3.25-11-5.05-1.75,4.82-1.15,9.55-.11,13.9.54,2.25,1.86,3.62,6.74,6.6C530.75,337.91,533.52,328.32,533.52,328.32Z" transform="translate(-287.84 -170.63)"/><path d="M424.6,265c7.54-11.67,20.54-11.72,28.17-.19,7.49,11.3,7.1,29.2-.86,40.05-7.29,9.94-19,10-26.35.17a32.16,32.16,0,0,1-6.17-18.55C418.92,278.77,420.4,271.51,424.6,265Zm12.32,7c-4.66.22-8.17,6-10.25,11.39l9.88.1c.4-2.16.64-6.15,4.81-7.21a7.61,7.61,0,0,1,6.07,1.36C444.56,273,441.78,271.78,436.92,272Zm12.62,9.35a7,7,0,0,1-.36,5,9.79,9.79,0,0,1-2.89,3.67l3.74,6.83A21.13,21.13,0,0,0,449.54,281.36Z" transform="translate(-287.84 -170.63)"/></svg>