<svg id="Ebene_1" data-name="Ebene 1" xmlns="http://www.w3.org/2000/svg" viewBox="0 0 560.07 575.23"><defs><style>.cls-1{fill:#3c0;}.cls-2{fill:#fdfdfc;}.cls-3{fill:#f60;}</style></defs><path class="cls-1" d="M314.94,111.29c-141,0-255.31,114.31-255.31,255.31S173.94,621.91,314.94,621.91,570.25,507.6,570.25,366.6,456,111.29,314.94,111.29Zm0,400.68A145.37,145.37,0,1,1,460.31,366.6,145.37,145.37,0,0,1,314.94,512Z" transform="translate(-15.3 -46.68)"/><path class="cls-2" d="M390.55,184.38c-8.58,1.17-17.15-2-25.08-5.59-9.55-4.28-16.85-26.15-43.75-23.57-9.91.95-54.53-14.53-64.54,36.24a108.52,108.52,0,0,0-1.4,13.63,23.51,23.51,0,0,0,6.54,18.18c5.57,5.95,11.29,11.78,17.25,17.32q13.73,12.76,27.9,25c4.38,3.79,9.23,7,13.87,10.51-.11.62-.21,1.24-.32,1.87-13.71,1.49-26.79-2.52-39.91-5.79s-25.65-8.24-36.75-16.55c-5.67,4-7.9,8.73-7.69,15.17.67,20.15,17.62,31.79,32.86,37.73,28,10.93,45,3,53.41-2.33-3.35,5.87-32.74,33.33-80.78,28.84.29,6.08.45,11.86,1,17.6.44,4.9,9.14,15.82,38.14,17,9.84.38,29.72-8.1,36.86-15,21.25-20.41,29.06-42.51,28.45-55.56,5.59,9.52,2.05,29.79-9.27,54,13.73-4.67,21.9-24.15,26.34-38,4.29-13.36,5.92-32.18,4.43-52.69,10.43,20.08,8.25,41.39,9.83,63.07,11.67-6.07,22.12-7.79,36.95-6-2.48-23.1,5-42.34,22.59-56.71.33-8,.12-15.62,1.09-23,1-7.83,5.59-14.08,12.07-19.22C443.15,210.88,414.12,181.17,390.55,184.38ZM352.17,242.7c-10.65,14.52-27.71,14.64-38.48.25-6-8-8.61-17.2-9-27.1-.68-11.24,1.47-21.84,7.62-31.36,11-17.05,30-17.12,41.14-.28C364.36,200.71,363.8,226.86,352.17,242.7Z" transform="translate(-15.3 -46.68)"/><path class="cls-2" d="M467.42,301.25l18.34,11.44c3-7.13,3.55-27.65,3.55-27.65s-9.16-4.59-14.94-6.82C472,286.15,469.8,293.37,467.42,301.25Z" transform="translate(-15.3 -46.68)"/><path class="cls-2" d="M506.22,291.73c-6.09-3-13.09-5.8-13.09-5.8-1.12,9.7-2.18,18.88-3.36,29.14L510.18,324C512.16,315.73,516.19,296.67,506.22,291.73Z" transform="translate(-15.3 -46.68)"/><path class="cls-2" d="M474.75,245.49c12.83,5.52,23.11,4.06,34.85,2.62.11-.58-12.58-10.67-19.41-14.44-12.55-6.91-18.92-5.42-21.24-1.14C465.71,238.53,472.6,244.57,474.75,245.49Z" transform="translate(-15.3 -46.68)"/><path class="cls-2" d="M327.75,144.11l9.1,2c5.29,1.16,22.74-14.05,9.31-62.14C332.34,99.16,312.8,140.83,327.75,144.11Z" transform="translate(-15.3 -46.68)"/><path class="cls-2" d="M348.18,215.69a14.35,14.35,0,0,1-4.21,5.37l5.47,10c2.65-8.37,2.31-15.51-.72-22.62A10.11,10.11,0,0,1,348.18,215.69Z" transform="translate(-15.3 -46.68)"/><path class="cls-2" d="M330.29,194.73c-6.82.33-11.94,8.81-15,16.65l14.43.14c.59-3.16.93-9,7-10.53,4.83-1.23,8.87,2,8.87,2C341.44,196.15,337.38,194.4,330.29,194.73Z" transform="translate(-15.3 -46.68)"/><path class="cls-2" d="M155,160.23s-8.95,26.91,15.52,49.17c24.2,22,47.91,16.11,47.91,16.11C200.46,185.49,155,160.23,155,160.23Z" transform="translate(-15.3 -46.68)"/><path class="cls-2" d="M510.82,327.55c.58,12.41,4.36,17.26-1.62,38.61,18.89-2.76,28.06-18.55,21.25-35.93Z" transform="translate(-15.3 -46.68)"/><path class="cls-2" d="M516.14,296.25c-.59,9.32-1.16,18.35-1.77,28,5.1,2.45,11.14,2.66,17.12,1.71,6.52-1,5.16-9.95,5.16-9.95S534.15,299.38,516.14,296.25Z" transform="translate(-15.3 -46.68)"/><path class="cls-2" d="M486.43,322.46c.25-3.92-.77-6.45-4.4-8.68-10.53-6.45-19.67-14.36-27.09-17.06,1.44,21.12,4.9,40.94,18.49,58.26,1.33-1.41,2.72-2.44,3.57-3.82A61.26,61.26,0,0,0,486.43,322.46Z" transform="translate(-15.3 -46.68)"/><path class="cls-2" d="M464.91,299.54c2.4-8.57,6.45-22.57,6.45-22.57-5.68-2.85-10.88-4.74-16.13-7.38-2.55,7-1.68,14-.16,20.31C455.86,293.18,457.79,295.18,464.91,299.54Z" transform="translate(-15.3 -46.68)"/><path class="cls-2" d="M507.42,328.59a5.28,5.28,0,0,0-2.61-3.38c-4.74-2.27-9.64-4.2-15.17-6.54-.21,15-5,27.57-13.46,39.34,7.9,8.37,17.23,11,28.7,8.7C511.6,349,509.3,341.46,507.42,328.59Z" transform="translate(-15.3 -46.68)"/><path d="M493.15,214.12c7.45,2.23,14.29,1.48,21.46-1.76,21.43-9.68,31.61-5.18,43.77,12.11a17.61,17.61,0,0,1,1.24,1.93c11.54,21.56,17.48,44.42,15.3,69a51.94,51.94,0,0,1-12.72,29.75c-5,5.79-11.63,9.38-18.72,1.3a21,21,0,0,0-2.57-2.09l-6.64,4.43c.31,6.51,1.22,12.58.76,18.54-1.22,15.75-9.25,28.53-19.76,39.58-14.59,15.34-32.41,20.19-53,14.06-15.87-4.73-25.65-15.94-32.54-30.25-6.76-14.05-10.94-29-14.26-43.79-7.14-4.28-28.93,3.39-62.95,29.82-52,40.39-108.71,12.27-112.41,10.6-14,52.88-53,34.65-73,20.78,7.45-1.76,44.78-14.4,38.72-74.94,6.08,4.18,9.81,6.65,16.49,2.61-15.27-21-21.55-43.71-19.39-69.25-13.53.46-26.48-3.63-36.21-8.59-39.56-20.15-41.69-106.44-41.06-107.88,38.38,10,69.35,31.43,95.7,61,25.13-37.55,22.06-74.91,4.2-113.88,19.31,6.36,33.7,17.81,44.17,35,14.3-33.5-19.34-60.56-20.19-62a153.51,153.51,0,0,1,43.16,31.51c-2.75-24.19-4.69-22.73-9-35,13.19,12.47,21.2,27.93,26.86,45.71,1.73-2.12,23-25.46,33.87-35.44,8.59-7.89,13.92-6.12,18,4.78a120.49,120.49,0,0,1,5.82,62.36c-1.72,10.46-5,20.67-7.75,31.55a10,10,0,0,0,1.25.88c14.81,8.48,29.11,17.91,44.42,25.45,12.49,6.15,24.39,12.05,46.68,36C463.9,204.82,489.27,213,493.15,214.12ZM280.74,272.2c-13.15-3.28-25.65-8.24-36.75-16.55-5.67,4-7.9,8.73-7.69,15.17.67,20.15,17.63,31.79,32.86,37.74,28,10.92,45,3,53.41-2.34-3.35,5.87-32.74,33.33-80.77,28.84.28,6.08.44,11.86,1,17.6.44,4.9,9.14,15.82,38.14,17,9.84.38,29.72-8.1,36.86-15,21.25-20.41,29.06-42.51,28.45-55.56,5.6,9.52,2.05,29.79-9.27,54,13.73-4.67,21.9-24.15,26.34-38,4.29-13.36,5.92-32.18,4.44-52.69,10.42,20.08,8.24,41.39,9.82,63.07,11.67-6.07,22.12-7.79,36.95-6-2.48-23.1,5-42.34,22.59-56.71.33-8,.12-15.62,1.09-23,1-7.83,5.59-14.08,12.07-19.22-7.46-9.67-36.49-39.38-60.06-36.16-8.58,1.16-17.15-2-25.08-5.6-9.55-4.28-16.85-26.15-43.74-23.57-9.92.95-54.54-14.53-64.55,36.24a108.52,108.52,0,0,0-1.4,13.63A23.55,23.55,0,0,0,262,223.27c5.57,5.95,11.29,11.78,17.25,17.32q13.73,12.76,27.91,25c4.37,3.79,9.22,7,13.86,10.51l-.32,1.87C306.94,279.48,293.86,275.47,280.74,272.2Zm-126.07-112s-8.95,26.91,15.52,49.17c24.2,22,47.91,16.11,47.91,16.11C200.09,185.49,154.67,160.23,154.67,160.23Zm181.81-14.12c5.29,1.16,22.75-14.05,9.31-62.14-13.82,15.19-33.36,56.86-18.41,60.14ZM475.81,358c7.9,8.37,17.24,11,28.7,8.7,6.72-17.72,4.42-25.25,2.54-38.12a5.28,5.28,0,0,0-2.61-3.38c-4.74-2.27-9.64-4.2-15.17-6.54C489.06,333.64,484.24,346.24,475.81,358Zm-2.75-3a27,27,0,0,0,3.57-3.82,61.26,61.26,0,0,0,9.43-28.7c.25-3.92-.77-6.45-4.4-8.68-10.53-6.45-19.67-14.36-27.09-17.06C456,317.84,459.48,337.66,473.06,355Zm57-24.75-19.64-2.68c.59,12.41,4.36,17.26-1.62,38.61C527.72,363.4,536.89,347.61,530.09,330.23ZM509.81,324c2-8.26,6-27.32-4-32.26-6.09-3-13.08-5.8-13.08-5.8-1.13,9.7-2.19,18.88-3.37,29.14Zm4.19.23c5.1,2.45,11.14,2.66,17.12,1.71,6.52-1,5.16-9.95,5.16-9.95s-2.5-16.6-20.51-19.73C515.18,305.57,514.61,314.61,514,324.22Zm-24.18-90.55c-12.55-6.91-18.92-5.42-21.23-1.14-3.25,6,3.64,12,5.8,13,12.82,5.52,23.1,4.06,34.84,2.62C509.34,247.53,496.66,237.44,489.82,233.67Zm-22.77,67.58,18.34,11.44c3-7.13,3.56-27.65,3.56-27.65s-9.17-4.59-14.95-6.82C471.6,286.15,469.43,293.37,467.05,301.25ZM471,277c-5.68-2.85-10.88-4.74-16.13-7.38-2.55,7-1.68,14-.15,20.31.78,3.28,2.71,5.28,9.83,9.64C467,291,471,277,471,277Z" transform="translate(-15.3 -46.68)"/><path d="M311.93,184.49c11-17.05,30-17.12,41.14-.28,10.92,16.5,10.36,42.65-1.26,58.49-10.66,14.52-27.72,14.64-38.49.25-6-8-8.61-17.2-9-27.1C303.63,204.61,305.78,194,311.93,184.49Zm18,10.24c-6.81.33-11.93,8.81-15,16.65l14.43.14c.59-3.16.94-9,7-10.53,4.83-1.23,8.87,2,8.87,2C341.07,196.15,337,194.4,329.92,194.73Zm18.43,13.67a10.14,10.14,0,0,1-.53,7.29,14.42,14.42,0,0,1-4.22,5.37l5.47,10C351.72,222.65,351.38,215.51,348.35,208.4Z" transform="translate(-15.3 -46.68)"/><path class="cls-3" d="M66.76,341.38s181.06,127.79,329.36,8.18c0,0-56.15,104.35-114.16,139.36,0,0,137.13-20.82,232,23.16,0,0-116.67-7.41-256,21.29C108.15,564.24,15.3,503.73,15.3,503.73s190,28.19,259.19-71.4C274.49,432.33,132.73,436.42,66.76,341.38Z" transform="translate(-15.3 -46.68)"/></svg>