<svg id="Ebene_1" data-name="Ebene 1" xmlns="http://www.w3.org/2000/svg" viewBox="0 0 324.84 375"><defs><style>.cls-1{fill:#f60;}.cls-2{fill:#fff;}</style></defs><path class="cls-1" d="M94.35,327.76s68.74,48.51,125,3.1c0,0-21.32,39.62-43.34,52.91,0,0,52.06-7.9,88.09,8.79,0,0-44.29-2.81-97.19,8.09-56.89,11.71-92.14-11.26-92.14-11.26s72.11,10.71,98.4-27.1C173.21,362.29,119.39,363.84,94.35,327.76Z" transform="translate(-74.81 -155.45)"/><path d="M322.45,513.48c-3.41,4.44-.92,10.44,2.86,17-9-3.34-15.71-13.06-18.18-20.79-3.67,1.45-1.87,10.14-.47,13.19-2.62,1-11-5.37-13.48-17-3.61-16.67,7.61-22.38,7-23.88-3-6.9-7.23-13-15.41-16.6-5.17-2.29-30.11-8.48-51.05-1.87-34.45,10.88-64.31,10.15-82.7,6.51-19.12-3.77-25.83.29-31.37,3.67,1.2-7.4,16.39-16.05,36.72-15,14.48.75,30.76,6.75,64.24-6.29,19.45-7.58,45.79-10.94,66.9-2,9.21,3.9,17.36,11.62,25.28,30.35,15,1.81,27.57,8.31,31.33,24-6.69-5.64-11.45-6.24-15.79-5.73.58,12.06,18.77,21.28,18.09,21.23C330.81,519.25,324.36,514.62,322.45,513.48Z" transform="translate(-74.81 -155.45)"/><path d="M76.31,397.92c3,6.8,62.58,44.66,147.37,19.45,24.52-7.28,38.62-20.64,40-21.83,0,1.73-12.9,27.74-43.74,39.55-40.39,15.47-80.7,10-107,5.09-28.22-4.46-9.94,20.58-6.07,25.71C104.73,465.82,75.21,426,76.31,397.92Z" transform="translate(-74.81 -155.45)"/><path d="M216.74,366a8.33,8.33,0,0,0,1.63,5.3,5.38,5.38,0,0,0,4.49,2.09q4.5,0,5.74-3.84l6,.85q-2.93,6.94-11.73,6.94-5.85,0-9.34-3.25a11,11,0,0,1-3.49-8.43,11.73,11.73,0,0,1,3.36-8.77q3.35-3.3,9.12-3.3t9,3.13a11.37,11.37,0,0,1,3.22,8.55V366Zm12.12-3a5.75,5.75,0,0,0-1.66-4.06,5.69,5.69,0,0,0-4.3-1.75,5.54,5.54,0,0,0-4.3,1.84,5.8,5.8,0,0,0-1.66,4Z" transform="translate(-74.81 -155.45)"/><path d="M238.11,338.11h6.32v18.27q2.73-2.76,8.14-2.76a11.18,11.18,0,0,1,8.43,3.5,11.48,11.48,0,0,1,3.36,8.23,11.89,11.89,0,0,1-3.32,8.58,11.44,11.44,0,0,1-8.6,3.44q-5.67,0-7.88-2.82l-.13,2.08h-6.32Zm19.8,27.36a7,7,0,0,0-2-5,6.76,6.76,0,0,0-5.15-2.14,6.61,6.61,0,0,0-5.08,2.11,7.17,7.17,0,0,0-1.95,5,7,7,0,0,0,2,5,7.3,7.3,0,0,0,10.23.06A7.18,7.18,0,0,0,257.91,365.47Z" transform="translate(-74.81 -155.45)"/><path d="M274.06,356.67q2.42-3,7.56-3.05a7.89,7.89,0,0,1,3,.56l-.78,5a6.36,6.36,0,0,0-3.13-.79q-6.65,0-6.65,8.23v10h-6.31V354.35h6.31Z" transform="translate(-74.81 -155.45)"/><path d="M311.32,376.63h-6.18v-2c-1.83,1.85-4.54,2.77-8.15,2.77a11,11,0,0,1-8.63-3.61,12.3,12.3,0,0,1-3.22-8.46,11.46,11.46,0,0,1,3.29-8.27,11.2,11.2,0,0,1,8.43-3.41q5.47,0,8.28,2.82v-2.09h6.18Zm-5.47-11.16a6.89,6.89,0,0,0-2-5.11,7.74,7.74,0,0,0-10.32-.06,7.69,7.69,0,0,0,0,10.36,7.16,7.16,0,0,0,5.21,2,6.67,6.67,0,0,0,7.1-7.16Z" transform="translate(-74.81 -155.45)"/><path d="M322.92,356.38q2.67-2.76,7.88-2.76,8.86,0,8.86,9.42v13.59h-6.25V364.85q0-7.07-5-7.06-5.47,0-5.47,7.56v11.28H316.6V354.35h6.32Z" transform="translate(-74.81 -155.45)"/><path d="M369.43,374.72q0,11.44-12.31,11.45a16.08,16.08,0,0,1-9.25-2.57,7.77,7.77,0,0,1-3.78-6.68h6.71a4.33,4.33,0,0,0,1.89,3.21,6.45,6.45,0,0,0,4.23,1.58q6.19,0,6.19-6.43v-1.41c-1.78,2-4.48,2.93-8.11,2.93s-6.47-1.09-8.53-3.27a11.19,11.19,0,0,1-3.1-8A11.83,11.83,0,0,1,346.7,357a11.43,11.43,0,0,1,8.63-3.44q5.31,0,7.78,2.87v-2.14h6.32ZM364,365a6.45,6.45,0,0,0-1.95-4.9,7.16,7.16,0,0,0-5.15-1.86,6.91,6.91,0,0,0-5.18,2,7,7,0,0,0-2,5.13q0,6.66,7.16,6.66a6.83,6.83,0,0,0,5.18-2A7,7,0,0,0,364,365Z" transform="translate(-74.81 -155.45)"/><path d="M399.66,365.47a11,11,0,0,1-3.72,8.57,14,14,0,0,1-9.74,3.33,14.28,14.28,0,0,1-9.8-3.33,11.62,11.62,0,0,1-.07-17.09,14.11,14.11,0,0,1,9.78-3.33,14.28,14.28,0,0,1,9.8,3.3A10.86,10.86,0,0,1,399.66,365.47Zm-20.65.08a6.82,6.82,0,0,0,2,5.11,7.15,7.15,0,0,0,5.21,2,6.58,6.58,0,0,0,5.11-2.12,7.48,7.48,0,0,0,0-10,6.65,6.65,0,0,0-5.12-2.11,6.93,6.93,0,0,0-7.19,7.19Z" transform="translate(-74.81 -155.45)"/><path class="cls-2" d="M210.78,222.8c-4.2.58-8.39-1-12.27-2.73-4.67-2.1-8.24-12.79-21.39-11.53-4.86.46-26.68-7.11-31.57,17.72a53.08,53.08,0,0,0-.69,6.67,11.52,11.52,0,0,0,3.2,8.89c2.72,2.91,5.52,5.76,8.44,8.48q6.7,6.24,13.65,12.23c2.13,1.86,4.51,3.44,6.78,5.14-.06.31-.11.61-.16.92-6.71.73-13.1-1.23-19.52-2.83a49.35,49.35,0,0,1-18-8.1,8,8,0,0,0-3.75,7.42c.32,9.86,8.61,15.55,16.07,18.46,13.7,5.34,22,1.46,26.12-1.15-1.64,2.87-16,16.31-39.51,14.11.14,3,.22,5.8.47,8.61.22,2.4,4.48,7.74,18.66,8.29,4.81.19,14.54-4,18-7.31,10.39-10,14.21-20.79,13.91-27.18,2.74,4.66,1,14.57-4.53,26.43,6.72-2.29,10.71-11.81,12.88-18.59,2.1-6.54,2.9-15.74,2.17-25.77,5.1,9.82,4,20.24,4.8,30.84,5.71-3,10.83-3.8,18.08-2.92-1.21-11.29,2.45-20.71,11.05-27.73.16-3.94.06-7.64.53-11.28.5-3.83,2.73-6.88,5.9-9.4C236.5,235.76,222.31,221.23,210.78,222.8ZM192,251.33c-5.21,7.1-13.56,7.16-18.83.12a23.05,23.05,0,0,1-4.4-13.26,24.84,24.84,0,0,1,3.72-15.34c5.39-8.33,14.67-8.37,20.13-.13C198,230.79,197.69,243.58,192,251.33Z" transform="translate(-74.81 -155.45)"/><path class="cls-2" d="M190.06,238.12a7.06,7.06,0,0,1-2.06,2.62l2.67,4.88a15.12,15.12,0,0,0-.35-11.07A5,5,0,0,1,190.06,238.12Z" transform="translate(-74.81 -155.45)"/><path class="cls-2" d="M267.36,275.31c-3-1.48-6.41-2.84-6.41-2.84-.54,4.75-1.06,9.23-1.64,14.25l10,4.36C270.26,287.05,272.23,277.73,267.36,275.31Z" transform="translate(-74.81 -155.45)"/><path class="cls-2" d="M181.3,227.87c-3.33.15-5.83,4.31-7.32,8.14l7.06.06c.29-1.54.45-4.39,3.43-5.14a5.44,5.44,0,0,1,4.34,1C186.76,228.56,184.77,227.7,181.3,227.87Z" transform="translate(-74.81 -155.45)"/><path class="cls-2" d="M95.59,211s-4.38,13.16,7.59,24,23.43,7.88,23.43,7.88C117.8,223.35,95.59,211,95.59,211Z" transform="translate(-74.81 -155.45)"/><path class="cls-2" d="M248.38,280l9,5.59c1.48-3.49,1.74-13.53,1.74-13.53s-4.49-2.24-7.32-3.33Z" transform="translate(-74.81 -155.45)"/><path class="cls-2" d="M180.06,203.11l4.45,1c2.59.57,11.13-6.87,4.56-30.39C182.31,181.12,172.75,201.5,180.06,203.11Z" transform="translate(-74.81 -155.45)"/><path class="cls-2" d="M252,252.69c6.28,2.7,11.31,2,17,1.28.05-.28-6.15-5.22-9.5-7.06-6.13-3.38-9.25-2.65-10.38-.56C247.54,249.29,250.91,252.24,252,252.69Z" transform="translate(-74.81 -155.45)"/><path class="cls-2" d="M247.15,279.13c1.18-4.19,3.15-11,3.15-11-2.77-1.4-5.32-2.32-7.88-3.61-1.25,3.44-.83,6.82-.08,9.93C242.72,276,243.67,277,247.15,279.13Z" transform="translate(-74.81 -155.45)"/><path class="cls-2" d="M269.6,292.83c.29,6.07,2.14,8.44-.79,18.88,9.24-1.35,13.73-9.07,10.4-17.57Z" transform="translate(-74.81 -155.45)"/><path class="cls-2" d="M272.21,277.52c-.29,4.56-.57,9-.87,13.68a14.23,14.23,0,0,0,8.37.84c3.19-.51,2.53-4.87,2.53-4.87A12.11,12.11,0,0,0,272.21,277.52Z" transform="translate(-74.81 -155.45)"/><path class="cls-2" d="M267.94,293.34a2.57,2.57,0,0,0-1.28-1.66c-2.31-1.11-4.71-2.05-7.41-3.2a32.9,32.9,0,0,1-6.59,19.25c3.86,4.09,8.43,5.39,14,4.25C270,303.32,268.86,299.63,267.94,293.34Z" transform="translate(-74.81 -155.45)"/><path class="cls-2" d="M257.68,290.34a4,4,0,0,0-2.16-4.25c-5.15-3.15-9.62-7-13.25-8.34.71,10.33,2.4,20,9,28.49a12.84,12.84,0,0,0,1.74-1.86A30.1,30.1,0,0,0,257.68,290.34Z" transform="translate(-74.81 -155.45)"/><path d="M261.14,237.35a14.34,14.34,0,0,0,10.5-.86c10.48-4.74,15.46-2.54,21.41,5.92a9.33,9.33,0,0,1,.6.94c5.65,10.55,8.55,21.73,7.49,33.74a25.41,25.41,0,0,1-6.23,14.55c-2.44,2.84-5.68,4.59-9.15.64a9.33,9.33,0,0,0-1.26-1l-3.24,2.16a76.69,76.69,0,0,1,.37,9.07c-.6,7.7-4.53,14-9.67,19.36-7.13,7.5-15.85,9.88-25.91,6.88-7.76-2.32-12.54-7.8-15.91-14.8a98.34,98.34,0,0,1-7-21.41c-3.49-2.1-14.15,1.65-30.79,14.58-25.42,19.75-53.17,6-55,5.19-6.86,25.86-25.92,16.94-35.7,10.16,3.64-.86,21.9-7,18.93-36.66,3,2,4.8,3.26,8.07,1.28a48.44,48.44,0,0,1-9.48-33.87A37.31,37.31,0,0,1,101.5,249c-19.35-9.86-20.4-52.06-20.09-52.77,18.78,4.91,33.92,15.38,46.81,29.83,12.29-18.37,10.79-36.64,2.06-55.7a38.32,38.32,0,0,1,21.6,17.12c7-16.38-9.46-29.62-9.88-30.32a75,75,0,0,1,21.12,15.41c-1.35-11.83-2.3-11.12-4.43-17.12,6.45,6.1,10.37,13.66,13.14,22.36.85-1,11.27-12.46,16.57-17.33,4.2-3.87,6.81-3,8.79,2.33a58.83,58.83,0,0,1,2.84,30.5c-.84,5.12-2.46,10.11-3.79,15.43a4.67,4.67,0,0,0,.61.44c7.25,4.14,14.24,8.76,21.73,12.44,6.11,3,11.93,5.9,22.83,17.61C246.84,232.8,259.24,236.78,261.14,237.35ZM157.25,265.76a49.35,49.35,0,0,1-18-8.1,8,8,0,0,0-3.75,7.42c.32,9.86,8.61,15.55,16.07,18.46,13.7,5.34,22,1.46,26.12-1.15-1.64,2.87-16,16.31-39.51,14.11.14,3,.22,5.8.47,8.61.22,2.4,4.48,7.74,18.66,8.29,4.81.19,14.54-4,18-7.31,10.39-10,14.21-20.79,13.91-27.18,2.74,4.66,1,14.57-4.53,26.43,6.72-2.29,10.71-11.81,12.88-18.59,2.1-6.54,2.9-15.74,2.17-25.77,5.1,9.82,4,20.24,4.8,30.84,5.71-3,10.83-3.8,18.08-2.92-1.21-11.29,2.45-20.71,11.05-27.73.16-3.94.06-7.64.53-11.28.5-3.83,2.73-6.88,5.9-9.4-3.65-4.73-17.84-19.26-29.37-17.69-4.2.58-8.39-1-12.27-2.73-4.67-2.1-8.24-12.79-21.39-11.53-4.86.46-26.68-7.11-31.57,17.72a53.08,53.08,0,0,0-.69,6.67,11.52,11.52,0,0,0,3.2,8.89c2.72,2.91,5.52,5.76,8.44,8.48q6.7,6.24,13.65,12.23c2.13,1.86,4.51,3.44,6.78,5.14l-.16.92C170.06,269.32,163.67,267.36,157.25,265.76ZM95.59,211s-4.38,13.16,7.59,24,23.43,7.88,23.43,7.88C117.8,223.35,95.59,211,95.59,211Zm88.92-6.91c2.59.57,11.13-6.87,4.56-30.39-6.76,7.43-16.32,27.81-9,29.42Zm68.15,103.65c3.86,4.09,8.43,5.39,14,4.25,3.28-8.66,2.16-12.35,1.24-18.64a2.57,2.57,0,0,0-1.28-1.66c-2.31-1.11-4.71-2.05-7.41-3.2A32.9,32.9,0,0,1,252.66,307.73Zm-1.34-1.49a12.84,12.84,0,0,0,1.74-1.86,30.1,30.1,0,0,0,4.62-14,4,4,0,0,0-2.16-4.25c-5.15-3.15-9.62-7-13.25-8.34C243,288.08,244.67,297.77,251.32,306.24Zm27.89-12.1-9.61-1.31c.29,6.07,2.14,8.44-.79,18.88C278.05,310.36,282.54,302.64,279.21,294.14Zm-9.92-3.06c1-4,2.94-13.35-1.93-15.77-3-1.48-6.41-2.84-6.41-2.84-.54,4.75-1.06,9.23-1.64,14.25Zm2,.12a14.23,14.23,0,0,0,8.37.84c3.19-.51,2.53-4.87,2.53-4.87a12.11,12.11,0,0,0-10-9.65C271.92,282.08,271.64,286.5,271.34,291.2Zm-11.83-44.29c-6.13-3.38-9.25-2.65-10.38-.56-1.59,2.94,1.78,5.89,2.83,6.34,6.28,2.7,11.31,2,17,1.28C269.06,253.69,262.86,248.75,259.51,246.91ZM248.38,280l9,5.59c1.48-3.49,1.74-13.53,1.74-13.53s-4.49-2.24-7.32-3.33Zm1.92-11.88c-2.77-1.4-5.32-2.32-7.88-3.61-1.25,3.44-.83,6.82-.08,9.93.38,1.61,1.33,2.58,4.81,4.72C248.33,274.94,250.3,268.09,250.3,268.09Z" transform="translate(-74.81 -155.45)"/><path d="M172.5,222.85c5.39-8.33,14.67-8.37,20.13-.13,5.34,8.07,5.06,20.86-.62,28.61-5.21,7.1-13.56,7.16-18.83.12a23.05,23.05,0,0,1-4.4-13.26A24.84,24.84,0,0,1,172.5,222.85Zm8.8,5c-3.33.15-5.83,4.31-7.32,8.14l7.06.06c.29-1.54.45-4.39,3.43-5.14a5.44,5.44,0,0,1,4.34,1C186.76,228.56,184.77,227.7,181.3,227.87Zm9,6.68a5,5,0,0,1-.26,3.57,7.06,7.06,0,0,1-2.06,2.62l2.67,4.88A15.12,15.12,0,0,0,190.32,234.55Z" transform="translate(-74.81 -155.45)"/></svg>