<svg id="Ebene_1" data-name="Ebene 1" xmlns="http://www.w3.org/2000/svg" viewBox="0 0 73.02 75"><defs><style>.cls-1{fill:#3c0;}.cls-2{fill:#fdfdfc;}.cls-3{fill:#f60;}</style></defs><path class="cls-1" d="M428.07,276.21a33.29,33.29,0,1,0,33.29,33.28A33.28,33.28,0,0,0,428.07,276.21Zm0,52.24a19,19,0,1,1,18.95-19A19,19,0,0,1,428.07,328.45Z" transform="translate(-389 -267.78)"/><path class="cls-2" d="M437.93,285.74a6.2,6.2,0,0,1-3.27-.73c-1.25-.56-2.2-3.41-5.71-3.08-1.29.13-7.11-1.89-8.41,4.73a13.09,13.09,0,0,0-.18,1.78,3,3,0,0,0,.85,2.37c.72.77,1.47,1.53,2.25,2.26q1.79,1.65,3.64,3.26c.57.49,1.2.91,1.8,1.37l0,.24a14.84,14.84,0,0,1-5.2-.75,13.14,13.14,0,0,1-4.79-2.16,2.15,2.15,0,0,0-1,2c.09,2.62,2.3,4.14,4.29,4.92,3.65,1.42,5.87.39,7-.31-.44.77-4.27,4.35-10.53,3.76,0,.79.06,1.55.13,2.3s1.19,2.06,5,2.21a9.11,9.11,0,0,0,4.8-1.95c2.77-2.66,3.79-5.54,3.71-7.25.73,1.25.27,3.89-1.2,7.05,1.79-.61,2.85-3.15,3.43-5a19.16,19.16,0,0,0,.58-6.87c1.36,2.62,1.07,5.4,1.28,8.23a7.46,7.46,0,0,1,4.82-.78A7.94,7.94,0,0,1,444,296c0-1,0-2,.14-3a3.87,3.87,0,0,1,1.58-2.51C444.78,289.19,441,285.32,437.93,285.74Zm-5,7.6a2.93,2.93,0,0,1-5,0,6.06,6.06,0,0,1-1.18-3.53,6.59,6.59,0,0,1,1-4.09c1.44-2.22,3.91-2.23,5.37,0A7.15,7.15,0,0,1,432.92,293.34Z" transform="translate(-389 -267.78)"/><path class="cls-2" d="M448,301l2.39,1.5a15.23,15.23,0,0,0,.46-3.61s-1.19-.6-1.94-.89C448.54,299,448.26,300,448,301Z" transform="translate(-389 -267.78)"/><path class="cls-2" d="M453,299.73c-.8-.39-1.71-.75-1.71-.75-.14,1.26-.28,2.46-.44,3.8l2.66,1.16C453.78,302.86,454.31,300.38,453,299.73Z" transform="translate(-389 -267.78)"/><path class="cls-2" d="M448.91,293.7a8,8,0,0,0,4.54.35,15,15,0,0,0-2.53-1.89c-1.64-.9-2.47-.7-2.77-.15C447.73,292.8,448.63,293.58,448.91,293.7Z" transform="translate(-389 -267.78)"/><path class="cls-2" d="M429.74,280.49l1.19.26c.68.15,3-1.83,1.21-8.11C430.34,274.63,427.79,280.06,429.74,280.49Z" transform="translate(-389 -267.78)"/><path class="cls-2" d="M432.4,289.82a1.87,1.87,0,0,1-.55.7l.72,1.3a4,4,0,0,0-.1-2.95A1.29,1.29,0,0,1,432.4,289.82Z" transform="translate(-389 -267.78)"/><path class="cls-2" d="M430.07,287.09c-.89,0-1.56,1.15-1.95,2.17H430c.08-.41.12-1.17.91-1.37a1.46,1.46,0,0,1,1.16.26A1.9,1.9,0,0,0,430.07,287.09Z" transform="translate(-389 -267.78)"/><path class="cls-2" d="M407.22,282.59a6.3,6.3,0,0,0,2,6.41,7.25,7.25,0,0,0,6.25,2.1C413.14,285.88,407.22,282.59,407.22,282.59Z" transform="translate(-389 -267.78)"/><path class="cls-2" d="M453.61,304.4c.07,1.62.57,2.25-.21,5a3.29,3.29,0,0,0,2.77-4.69Z" transform="translate(-389 -267.78)"/><path class="cls-2" d="M454.3,300.32c-.08,1.22-.15,2.4-.23,3.65a3.73,3.73,0,0,0,2.23.22c.85-.13.68-1.3.68-1.3A3.24,3.24,0,0,0,454.3,300.32Z" transform="translate(-389 -267.78)"/><path class="cls-2" d="M450.43,303.74a1.07,1.07,0,0,0-.58-1.13,29.93,29.93,0,0,0-3.53-2.23c.19,2.76.64,5.34,2.41,7.6a3.08,3.08,0,0,0,.47-.5A8,8,0,0,0,450.43,303.74Z" transform="translate(-389 -267.78)"/><path class="cls-2" d="M447.62,300.75l.84-2.94c-.74-.37-1.42-.62-2.1-1a4.49,4.49,0,0,0,0,2.64C446.44,299.92,446.69,300.18,447.62,300.75Z" transform="translate(-389 -267.78)"/><path class="cls-2" d="M453.16,304.54a.65.65,0,0,0-.34-.44c-.61-.3-1.25-.55-2-.85a8.78,8.78,0,0,1-1.76,5.13,3.75,3.75,0,0,0,3.74,1.13A7.74,7.74,0,0,0,453.16,304.54Z" transform="translate(-389 -267.78)"/><path d="M451.3,289.61a3.73,3.73,0,0,0,2.8-.23c2.8-1.26,4.12-.67,5.71,1.58.06.08.11.17.16.25a15.83,15.83,0,0,1,2,9,6.76,6.76,0,0,1-1.66,3.88c-.66.75-1.52,1.22-2.44.17a2.68,2.68,0,0,0-.34-.28l-.86.58a20.09,20.09,0,0,1,.09,2.42,8.38,8.38,0,0,1-2.57,5.16,6.41,6.41,0,0,1-6.91,1.83A6.84,6.84,0,0,1,443,310a26.28,26.28,0,0,1-1.86-5.71c-.93-.56-3.77.44-8.21,3.89-6.78,5.26-14.17,1.6-14.65,1.38-1.83,6.9-6.91,4.52-9.52,2.71,1-.23,5.84-1.88,5.05-9.77.79.54,1.28.87,2.15.34a12.94,12.94,0,0,1-2.53-9,9.86,9.86,0,0,1-4.72-1.12c-5.16-2.63-5.44-13.88-5.36-14.07a25,25,0,0,1,12.48,8c3.28-4.89,2.88-9.76.55-14.84a10.23,10.23,0,0,1,5.76,4.56c1.86-4.37-2.52-7.89-2.63-8.08a19.92,19.92,0,0,1,5.62,4.11,12,12,0,0,0-1.18-4.57,13.57,13.57,0,0,1,3.51,6c.22-.27,3-3.32,4.41-4.62,1.12-1,1.82-.8,2.35.62a15.68,15.68,0,0,1,.75,8.14c-.22,1.36-.65,2.69-1,4.11a1.24,1.24,0,0,0,.17.11c1.93,1.11,3.79,2.34,5.79,3.32a17.74,17.74,0,0,1,6.09,4.7C447.49,288.4,450.8,289.46,451.3,289.61Zm-27.69,7.58a13.21,13.21,0,0,1-4.79-2.16,2.12,2.12,0,0,0-1,2c.08,2.62,2.29,4.14,4.28,4.92,3.65,1.42,5.87.39,7-.31-.43.77-4.27,4.35-10.53,3.76,0,.79.06,1.55.13,2.3s1.19,2.06,5,2.21a9.14,9.14,0,0,0,4.81-1.95c2.77-2.66,3.79-5.54,3.71-7.25.73,1.25.26,3.89-1.21,7.05,1.79-.61,2.85-3.15,3.43-5a19.16,19.16,0,0,0,.58-6.87c1.36,2.62,1.08,5.4,1.28,8.23a7.46,7.46,0,0,1,4.82-.78A7.94,7.94,0,0,1,444,296c.05-1,0-2,.15-3a3.82,3.82,0,0,1,1.57-2.51c-1-1.26-4.76-5.13-7.83-4.71a6.2,6.2,0,0,1-3.27-.73c-1.25-.56-2.2-3.41-5.7-3.08-1.3.13-7.11-1.89-8.42,4.73a13.09,13.09,0,0,0-.18,1.78,3.05,3.05,0,0,0,.85,2.37c.73.77,1.47,1.53,2.25,2.26,1.19,1.1,2.41,2.19,3.64,3.26.57.49,1.2.91,1.8,1.37l0,.24A14.87,14.87,0,0,1,423.61,297.19Zm-16.44-14.6a6.29,6.29,0,0,0,2,6.41,7.23,7.23,0,0,0,6.24,2.1C413.09,285.88,407.17,282.59,407.17,282.59Zm23.71-1.84c.69.15,3-1.83,1.21-8.11-1.8,2-4.35,7.42-2.4,7.85ZM449,308.38a3.76,3.76,0,0,0,3.75,1.13,7.88,7.88,0,0,0,.33-5,.72.72,0,0,0-.34-.44c-.62-.3-1.26-.55-2-.85A8.78,8.78,0,0,1,449,308.38Zm-.36-.4a3.08,3.08,0,0,0,.47-.5,7.91,7.91,0,0,0,1.23-3.74,1.08,1.08,0,0,0-.57-1.13,30.77,30.77,0,0,0-3.54-2.23C446.46,303.14,446.91,305.72,448.68,308Zm7.44-3.23-2.56-.35c.08,1.62.57,2.25-.21,5A3.29,3.29,0,0,0,456.12,304.75Zm-2.64-.81c.26-1.08.78-3.56-.52-4.21-.79-.39-1.71-.75-1.71-.75l-.44,3.8Zm.54,0a3.74,3.74,0,0,0,2.23.22c.85-.13.68-1.3.68-1.3a3.24,3.24,0,0,0-2.68-2.57Zm-3.15-11.81c-1.64-.9-2.47-.7-2.77-.15-.42.79.48,1.57.76,1.69a8,8,0,0,0,4.54.35A14.6,14.6,0,0,0,450.87,292.16Zm-3,8.81,2.39,1.5a15.39,15.39,0,0,0,.47-3.61s-1.2-.6-1.95-.89Zm.52-3.16c-.75-.37-1.42-.62-2.11-1a4.49,4.49,0,0,0,0,2.64c.1.43.36.69,1.28,1.26C447.89,299.63,448.42,297.81,448.42,297.81Z" transform="translate(-389 -267.78)"/><path d="M427.68,285.75c1.43-2.22,3.91-2.23,5.36,0a7.17,7.17,0,0,1-.16,7.63,2.94,2.94,0,0,1-5,0,6.06,6.06,0,0,1-1.18-3.53A6.54,6.54,0,0,1,427.68,285.75Zm2.34,1.34c-.89,0-1.55,1.15-1.95,2.17H430c.08-.41.12-1.17.92-1.37a1.43,1.43,0,0,1,1.15.26A1.88,1.88,0,0,0,430,287.09Zm2.4,1.78a1.32,1.32,0,0,1-.06.95,1.87,1.87,0,0,1-.55.7l.71,1.3A4,4,0,0,0,432.42,288.87Z" transform="translate(-389 -267.78)"/><path class="cls-3" d="M395.71,306.21s23.61,16.66,42.94,1.06c0,0-7.32,13.61-14.88,18.17,0,0,17.88-2.71,30.25,3a140.46,140.46,0,0,0-33.38,2.78c-19.53,4-31.64-3.87-31.64-3.87s24.77,3.68,33.79-9.31C422.79,318.06,404.31,318.6,395.71,306.21Z" transform="translate(-389 -267.78)"/></svg>