<svg id="Ebene_1" data-name="Ebene 1" xmlns="http://www.w3.org/2000/svg" viewBox="0 0 573.38 661.92"><defs><style>.cls-1{fill:#f60;}.cls-2{fill:#fff;}</style></defs><path class="cls-1" d="M51.63,318.07S173,403.7,272.34,323.55c0,0-37.63,69.93-76.5,93.39,0,0,91.89-13.95,155.49,15.52,0,0-78.18-5-171.56,14.27C79.36,467.41,17.14,426.86,17.14,426.86S144.43,445.76,190.83,379C190.83,379,95.83,381.76,51.63,318.07Z" transform="translate(-17.14 -13.93)"/><path d="M454.24,645.9c-6,7.83-1.61,18.43,5.07,30-15.84-5.9-27.74-23.06-32.11-36.71-6.47,2.57-3.28,17.91-.82,23.3-4.62,1.83-19.37-9.49-23.79-29.93C396.21,603.08,416,593,414.87,590.36c-5.28-12.18-12.77-22.93-27.21-29.31-9.12-4-53.14-15-90.09-3.29-60.82,19.2-113.52,17.91-146,11.5-33.74-6.67-45.59.5-55.37,6.46,2.12-13.06,28.94-28.32,64.81-26.46,25.57,1.33,54.31,11.92,113.41-11.1,34.32-13.37,80.81-19.31,118.08-3.5,16.25,6.9,30.64,20.51,44.62,53.59,26.52,3.18,48.67,14.65,55.3,42.33-11.8-10-20.21-11-27.87-10.13,1,21.3,33.13,37.57,31.92,37.49C469,656.07,457.62,647.9,454.24,645.9Z" transform="translate(-17.14 -13.93)"/><path d="M19.78,441.92c5.37,12,110.46,78.83,260.14,34.33,43.28-12.86,68.16-36.44,70.66-38.53,0,3.06-22.78,49-77.23,69.81-71.28,27.29-142.43,17.66-188.89,9-49.81-7.89-17.55,36.31-10.71,45.36C70,561.76,17.84,491.48,19.78,441.92Z" transform="translate(-17.14 -13.93)"/><path d="M267.66,385.63a14.71,14.71,0,0,0,2.88,9.35,9.49,9.49,0,0,0,7.93,3.69q7.93,0,10.12-6.77l10.58,1.49q-5.18,12.25-20.7,12.25-10.35,0-16.5-5.73T255.82,385q0-9.66,5.92-15.49t16.1-5.82q10.17,0,15.87,5.53t5.69,15.08v1.3Zm21.39-5.38a10.12,10.12,0,0,0-2.93-7.17,10,10,0,0,0-7.59-3.09,9.75,9.75,0,0,0-7.59,3.24,10.25,10.25,0,0,0-2.93,7Z" transform="translate(-17.14 -13.93)"/><path d="M305.38,336.34h11.15V368.6q4.83-4.87,14.37-4.88a19.79,19.79,0,0,1,14.89,6.17,20.31,20.31,0,0,1,5.92,14.54,20.9,20.9,0,0,1-5.86,15.13q-5.87,6.07-15.18,6.08-10,0-13.91-5l-.23,3.68H305.38Zm34.95,48.29a12.4,12.4,0,0,0-3.56-8.76,12,12,0,0,0-9.09-3.79,11.65,11.65,0,0,0-9,3.74,12.61,12.61,0,0,0-3.45,8.86,12.28,12.28,0,0,0,3.63,8.86,12.9,12.9,0,0,0,18.05.1A12.71,12.71,0,0,0,340.33,384.63Z" transform="translate(-17.14 -13.93)"/><path d="M368.85,369.1q4.25-5.39,13.33-5.38a13.62,13.62,0,0,1,5.29,1l-1.38,8.76a11.21,11.21,0,0,0-5.52-1.4q-11.73,0-11.72,14.54v17.72H357.69V365h11.16Z" transform="translate(-17.14 -13.93)"/><path d="M434.61,404.34H423.69v-3.58q-4.83,4.88-14.37,4.88t-15.24-6.37a21.74,21.74,0,0,1-5.69-14.94,20.27,20.27,0,0,1,5.81-14.59,19.79,19.79,0,0,1,14.89-6q9.66,0,14.6,5V365h10.92ZM425,384.63a12.12,12.12,0,0,0-3.56-9,13.64,13.64,0,0,0-18.22-.1,13.57,13.57,0,0,0,.05,18.27,12.63,12.63,0,0,0,9.2,3.48,12.4,12.4,0,0,0,9.09-3.38Q425,390.5,425,384.63Z" transform="translate(-17.14 -13.93)"/><path d="M455.08,368.6q4.71-4.87,13.91-4.88,15.64,0,15.64,16.63v24h-11V383.53q0-12.43-8.85-12.44-9.66,0-9.66,13.34v19.91H443.93V365h11.15Z" transform="translate(-17.14 -13.93)"/><path d="M537.18,401q0,20.21-21.74,20.21-9.65,0-16.32-4.53t-6.67-11.8h11.84q0,2.9,3.34,5.68a11.38,11.38,0,0,0,7.47,2.78Q526,413.3,526,402v-2.49q-4.71,5.19-14.31,5.18t-15.07-5.77a19.82,19.82,0,0,1-5.46-14.14,21,21,0,0,1,5.87-15.14q5.86-6.06,15.23-6.07T526,368.6v-3.79h11.16Zm-9.55-17.13a11.41,11.41,0,0,0-3.45-8.66,12.63,12.63,0,0,0-9.08-3.29,12.22,12.22,0,0,0-9.14,3.59,12.42,12.42,0,0,0-3.51,9.06q0,11.75,12.65,11.75a12.07,12.07,0,0,0,9.14-3.54A12.33,12.33,0,0,0,527.63,383.83Z" transform="translate(-17.14 -13.93)"/><path d="M590.53,384.63A19.38,19.38,0,0,1,584,399.76q-6.56,5.88-17.19,5.88t-17.3-5.88a20.52,20.52,0,0,1-.12-30.17q6.55-5.86,17.25-5.87t17.31,5.82A19.22,19.22,0,0,1,590.53,384.63Zm-36.45.15a12.07,12.07,0,0,0,3.56,9,12.62,12.62,0,0,0,9.2,3.48,11.6,11.6,0,0,0,9-3.73,13.19,13.19,0,0,0-.06-17.72,11.72,11.72,0,0,0-9-3.74,12.24,12.24,0,0,0-12.7,12.7Z" transform="translate(-17.14 -13.93)"/><path class="cls-2" d="M257.14,132.82c-7.41,1-14.81-1.76-21.65-4.83-8.25-3.7-14.55-22.58-37.77-20.35-8.56.82-47.08-12.55-55.73,31.28a92.39,92.39,0,0,0-1.2,11.77,20.31,20.31,0,0,0,5.64,15.7c4.81,5.13,9.75,10.16,14.9,15q11.83,11,24.09,21.6c3.77,3.27,8,6.06,12,9.07l-.27,1.62c-11.84,1.29-23.13-2.17-34.45-5s-22.15-7.11-31.74-14.29c-4.89,3.41-6.81,7.54-6.63,13.1.57,17.4,15.21,27.45,28.37,32.58,24.19,9.43,38.86,2.57,46.11-2-2.89,5.07-28.27,28.78-69.74,24.9.25,5.24.38,10.24.83,15.19.39,4.23,7.9,13.66,32.93,14.64,8.5.34,25.66-7,31.83-12.91,18.34-17.62,25.09-36.7,24.55-48,4.84,8.22,1.78,25.71-8,46.64,11.85-4,18.9-20.85,22.74-32.81,3.7-11.54,5.11-27.79,3.82-45.49,9,17.33,7.13,35.73,8.48,54.44,10.08-5.24,19.1-6.72,31.91-5.15-2.14-19.94,4.33-36.56,19.5-49,.29-6.94.11-13.49.94-19.9.88-6.76,4.83-12.16,10.42-16.59C302.55,155.69,277.49,130,257.14,132.82ZM224,183.16c-9.2,12.53-23.93,12.64-33.23.22-5.19-6.93-7.43-14.85-7.78-23.4-.58-9.7,1.28-18.86,6.58-27.08,9.5-14.71,25.89-14.77,35.52-.23C234.53,146.91,234,169.48,224,183.16Z" transform="translate(-17.14 -13.93)"/><path class="cls-2" d="M220.56,159.84a12.41,12.41,0,0,1-3.63,4.64l4.71,8.6c2.29-7.23,2-13.39-.62-19.54A8.75,8.75,0,0,1,220.56,159.84Z" transform="translate(-17.14 -13.93)"/><path class="cls-2" d="M357,225.49c-5.26-2.61-11.3-5-11.3-5-1,8.38-1.88,16.3-2.9,25.16l17.62,7.7C362.13,246.21,365.61,229.76,357,225.49Z" transform="translate(-17.14 -13.93)"/><path class="cls-2" d="M205.11,141.75c-5.88.28-10.3,7.61-12.93,14.37l12.46.12c.51-2.73.81-7.75,6.07-9.09a9.57,9.57,0,0,1,7.65,1.72C214.74,143,211.24,141.46,205.11,141.75Z" transform="translate(-17.14 -13.93)"/><path class="cls-2" d="M53.81,112s-7.73,23.23,13.4,42.45c20.9,19,41.37,13.91,41.37,13.91C93,133.77,53.81,112,53.81,112Z" transform="translate(-17.14 -13.93)"/><path class="cls-2" d="M323.51,233.71l15.82,9.87c2.62-6.15,3.08-23.87,3.08-23.87s-7.91-4-12.91-5.89C327.44,220.68,325.56,226.91,323.51,233.71Z" transform="translate(-17.14 -13.93)"/><path class="cls-2" d="M202.92,98.05l7.86,1.72c4.56,1,19.63-12.13,8-53.65C206.88,59.24,190,95.21,202.92,98.05Z" transform="translate(-17.14 -13.93)"/><path class="cls-2" d="M329.84,185.57c11.07,4.77,20,3.51,30.08,2.26.09-.5-10.86-9.21-16.76-12.46-10.83-6-16.34-4.68-18.33-1C322,179.56,328,184.77,329.84,185.57Z" transform="translate(-17.14 -13.93)"/><path class="cls-2" d="M321.34,232.23c2.07-7.39,5.57-19.48,5.57-19.48-4.91-2.46-9.4-4.1-13.93-6.37-2.2,6.08-1.45,12-.13,17.53C313.52,226.74,315.19,228.47,321.34,232.23Z" transform="translate(-17.14 -13.93)"/><path class="cls-2" d="M361,256.42c.51,10.71,3.77,14.9-1.4,33.33,16.31-2.38,24.23-16,18.35-31Z" transform="translate(-17.14 -13.93)"/><path class="cls-2" d="M365.57,229.39c-.51,8.05-1,15.85-1.54,24.15,4.41,2.12,9.62,2.29,14.79,1.48,5.63-.89,4.45-8.6,4.45-8.6A21.39,21.39,0,0,0,365.57,229.39Z" transform="translate(-17.14 -13.93)"/><path class="cls-2" d="M358,257.31a4.54,4.54,0,0,0-2.25-2.92c-4.09-1.95-8.32-3.62-13.09-5.64-.19,12.92-4.35,23.8-11.62,34,6.82,7.23,14.88,9.52,24.77,7.52C361.64,274.93,359.66,268.42,358,257.31Z" transform="translate(-17.14 -13.93)"/><path class="cls-2" d="M339.92,252c.21-3.39-.67-5.57-3.81-7.49-9.09-5.57-17-12.4-23.38-14.74,1.24,18.24,4.23,35.35,16,50.3a22.55,22.55,0,0,0,3.08-3.29A52.87,52.87,0,0,0,339.92,252Z" transform="translate(-17.14 -13.93)"/><path d="M346,158.48c6.44,1.93,12.35,1.28,18.53-1.51,18.5-8.36,27.29-4.48,37.79,10.45a17.33,17.33,0,0,1,1.07,1.66c10,18.62,15.1,38.36,13.21,59.56a44.8,44.8,0,0,1-11,25.68c-4.32,5-10,8.1-16.16,1.13a18.12,18.12,0,0,0-2.22-1.81l-5.73,3.83c.26,5.62,1,10.86.65,16-1.05,13.59-8,24.62-17.05,34.16-12.6,13.25-28,17.44-45.74,12.14-13.7-4.08-22.14-13.76-28.09-26.11-5.83-12.13-9.45-25-12.31-37.81-6.17-3.69-25,2.93-54.35,25.75-44.88,34.87-93.85,10.59-97.05,9.15-12.11,45.66-45.75,29.92-63,17.94C71,307.18,103.24,296.27,98,244c5.24,3.61,8.47,5.74,14.23,2.25-13.18-18.12-18.6-37.74-16.74-59.78-11.67.39-22.86-3.14-31.26-7.42-34.15-17.4-36-91.89-35.45-93.14,33.14,8.67,59.87,27.14,82.62,52.65,21.7-32.42,19.05-64.67,3.63-98.31,16.67,5.49,29.1,15.37,38.13,30.22,12.35-28.92-16.69-52.29-17.43-53.53A132.67,132.67,0,0,1,173,44.15c-2.38-20.89-4-19.63-7.81-30.22C176.59,24.69,183.5,38,188.39,53.39c1.5-1.83,19.89-22,29.24-30.59,7.42-6.82,12-5.29,15.52,4.12a104,104,0,0,1,5,53.84c-1.49,9-4.34,17.84-6.69,27.23a7.47,7.47,0,0,0,1.08.77c12.79,7.31,25.13,15.46,38.35,22,10.78,5.31,21,10.4,40.3,31.08C320.79,150.46,342.68,157.48,346,158.48ZM162.66,208.63c-11.36-2.84-22.15-7.11-31.74-14.29-4.89,3.41-6.81,7.54-6.63,13.1.57,17.4,15.21,27.45,28.37,32.58,24.19,9.43,38.86,2.57,46.11-2-2.89,5.07-28.27,28.78-69.74,24.9.25,5.24.38,10.24.83,15.19.39,4.23,7.9,13.66,32.93,14.64,8.5.34,25.66-7,31.83-12.91,18.34-17.62,25.09-36.7,24.55-48,4.84,8.22,1.78,25.71-8,46.64,11.85-4,18.9-20.85,22.74-32.81,3.7-11.54,5.11-27.79,3.82-45.49,9,17.33,7.13,35.73,8.48,54.44,10.08-5.24,19.1-6.72,31.91-5.15-2.14-19.94,4.33-36.56,19.5-49,.29-6.94.11-13.49.94-19.9.88-6.76,4.83-12.16,10.42-16.59-6.44-8.35-31.5-34-51.85-31.22-7.41,1-14.81-1.76-21.65-4.83-8.25-3.7-14.55-22.58-37.77-20.35-8.56.82-47.08-12.55-55.73,31.28a92.39,92.39,0,0,0-1.2,11.77,20.31,20.31,0,0,0,5.64,15.7c4.81,5.13,9.75,10.16,14.9,15q11.83,11,24.09,21.6c3.77,3.27,8,6.06,12,9.07l-.27,1.62C185.27,214.92,174,211.46,162.66,208.63ZM53.81,112s-7.73,23.23,13.4,42.45c20.9,19,41.37,13.91,41.37,13.91C93,133.77,53.81,112,53.81,112Zm157-12.19c4.56,1,19.63-12.13,8-53.65C206.88,59.24,190,95.21,202.92,98.05ZM331.07,282.71c6.82,7.23,14.88,9.52,24.77,7.52,5.8-15.3,3.82-21.81,2.19-32.92a4.54,4.54,0,0,0-2.25-2.92c-4.09-1.95-8.32-3.62-13.09-5.64C342.5,261.67,338.34,272.55,331.07,282.71Zm-2.38-2.62a22.55,22.55,0,0,0,3.08-3.29A52.87,52.87,0,0,0,339.92,252c.21-3.39-.67-5.57-3.81-7.49-9.09-5.57-17-12.4-23.38-14.74C314,248,317,265.14,328.69,280.09Zm49.23-21.36L361,256.42c.51,10.71,3.77,14.9-1.4,33.33C375.88,287.37,383.8,273.73,377.92,258.73Zm-17.5-5.39c1.71-7.13,5.19-23.58-3.42-27.85-5.26-2.61-11.3-5-11.3-5-1,8.38-1.88,16.3-2.9,25.16Zm3.61.2c4.41,2.12,9.62,2.29,14.79,1.48,5.63-.89,4.45-8.6,4.45-8.6a21.39,21.39,0,0,0-17.7-17C365.06,237.44,364.56,245.24,364,253.54Zm-20.87-78.17c-10.83-6-16.34-4.68-18.33-1-2.8,5.18,3.15,10.39,5,11.19,11.07,4.77,20,3.51,30.08,2.26C360,187.33,349.06,178.62,343.16,175.37Zm-19.65,58.34,15.82,9.87c2.62-6.15,3.08-23.87,3.08-23.87s-7.91-4-12.91-5.89C327.44,220.68,325.56,226.91,323.51,233.71Zm3.4-21c-4.91-2.46-9.4-4.1-13.93-6.37-2.2,6.08-1.45,12-.13,17.53.67,2.83,2.34,4.56,8.49,8.32C323.41,224.84,326.91,212.75,326.91,212.75Z" transform="translate(-17.14 -13.93)"/><path d="M189.58,132.9c9.5-14.71,25.89-14.77,35.52-.23,9.43,14.24,8.94,36.81-1.09,50.49-9.2,12.53-23.93,12.64-33.23.22-5.19-6.93-7.43-14.85-7.78-23.4C182.42,150.28,184.28,141.12,189.58,132.9Zm15.53,8.85c-5.88.28-10.3,7.61-12.93,14.37l12.46.12c.51-2.73.81-7.75,6.07-9.09a9.57,9.57,0,0,1,7.65,1.72C214.74,143,211.24,141.46,205.11,141.75ZM221,153.54a8.75,8.75,0,0,1-.46,6.3,12.41,12.41,0,0,1-3.63,4.64l4.71,8.6C223.93,165.85,223.64,159.69,221,153.54Z" transform="translate(-17.14 -13.93)"/></svg>