<svg id="Ebene_1" data-name="Ebene 1" xmlns="http://www.w3.org/2000/svg" viewBox="0 0 109.53 112.5"><defs><style>.cls-1{fill:#3c0;}.cls-2{fill:#fdfdfc;}.cls-3{fill:#f60;}</style></defs><path class="cls-1" d="M411.09,261.67A49.93,49.93,0,1,0,461,311.6,49.92,49.92,0,0,0,411.09,261.67Zm0,78.36a28.43,28.43,0,1,1,28.43-28.43A28.43,28.43,0,0,1,411.09,340Z" transform="translate(-352.49 -249.03)"/><path class="cls-2" d="M425.88,276a9.18,9.18,0,0,1-4.91-1.09c-1.86-.84-3.29-5.11-8.55-4.61-1.94.19-10.67-2.84-12.63,7.09a21.4,21.4,0,0,0-.27,2.66,4.62,4.62,0,0,0,1.28,3.56c1.09,1.16,2.21,2.3,3.37,3.39q2.68,2.49,5.46,4.89c.86.74,1.81,1.37,2.71,2l-.06.37c-2.68.29-5.24-.49-7.8-1.13a19.56,19.56,0,0,1-7.19-3.24,3.2,3.2,0,0,0-1.51,3c.13,3.94,3.45,6.22,6.43,7.38,5.48,2.14,8.8.58,10.45-.46-.66,1.15-6.41,6.52-15.8,5.64.05,1.19.08,2.32.19,3.44.08,1,1.78,3.1,7.46,3.32,1.92.08,5.81-1.58,7.21-2.92,4.15-4,5.68-8.32,5.56-10.87,1.09,1.86.4,5.83-1.81,10.57,2.68-.92,4.28-4.73,5.15-7.44a28.42,28.42,0,0,0,.86-10.3c2,3.92,1.62,8.09,1.93,12.33a11.3,11.3,0,0,1,7.22-1.17,11.92,11.92,0,0,1,4.42-11.09c.07-1.57,0-3.05.21-4.5a5.76,5.76,0,0,1,2.36-3.76C436.16,281.15,430.49,275.34,425.88,276Zm-7.51,11.41c-2.08,2.84-5.42,2.86-7.52.05a9.21,9.21,0,0,1-1.77-5.3,10,10,0,0,1,1.49-6.14c2.16-3.33,5.87-3.34,8.05-.05A10.7,10.7,0,0,1,418.37,287.37Z" transform="translate(-352.49 -249.03)"/><path class="cls-2" d="M440.91,298.82l3.59,2.24c.59-1.4.69-5.41.69-5.41s-1.79-.9-2.92-1.33C441.8,295.87,441.38,297.28,440.91,298.82Z" transform="translate(-352.49 -249.03)"/><path class="cls-2" d="M448.5,297c-1.19-.59-2.56-1.14-2.56-1.14-.22,1.9-.43,3.7-.66,5.7l4,1.75C449.66,301.65,450.45,297.92,448.5,297Z" transform="translate(-352.49 -249.03)"/><path class="cls-2" d="M442.35,287.92c2.5,1.08,4.52.79,6.81.51a22.55,22.55,0,0,0-3.8-2.83c-2.45-1.35-3.7-1.06-4.15-.22C440.58,286.55,441.93,287.73,442.35,287.92Z" transform="translate(-352.49 -249.03)"/><path class="cls-2" d="M413.6,268.09l1.78.39c1,.23,4.44-2.75,1.82-12.16C414.49,259.3,410.67,267.45,413.6,268.09Z" transform="translate(-352.49 -249.03)"/><path class="cls-2" d="M417.59,282.09a2.87,2.87,0,0,1-.82,1.05l1.07,1.95a6.06,6.06,0,0,0-.14-4.43A2,2,0,0,1,417.59,282.09Z" transform="translate(-352.49 -249.03)"/><path class="cls-2" d="M414.09,278c-1.33.06-2.33,1.72-2.93,3.25l2.83,0c.11-.62.18-1.75,1.37-2.06a2.17,2.17,0,0,1,1.73.39A2.84,2.84,0,0,0,414.09,278Z" transform="translate(-352.49 -249.03)"/><path class="cls-2" d="M379.82,271.24a9.47,9.47,0,0,0,3,9.62c4.74,4.3,9.37,3.15,9.37,3.15C388.7,276.18,379.82,271.24,379.82,271.24Z" transform="translate(-352.49 -249.03)"/><path class="cls-2" d="M449.4,304c.11,2.43.85,3.38-.32,7.56,3.7-.54,5.49-3.63,4.16-7Z" transform="translate(-352.49 -249.03)"/><path class="cls-2" d="M450.44,297.84c-.12,1.82-.23,3.59-.35,5.47a5.73,5.73,0,0,0,3.35.34c1.28-.2,1-1.95,1-1.95A4.84,4.84,0,0,0,450.44,297.84Z" transform="translate(-352.49 -249.03)"/><path class="cls-2" d="M444.63,303a1.62,1.62,0,0,0-.86-1.7c-2.06-1.26-3.85-2.81-5.3-3.34.28,4.14,1,8,3.62,11.4a6,6,0,0,0,.7-.75A12,12,0,0,0,444.63,303Z" transform="translate(-352.49 -249.03)"/><path class="cls-2" d="M440.42,298.49c.47-1.68,1.26-4.42,1.26-4.42-1.11-.56-2.13-.93-3.15-1.44a6.72,6.72,0,0,0,0,4C438.65,297.24,439,297.63,440.42,298.49Z" transform="translate(-352.49 -249.03)"/><path class="cls-2" d="M448.73,304.17a1,1,0,0,0-.51-.66c-.92-.45-1.88-.82-3-1.28a13.16,13.16,0,0,1-2.63,7.69,5.59,5.59,0,0,0,5.61,1.7C449.55,308.16,449.1,306.68,448.73,304.17Z" transform="translate(-352.49 -249.03)"/><path d="M445.94,281.78a5.73,5.73,0,0,0,4.2-.34c4.19-1.9,6.18-1,8.56,2.36a4,4,0,0,1,.24.38,23.73,23.73,0,0,1,3,13.49,10.19,10.19,0,0,1-2.49,5.82c-1,1.13-2.28,1.83-3.66.25a4.14,4.14,0,0,0-.51-.4l-1.29.86a30.13,30.13,0,0,1,.14,3.63,12.56,12.56,0,0,1-3.86,7.74,9.6,9.6,0,0,1-10.36,2.75c-3.1-.93-5-3.12-6.36-5.92a39.48,39.48,0,0,1-2.79-8.56c-1.4-.84-5.66.66-12.31,5.83-10.17,7.9-21.26,2.4-22,2.07-2.74,10.35-10.36,6.78-14.27,4.07,1.45-.35,8.75-2.82,7.57-14.66,1.19.82,1.92,1.3,3.22.51a19.41,19.41,0,0,1-3.79-13.54,14.84,14.84,0,0,1-7.08-1.68c-7.74-3.94-8.16-20.82-8-21.1,7.51,2,13.56,6.15,18.71,11.92,4.92-7.34,4.32-14.64.83-22.27a15.34,15.34,0,0,1,8.63,6.85c2.8-6.55-3.78-11.84-3.94-12.13a30.2,30.2,0,0,1,8.44,6.17c-.54-4.73-.92-4.45-1.77-6.85a20.3,20.3,0,0,1,5.25,8.94c.34-.41,4.51-5,6.63-6.93,1.68-1.54,2.72-1.2,3.51.94a23.55,23.55,0,0,1,1.14,12.19c-.34,2.05-1,4-1.52,6.17a2.8,2.8,0,0,0,.25.17c2.89,1.66,5.69,3.51,8.69,5,2.44,1.2,4.77,2.36,9.13,7C440.22,280,445.18,281.55,445.94,281.78ZM404.4,293.14a19.7,19.7,0,0,1-7.19-3.24,3.21,3.21,0,0,0-1.5,3c.13,3.94,3.45,6.22,6.43,7.38,5.48,2.14,8.8.58,10.44-.46-.65,1.15-6.4,6.52-15.79,5.64,0,1.19.08,2.32.18,3.44.09,1,1.79,3.1,7.46,3.32,1.93.08,5.82-1.58,7.21-2.92,4.16-4,5.69-8.32,5.57-10.87,1.09,1.86.4,5.83-1.82,10.57,2.69-.92,4.29-4.73,5.16-7.44a28.87,28.87,0,0,0,.86-10.3c2,3.92,1.62,8.09,1.92,12.33a11.41,11.41,0,0,1,7.23-1.17A11.92,11.92,0,0,1,435,291.3c.06-1.57,0-3.05.21-4.5a5.73,5.73,0,0,1,2.36-3.76c-1.46-1.89-7.13-7.7-11.74-7.08a9.18,9.18,0,0,1-4.91-1.09c-1.87-.84-3.29-5.11-8.55-4.61-1.94.19-10.67-2.84-12.63,7.09a21.4,21.4,0,0,0-.27,2.66,4.59,4.59,0,0,0,1.28,3.56c1.09,1.16,2.21,2.3,3.37,3.39q2.68,2.49,5.46,4.89c.85.74,1.8,1.37,2.71,2l-.06.37C409.53,294.56,407,293.78,404.4,293.14Zm-24.65-21.9a9.47,9.47,0,0,0,3,9.62c4.73,4.3,9.37,3.15,9.37,3.15C388.63,276.18,379.75,271.24,379.75,271.24Zm35.55-2.76c1,.23,4.45-2.75,1.82-12.16-2.7,3-6.52,11.13-3.6,11.77Zm27.25,41.44a5.61,5.61,0,0,0,5.62,1.7c1.31-3.46.86-4.94.49-7.45a1,1,0,0,0-.51-.66c-.92-.45-1.88-.83-3-1.28A13.17,13.17,0,0,1,442.55,309.92Zm-.54-.59a4.76,4.76,0,0,0,.7-.75,12,12,0,0,0,1.85-5.61,1.62,1.62,0,0,0-.86-1.7c-2.06-1.26-3.85-2.81-5.3-3.34C438.68,302.07,439.36,305.94,442,309.33Zm11.16-4.84-3.84-.53c.11,2.43.85,3.38-.32,7.56C452.71,311,454.5,307.89,453.17,304.49Zm-4-1.22c.39-1.62,1.18-5.35-.77-6.31-1.19-.59-2.56-1.14-2.56-1.14l-.66,5.7Zm.82,0a5.73,5.73,0,0,0,3.35.34c1.28-.2,1-1.95,1-1.95a4.84,4.84,0,0,0-4-3.86Zm-4.73-17.71c-2.45-1.35-3.7-1.06-4.15-.22-.63,1.17.71,2.35,1.13,2.54,2.51,1.08,4.52.79,6.82.51A22.55,22.55,0,0,0,445.29,285.6Zm-4.45,13.22,3.59,2.24c.59-1.4.69-5.41.69-5.41s-1.79-.9-2.92-1.33Zm.77-4.75c-1.11-.56-2.13-.93-3.15-1.44a6.72,6.72,0,0,0,0,4c.15.64.53,1,1.92,1.89C440.82,296.81,441.61,294.07,441.61,294.07Z" transform="translate(-352.49 -249.03)"/><path d="M410.5,276c2.15-3.33,5.87-3.34,8.05-.05a10.74,10.74,0,0,1-.25,11.44c-2.08,2.84-5.42,2.86-7.53.05a9.27,9.27,0,0,1-1.76-5.3A10,10,0,0,1,410.5,276Zm3.52,2c-1.33.06-2.33,1.72-2.93,3.25l2.82,0c.12-.62.19-1.75,1.38-2.06a2.17,2.17,0,0,1,1.73.39A2.84,2.84,0,0,0,414,278Zm3.6,2.67a2,2,0,0,1-.1,1.43,2.87,2.87,0,0,1-.82,1.05l1.07,1.95A6.06,6.06,0,0,0,417.62,280.66Z" transform="translate(-352.49 -249.03)"/><path class="cls-3" d="M362.55,306.67s35.41,25,64.42,1.6c0,0-11,20.41-22.33,27.25,0,0,26.82-4.07,45.38,4.53A210,210,0,0,0,400,344.22c-29.3,6-47.46-5.8-47.46-5.8s37.15,5.51,50.69-14C403.18,324.46,375.46,325.26,362.55,306.67Z" transform="translate(-352.49 -249.03)"/></svg>