<svg id="Ebene_1" data-name="Ebene 1" xmlns="http://www.w3.org/2000/svg" viewBox="0 0 553.97 490.06"><defs><style>.cls-1{fill:#fdfdfc;}.cls-2{fill:#f60;}</style></defs><path class="cls-1" d="M391.82,168.39c-8.49,1.15-17-2-24.81-5.53-9.44-4.25-16.67-25.87-43.27-23.32-9.81.94-53.94-14.38-63.84,35.84a106.52,106.52,0,0,0-1.38,13.48,23.28,23.28,0,0,0,6.46,18c5.51,5.88,11.17,11.64,17.07,17.13q13.56,12.61,27.6,24.75c4.32,3.74,9.12,6.94,13.71,10.39-.11.62-.21,1.23-.31,1.85-13.57,1.48-26.5-2.49-39.48-5.73s-25.37-8.14-36.36-16.36c-5.6,3.9-7.81,8.63-7.6,15,.66,19.93,17.43,31.45,32.5,37.32,27.72,10.81,44.53,3,52.83-2.31-3.31,5.81-32.38,33-79.89,28.53.28,6,.43,11.73.95,17.41.44,4.85,9,15.64,37.72,16.77,9.74.38,29.4-8,36.47-14.79,21-20.19,28.74-42.05,28.13-55,5.54,9.42,2,29.47-9.16,53.44,13.58-4.62,21.66-23.88,26-37.59,4.24-13.22,5.86-31.83,4.39-52.12,10.31,19.86,8.15,40.94,9.71,62.38,11.54-6,21.88-7.7,36.55-5.9-2.45-22.84,5-41.88,22.35-56.1.32-8,.12-15.45,1.07-22.79,1-7.75,5.53-13.93,11.94-19C443.84,194.59,415.13,165.21,391.82,168.39Zm-38,57.68c-10.54,14.36-27.41,14.48-38.07.24-5.94-7.93-8.51-17-8.91-26.8-.67-11.11,1.46-21.6,7.54-31,10.88-16.86,29.65-16.93,40.69-.27C365.91,184.53,365.36,210.4,353.86,226.07Z" transform="translate(-20.66 -32.18)"/><path class="cls-1" d="M467.85,284,486,295.29c3-7.05,3.52-27.35,3.52-27.35s-9.06-4.54-14.78-6.74Z" transform="translate(-20.66 -32.18)"/><path class="cls-1" d="M506.23,274.56c-6-3-13-5.74-13-5.74-1.11,9.6-2.16,18.68-3.33,28.83l20.19,8.82C512.11,298.3,516.09,279.45,506.23,274.56Z" transform="translate(-20.66 -32.18)"/><path class="cls-1" d="M475.1,228.83c12.69,5.46,22.86,4,34.47,2.58.11-.57-12.44-10.55-19.2-14.27-12.41-6.84-18.72-5.36-21-1.14C466.16,221.94,473,227.91,475.1,228.83Z" transform="translate(-20.66 -32.18)"/><path class="cls-1" d="M329.7,128.55l9,2c5.23,1.15,22.5-13.9,9.21-61.47C334.24,84.09,314.91,125.31,329.7,128.55Z" transform="translate(-20.66 -32.18)"/><path class="cls-1" d="M349.91,199.35a14.15,14.15,0,0,1-4.17,5.31l5.41,9.86c2.62-8.28,2.29-15.34-.71-22.38A10,10,0,0,1,349.91,199.35Z" transform="translate(-20.66 -32.18)"/><path class="cls-1" d="M332.21,178.62c-6.74.32-11.8,8.72-14.81,16.46l14.27.14c.58-3.12.92-8.87,6.95-10.41,4.78-1.21,8.77,2,8.77,2C343.24,180,339.23,178.29,332.21,178.62Z" transform="translate(-20.66 -32.18)"/><path class="cls-1" d="M158.87,144.5s-8.85,26.61,15.35,48.63c23.94,21.77,47.39,15.93,47.39,15.93C203.79,169.48,158.87,144.5,158.87,144.5Z" transform="translate(-20.66 -32.18)"/><path class="cls-1" d="M510.77,310c.58,12.27,4.32,17.06-1.6,38.19,18.69-2.74,27.76-18.36,21-35.55Z" transform="translate(-20.66 -32.18)"/><path class="cls-1" d="M516,279c-.59,9.22-1.15,18.16-1.76,27.66,5.05,2.43,11,2.64,16.94,1.7,6.45-1,5.1-9.84,5.1-9.84S533.85,282.13,516,279Z" transform="translate(-20.66 -32.18)"/><path class="cls-1" d="M486.65,305c.25-3.87-.76-6.37-4.35-8.57-10.42-6.38-19.46-14.21-26.8-16.89,1.43,20.9,4.86,40.5,18.29,57.63a26.9,26.9,0,0,0,3.53-3.77A60.59,60.59,0,0,0,486.65,305Z" transform="translate(-20.66 -32.18)"/><path class="cls-1" d="M465.37,282.29c2.37-8.48,6.38-22.33,6.38-22.33-5.62-2.82-10.77-4.69-16-7.29-2.52,7-1.66,13.79-.15,20.08C456.41,276,458.32,278,465.37,282.29Z" transform="translate(-20.66 -32.18)"/><path class="cls-1" d="M507.41,311a5.23,5.23,0,0,0-2.58-3.35c-4.69-2.24-9.53-4.14-15-6.46-.22,14.8-5,27.27-13.32,38.91,7.82,8.28,17.05,10.9,28.39,8.61C511.54,331.2,509.27,323.75,507.41,311Z" transform="translate(-20.66 -32.18)"/><path d="M493.3,197.79c7.37,2.22,14.14,1.47,21.22-1.73,21.2-9.58,31.27-5.13,43.3,12a19.26,19.26,0,0,1,1.22,1.91c11.42,21.33,17.3,43.94,15.14,68.23a51.35,51.35,0,0,1-12.59,29.42c-4.94,5.74-11.5,9.28-18.51,1.29a21.42,21.42,0,0,0-2.54-2.07L534,311.2c.31,6.43,1.21,12.44.75,18.34-1.2,15.57-9.15,28.21-19.54,39.14-14.43,15.18-32.06,20-52.4,13.91-15.69-4.68-25.37-15.77-32.18-29.92-6.68-13.89-10.83-28.64-14.11-43.31-7.06-4.23-28.61,3.35-62.26,29.49C302.81,378.8,246.71,351,243,349.34c-13.88,52.31-52.42,34.28-72.2,20.55,7.37-1.74,44.29-14.24,38.3-74.12,6,4.13,9.7,6.58,16.31,2.58-15.11-20.77-21.31-43.24-19.18-68.5-13.38.46-26.19-3.59-35.82-8.49-39.13-19.94-41.24-105.28-40.61-106.71,38,9.94,68.59,31.09,94.65,60.31,24.86-37.13,21.83-74.09,4.16-112.63C247.75,68.62,262,80,272.34,97c14.15-33.12-19.13-59.9-20-61.32a152.08,152.08,0,0,1,42.7,31.17c-2.73-23.93-4.64-22.48-8.95-34.62,13.05,12.33,21,27.63,26.56,45.22,1.72-2.11,22.79-25.19,33.51-35.06,8.49-7.81,13.77-6.05,17.78,4.72a119.12,119.12,0,0,1,5.75,61.69c-1.71,10.35-5,20.44-7.67,31.2a9.24,9.24,0,0,0,1.24.88c14.65,8.38,28.8,17.71,43.94,25.17,12.35,6.08,24.12,11.92,46.17,35.61C464.37,188.6,489.46,196.64,493.3,197.79ZM283.21,255.24c-13-3.24-25.38-8.14-36.36-16.36-5.61,3.9-7.81,8.63-7.6,15,.66,19.93,17.43,31.45,32.5,37.32,27.71,10.81,44.52,3,52.83-2.31-3.32,5.81-32.39,33-79.9,28.53.29,6,.44,11.73.95,17.41.45,4.85,9.05,15.64,37.73,16.77,9.73.38,29.4-8,36.46-14.79,21-20.19,28.75-42.05,28.14-55,5.53,9.42,2,29.47-9.17,53.44,13.58-4.62,21.66-23.88,26.06-37.59,4.24-13.22,5.85-31.83,4.38-52.12,10.31,19.86,8.16,40.94,9.71,62.38,11.55-6,21.89-7.7,36.56-5.9-2.46-22.84,5-41.88,22.34-56.1.33-8,.12-15.45,1.08-22.79,1-7.75,5.53-13.93,11.93-19-7.38-9.57-36.08-38.95-59.4-35.77-8.48,1.15-17-2-24.8-5.53C357.2,158.61,350,137,323.38,139.54c-9.82.94-53.94-14.38-63.85,35.84a106.49,106.49,0,0,0-1.38,13.49,23.24,23.24,0,0,0,6.47,18c5.51,5.88,11.16,11.64,17.06,17.13q13.57,12.61,27.6,24.75c4.33,3.75,9.13,6.94,13.71,10.39l-.31,1.85C309.11,262.45,296.18,258.48,283.21,255.24ZM158.5,144.5s-8.85,26.61,15.36,48.63c23.93,21.77,47.38,15.93,47.38,15.93C203.43,169.48,158.5,144.5,158.5,144.5Zm179.83-14c5.24,1.15,22.5-13.9,9.21-61.47-13.67,15-33,56.25-18.2,59.49ZM476.15,340.12c7.81,8.28,17,10.9,28.39,8.61,6.64-17.53,4.37-25,2.51-37.71a5.27,5.27,0,0,0-2.59-3.35c-4.68-2.24-9.53-4.14-15-6.46C489.25,316,484.48,328.48,476.15,340.12Zm-2.72-3a27.51,27.51,0,0,0,3.53-3.77,60.7,60.7,0,0,0,9.33-28.4c.24-3.87-.76-6.37-4.36-8.57-10.42-6.38-19.45-14.21-26.79-16.89C456.56,300.39,460,320,473.43,337.12Zm56.4-24.48L510.41,310c.58,12.27,4.31,17.06-1.6,38.19C527.49,345.45,536.57,329.83,529.83,312.64Zm-20.05-6.17c2-8.17,5.94-27-3.92-31.91-6-3-12.94-5.74-12.94-5.74-1.11,9.6-2.16,18.68-3.33,28.83Zm4.14.22c5,2.43,11,2.64,16.94,1.7,6.44-1,5.1-9.84,5.1-9.84s-2.47-16.42-20.29-19.52C515.09,288.25,514.52,297.19,513.92,306.69ZM490,217.14c-12.41-6.84-18.71-5.36-21-1.14-3.21,5.94,3.61,11.91,5.74,12.83,12.68,5.46,22.86,4,34.47,2.58C509.31,230.84,496.77,220.86,490,217.14ZM467.49,284l18.13,11.31c3-7.05,3.52-27.35,3.52-27.35s-9.06-4.54-14.79-6.74C472,269.05,469.84,276.18,467.49,284Zm3.89-24c-5.61-2.82-10.76-4.69-15.95-7.29-2.53,7-1.66,13.8-.16,20.08.78,3.24,2.69,5.22,9.73,9.54C467.38,273.81,471.38,260,471.38,260Z" transform="translate(-20.66 -32.18)"/><path d="M314.05,168.49c10.88-16.86,29.66-16.93,40.69-.27,10.81,16.31,10.25,42.18-1.25,57.85-10.53,14.36-27.41,14.48-38.07.24-5.94-7.93-8.51-17-8.9-26.8C305.85,188.4,308,177.91,314.05,168.49Zm17.8,10.13c-6.74.32-11.81,8.72-14.82,16.46l14.27.14c.59-3.12.93-8.87,7-10.41,4.77-1.21,8.77,2,8.77,2C342.87,180,338.86,178.29,331.85,178.62Zm18.23,13.52a10.05,10.05,0,0,1-.53,7.21,14.26,14.26,0,0,1-4.17,5.31l5.4,9.86C353.41,206.24,353.07,199.18,350.08,192.14Z" transform="translate(-20.66 -32.18)"/><path class="cls-2" d="M71.56,323.67s179.08,126.4,325.77,8.09c0,0-55.54,103.21-112.92,137.85,0,0,135.64-20.6,229.51,22.9,0,0-115.4-7.33-253.23,21.06-148.2,30.53-240-29.32-240-29.32S208.53,512.14,277,413.63C277,413.63,136.8,417.68,71.56,323.67Z" transform="translate(-20.66 -32.18)"/></svg>