<svg id="Ebene_1" data-name="Ebene 1" xmlns="http://www.w3.org/2000/svg" viewBox="0 0 649.68 750"><defs><style>.cls-1{fill:#f60;}</style></defs><path class="cls-1" d="M132,402.74s137.47,97,250.07,6.21c0,0-42.63,79.23-86.68,105.82,0,0,104.12-15.82,176.18,17.58,0,0-88.58-5.63-194.39,16.17C163.43,572,92.93,526,92.93,526s144.22,21.41,196.8-54.21C289.73,471.8,182.09,474.9,132,402.74Z" transform="translate(-92.93 -58.13)"/><path d="M588.19,774.19c-6.8,8.88-1.82,20.88,5.74,33.94C576,801.44,562.5,782,557.56,766.54c-7.34,2.9-3.73,20.29-.94,26.39-5.23,2.08-21.94-10.75-27-33.91-7.22-33.34,15.22-44.76,13.93-47.75-6-13.81-14.47-26-30.83-33.21-10.34-4.57-60.22-16.95-102.09-3.74-68.91,21.76-128.62,20.3-165.41,13-38.24-7.55-51.66.57-62.74,7.33,2.4-14.8,32.78-32.09,73.43-30,29,1.5,61.53,13.5,128.5-12.58,38.89-15.15,91.56-21.88,133.8-4,18.41,7.8,34.72,23.23,50.55,60.71,30.05,3.61,55.15,16.6,62.66,48-13.37-11.29-22.89-12.49-31.57-11.48,1.16,24.14,37.53,42.57,36.17,42.48C604.92,785.71,592,776.46,588.19,774.19Z" transform="translate(-92.93 -58.13)"/><path d="M95.92,543.06C102,556.67,221.08,632.39,390.67,582c49-14.58,77.24-41.29,80.06-43.66,0,3.46-25.81,55.48-87.49,79.1-80.77,30.93-161.4,20-214,10.18-56.44-8.94-19.89,41.15-12.14,51.41C152.76,678.86,93.72,599.23,95.92,543.06Z" transform="translate(-92.93 -58.13)"/><path d="M376.79,479.28A16.73,16.73,0,0,0,380,489.89a10.78,10.78,0,0,0,9,4.17q9,0,11.47-7.67l12,1.69Q406.62,502,389,502q-11.73,0-18.69-6.49t-7-16.86q0-11,6.71-17.55t18.24-6.6q11.52,0,18,6.26t6.44,17.1v1.46ZM401,473.19a11.65,11.65,0,0,0-11.92-11.62,11,11,0,0,0-8.6,3.67,11.59,11.59,0,0,0-3.32,7.95Z" transform="translate(-92.93 -58.13)"/><path d="M419.52,423.44h12.64V460q5.46-5.52,16.28-5.53a22.41,22.41,0,0,1,16.87,7A23,23,0,0,1,472,477.93a23.72,23.72,0,0,1-6.64,17.15q-6.64,6.89-17.2,6.88-11.34,0-15.76-5.64l-.26,4.17H419.52Zm39.6,54.72a14.05,14.05,0,0,0-4-9.93,13.54,13.54,0,0,0-10.3-4.29,13.2,13.2,0,0,0-10.16,4.23,14.28,14.28,0,0,0-3.91,10,13.91,13.91,0,0,0,4.11,10,13.5,13.5,0,0,0,10.09,4.23q6.52,0,10.36-4.12A14.37,14.37,0,0,0,459.12,478.16Z" transform="translate(-92.93 -58.13)"/><path d="M491.43,460.55q4.81-6.09,15.12-6.09a15.62,15.62,0,0,1,6,1.13L511,465.52a12.76,12.76,0,0,0-6.25-1.58q-13.29,0-13.29,16.47v20.08H478.79V455.93h12.64Z" transform="translate(-92.93 -58.13)"/><path d="M566,500.49H553.58v-4.06Q548.1,502,537.29,502T520,494.74a24.58,24.58,0,0,1-6.45-16.92,22.93,22.93,0,0,1,6.58-16.53q6.57-6.82,16.87-6.83,11,0,16.55,5.64v-4.17H566ZM555,478.16a13.81,13.81,0,0,0-4-10.22,15.48,15.48,0,0,0-20.65-.11,15.38,15.38,0,0,0,.07,20.7,14.23,14.23,0,0,0,10.42,4,14,14,0,0,0,10.29-3.83Q555,484.81,555,478.16Z" transform="translate(-92.93 -58.13)"/><path d="M589.14,460q5.34-5.52,15.77-5.53,17.72,0,17.72,18.84v27.19H610.12V476.91q0-14.1-10-14.1-11,0-11,15.12v22.56H576.5V455.93h12.64Z" transform="translate(-92.93 -58.13)"/><path d="M682.16,496.66q0,22.89-24.62,22.9-10.95,0-18.5-5.13t-7.56-13.37H644.9q0,3.27,3.78,6.43a12.9,12.9,0,0,0,8.47,3.16q12.38,0,12.38-12.86V495q-5.35,5.88-16.22,5.87t-17.07-6.54a22.42,22.42,0,0,1-6.19-16,23.75,23.75,0,0,1,6.64-17.15q6.66-6.89,17.27-6.88T669.53,460V455.7h12.63Zm-10.81-19.41a12.9,12.9,0,0,0-3.91-9.81,14.31,14.31,0,0,0-10.29-3.73,13.84,13.84,0,0,0-10.36,4.07,14.06,14.06,0,0,0-4,10.26q0,13.32,14.33,13.31,6.51,0,10.36-4A14,14,0,0,0,671.35,477.25Z" transform="translate(-92.93 -58.13)"/><path d="M742.62,478.16a22,22,0,0,1-7.43,17.14Q727.77,502,715.71,502T696.1,495.3a23.25,23.25,0,0,1-.13-34.18q7.42-6.66,19.55-6.66t19.6,6.6A21.72,21.72,0,0,1,742.62,478.16Zm-41.3.16a13.64,13.64,0,0,0,4,10.21,14.27,14.27,0,0,0,10.43,4A13.14,13.14,0,0,0,726,488.25a14.93,14.93,0,0,0-.06-20.08,13.29,13.29,0,0,0-10.23-4.23,13.85,13.85,0,0,0-14.39,14.38Z" transform="translate(-92.93 -58.13)"/><path d="M465.59,221.92c7.29,2.18,14,1.45,21-1.72,21-9.48,30.92-5.07,42.82,11.84a17.81,17.81,0,0,1,1.21,1.89c11.29,21.09,17.1,43.46,15,67.48a50.8,50.8,0,0,1-12.45,29.1c-4.89,5.67-11.38,9.18-18.31,1.27a20,20,0,0,0-2.51-2l-6.5,4.33c.31,6.37,1.2,12.31.74,18.14-1.19,15.4-9,27.9-19.32,38.71-14.27,15-31.71,19.76-51.82,13.76-15.52-4.63-25.09-15.6-31.83-29.59-6.61-13.74-10.71-28.33-13.95-42.84-7-4.18-28.3,3.32-61.58,29.17-50.85,39.51-106.34,12-110,10.37-13.73,51.74-51.85,33.9-71.41,20.33,7.29-1.72,43.8-14.08,37.87-73.31,5.95,4.09,9.6,6.51,16.14,2.56-14.94-20.55-21.08-42.77-19-67.75-13.22.45-25.89-3.55-35.41-8.4-38.71-19.72-40.79-104.12-40.17-105.54,37.55,9.83,67.84,30.75,93.61,59.66,24.59-36.73,21.59-73.28,4.12-111.4,18.89,6.23,33,17.43,43.2,34.24,14-32.76-18.92-59.23-19.75-60.65a150.71,150.71,0,0,1,42.23,30.83c-2.7-23.66-4.59-22.23-8.85-34.23,12.9,12.19,20.73,27.32,26.27,44.71,1.7-2.08,22.54-24.91,33.14-34.67,8.4-7.72,13.62-6,17.58,4.67a117.8,117.8,0,0,1,5.69,61c-1.69,10.23-4.92,20.22-7.59,30.86a10.52,10.52,0,0,0,1.23.86c14.49,8.29,28.48,17.53,43.46,24.9,12.21,6,23.85,11.79,45.66,35.22C437,212.82,461.79,220.78,465.59,221.92ZM257.81,278.73c-12.87-3.21-25.1-8.05-36-16.18-5.54,3.86-7.72,8.53-7.52,14.83.65,19.72,17.24,31.1,32.15,36.92,27.41,10.69,44,2.92,52.25-2.29-3.28,5.74-32,32.61-79,28.21.28,5.95.43,11.6.94,17.22.44,4.8,8.94,15.47,37.31,16.59,9.62.38,29.07-7.92,36.06-14.63,20.78-20,28.43-41.58,27.83-54.35,5.47,9.32,2,29.14-9.07,52.85,13.44-4.57,21.42-23.62,25.77-37.18,4.19-13.07,5.79-31.48,4.34-51.54,10.19,19.64,8.06,40.48,9.6,61.69,11.42-5.94,21.65-7.62,36.15-5.84-2.42-22.59,4.91-41.42,22.1-55.48.33-7.86.12-15.27,1.07-22.54,1-7.66,5.46-13.78,11.8-18.8-7.3-9.46-35.69-38.52-58.75-35.38-8.39,1.14-16.77-2-24.53-5.47-9.34-4.19-16.49-25.58-42.79-23.06-9.71.93-53.35-14.21-63.14,35.45A104.17,104.17,0,0,0,233,213.08a23,23,0,0,0,6.39,17.79c5.45,5.82,11.05,11.52,16.88,16.94q13.43,12.49,27.3,24.48c4.27,3.71,9,6.87,13.56,10.28l-.31,1.83C283.43,285.86,270.64,281.94,257.81,278.73ZM134.48,169.2s-8.76,26.33,15.18,48.1c23.68,21.54,46.87,15.76,46.87,15.76C178.91,193.92,134.48,169.2,134.48,169.2Zm177.85-13.81c5.18,1.14,22.25-13.74,9.11-60.79-13.52,14.86-32.64,55.63-18,58.84Zm136.3,207.29c7.72,8.18,16.86,10.78,28.07,8.51,6.57-17.34,4.32-24.7,2.48-37.3a5.12,5.12,0,0,0-2.55-3.3c-4.63-2.22-9.43-4.11-14.83-6.4C461.58,338.83,456.87,351.16,448.63,362.68Zm-2.69-3a27,27,0,0,0,3.49-3.73,60.15,60.15,0,0,0,9.23-28.08c.24-3.84-.76-6.31-4.31-8.49-10.31-6.31-19.24-14.05-26.5-16.69C429.26,323.38,432.65,342.77,445.94,359.71Zm55.78-24.21-19.21-2.62c.58,12.14,4.27,16.88-1.58,37.77C499.41,368,508.38,352.5,501.72,335.5Zm-19.84-6.11c1.95-8.07,5.89-26.72-3.86-31.55-6-2.95-12.81-5.68-12.81-5.68-1.09,9.49-2.13,18.47-3.29,28.51Zm4.1.23c5,2.4,10.9,2.6,16.75,1.68,6.38-1,5-9.74,5-9.74s-2.45-16.23-20.06-19.3C487.14,311.38,486.58,320.22,486,329.62Zm-23.65-88.57c-12.28-6.76-18.51-5.31-20.77-1.13-3.18,5.88,3.57,11.78,5.67,12.69,12.55,5.4,22.61,4,34.09,2.55C481.43,254.6,469,244.73,462.33,241.05Zm-22.27,66.1L458,318.34c3-7,3.49-27,3.49-27s-9-4.49-14.63-6.67C444.51,292.38,442.38,299.44,440.06,307.15Zm3.85-23.75c-5.55-2.79-10.64-4.64-15.78-7.21-2.49,6.88-1.64,13.64-.15,19.86.77,3.21,2.66,5.16,9.62,9.43C440,297.1,443.91,283.4,443.91,283.4Z" transform="translate(-92.93 -58.13)"/><path d="M288.31,192.93c10.76-16.67,29.34-16.74,40.25-.27,10.68,16.14,10.13,41.72-1.24,57.22-10.42,14.2-27.11,14.32-37.65.24-5.87-7.85-8.42-16.83-8.81-26.51C280.2,212.62,282.3,202.25,288.31,192.93Zm17.6,10c-6.66.32-11.67,8.62-14.65,16.29l14.11.13c.59-3.09.92-8.78,6.88-10.29,4.73-1.21,8.68,1.94,8.68,1.94C316.82,204.34,312.85,202.63,305.91,203Zm18,13.37a10,10,0,0,1-.52,7.14,14.09,14.09,0,0,1-4.12,5.25l5.34,9.74C327.24,230.27,326.91,223.28,323.94,216.32Z" transform="translate(-92.93 -58.13)"/></svg>