<svg id="Ebene_1" data-name="Ebene 1" xmlns="http://www.w3.org/2000/svg" viewBox="0 0 678.24 600"><defs><style>.cls-1{fill:#f60;}</style></defs><path d="M620.51,236.36c9,2.7,17.31,1.79,26-2.13,26-11.73,38.28-6.28,53,14.66a23.83,23.83,0,0,1,1.5,2.34c14,26.11,21.17,53.8,18.53,83.53a62.87,62.87,0,0,1-15.41,36c-6.06,7-14.08,11.36-22.67,1.58a24.93,24.93,0,0,0-3.11-2.54l-8,5.37c.37,7.88,1.48,15.23.92,22.45-1.48,19.07-11.2,34.55-23.93,47.93-17.66,18.58-39.24,24.45-64.15,17-19.21-5.73-31.06-19.31-39.4-36.63-8.18-17-13.25-35.07-17.27-53-8.65-5.18-35,4.1-76.23,36.11-63,48.91-131.64,14.86-136.13,12.84-17,64-64.18,42-88.4,25.16,9-2.13,54.22-17.43,46.89-90.75,7.35,5.06,11.88,8.05,20,3.16-18.5-25.43-26.1-52.94-23.49-83.86-16.38.55-32.06-4.4-43.84-10.4-47.92-24.41-50.5-128.9-49.73-130.65,46.48,12.16,84,38.06,115.89,73.85,30.44-45.47,26.72-90.72,5.09-137.91,23.39,7.71,40.81,21.57,53.49,42.39,17.32-40.56-23.42-73.33-24.45-75.08,19.84,10,37.2,22.33,52.27,38.17-3.34-29.3-5.68-27.53-10.95-42.39,16,15.1,25.67,33.82,32.52,55.36,2.11-2.57,27.9-30.84,41-42.92,10.39-9.56,16.85-7.41,21.76,5.78a145.84,145.84,0,0,1,7,75.52c-2.08,12.68-6.08,25-9.39,38.2a10.44,10.44,0,0,0,1.52,1.08c17.94,10.26,35.26,21.69,53.8,30.82,15.12,7.44,29.53,14.59,56.53,43.6C585.1,225.1,615.81,235,620.51,236.36ZM363.29,306.69c-15.93-4-31.06-10-44.51-20-6.86,4.78-9.56,10.57-9.31,18.37.81,24.41,21.34,38.5,39.79,45.7,33.94,13.24,54.52,3.62,64.69-2.83-4.06,7.11-39.65,40.37-97.82,34.92.34,7.36.53,14.37,1.16,21.32.54,5.94,11.08,19.16,46.19,20.53,11.91.47,36-9.8,44.64-18.11,25.73-24.71,35.2-51.47,34.45-67.28,6.78,11.53,2.48,36.08-11.22,65.43,16.63-5.66,26.51-29.24,31.9-46,5.19-16.18,7.17-39,5.36-63.81,12.63,24.32,10,50.12,11.9,76.38,14.13-7.35,26.79-9.43,44.75-7.23-3-28,6.07-51.28,27.36-68.68.4-9.74.14-18.91,1.32-27.91,1.23-9.48,6.76-17.05,14.61-23.27-9-11.72-44.19-47.69-72.73-43.8-10.39,1.42-20.77-2.46-30.37-6.77-11.56-5.19-20.41-31.67-53-28.55-12,1.15-66-17.6-78.16,43.89a129.55,129.55,0,0,0-1.69,16.5,28.44,28.44,0,0,0,7.91,22c6.75,7.2,13.67,14.26,20.9,21q16.6,15.45,33.79,30.3c5.29,4.58,11.17,8.5,16.78,12.72l-.38,2.26C395,315.51,379.18,310.66,363.29,306.69ZM210.62,171.1s-10.84,32.59,18.79,59.54c29.31,26.66,58,19.51,58,19.51C265.62,201.69,210.62,171.1,210.62,171.1ZM430.79,154c6.41,1.41,27.54-17,11.27-75.25-16.73,18.39-40.4,68.86-22.29,72.83ZM599.52,410.61c9.56,10.14,20.87,13.35,34.75,10.54,8.14-21.46,5.35-30.58,3.07-46.17a6.34,6.34,0,0,0-3.16-4.09c-5.73-2.75-11.67-5.08-18.36-7.92C615.56,381.09,609.72,396.35,599.52,410.61Zm-3.34-3.67c1.62-1.7,3.31-3,4.33-4.62a74.22,74.22,0,0,0,11.42-34.77c.3-4.74-.93-7.8-5.33-10.5-12.76-7.81-23.82-17.4-32.81-20.67C575.54,362,579.74,386,596.18,406.94Zm69.06-30-23.78-3.24c.71,15,5.28,20.89-2,46.75C662.38,417.14,673.49,398,665.24,377Zm-24.55-7.56c2.4-10,7.28-33.08-4.79-39.06-7.38-3.66-15.85-7-15.85-7-1.36,11.75-2.64,22.86-4.08,35.29Zm5.07.27c6.18,3,13.49,3.23,20.74,2.08,7.89-1.25,6.24-12.05,6.24-12.05s-3-20.1-24.83-23.89C647.19,347.1,646.5,358.05,645.76,369.68ZM616.48,260c-15.2-8.37-22.91-6.57-25.71-1.39-3.93,7.27,4.42,14.58,7,15.7,15.53,6.69,28,4.92,42.2,3.17C640.12,276.82,624.76,264.6,616.48,260Zm-27.57,81.84,22.2,13.85c3.68-8.63,4.31-33.49,4.31-33.49s-11.09-5.56-18.1-8.26C594.42,323.59,591.79,332.33,588.91,341.88Zm4.77-29.41c-6.88-3.45-13.18-5.74-19.53-8.93-3.09,8.52-2,16.89-.19,24.59.95,4,3.28,6.39,11.91,11.67C588.78,329.43,593.68,312.47,593.68,312.47Z" transform="translate(-41.84 -33.59)"/><path d="M401.06,200.47c13.32-20.64,36.31-20.72,49.81-.33,13.24,20,12.55,51.64-1.52,70.83-12.9,17.58-33.57,17.73-46.61.3-7.28-9.72-10.42-20.83-10.91-32.82C391,224.85,393.62,212,401.06,200.47Zm21.78,12.41c-8.25.39-14.45,10.67-18.13,20.16l17.47.17c.72-3.83,1.13-10.87,8.51-12.75,5.85-1.49,10.74,2.41,10.74,2.41C436.35,214.6,431.44,212.48,422.84,212.88Zm22.32,16.55a12.28,12.28,0,0,1-.64,8.83,17.47,17.47,0,0,1-5.11,6.5L446,256.83C449.24,246.69,448.83,238.05,445.16,229.43Z" transform="translate(-41.84 -33.59)"/><path class="cls-1" d="M104.16,390.47S323.42,545.22,503,400.38c0,0-68,126.36-138.26,168.76,0,0,166.07-25.22,281,28,0,0-141.28-9-310,25.79-181.45,37.38-293.89-35.9-293.89-35.9s230,34.15,313.87-86.46C355.71,500.61,184.05,505.57,104.16,390.47Z" transform="translate(-41.84 -33.59)"/></svg>