<svg id="Ebene_1" data-name="Ebene 1" xmlns="http://www.w3.org/2000/svg" viewBox="0 0 129.94 150"><defs><style>.cls-1{fill:#f60;}.cls-2{fill:#fff;}</style></defs><path class="cls-1" d="M277.53,336.87s27.5,19.41,50,1.25c0,0-8.53,15.84-17.34,21.16,0,0,20.83-3.16,35.24,3.52A163.08,163.08,0,0,0,306.57,366c-22.75,4.69-36.85-4.5-36.85-4.5s28.84,4.28,39.36-10.84C309.08,350.69,287.55,351.31,277.53,336.87Z" transform="translate(-269.72 -267.95)"/><path d="M368.77,411.16c-1.36,1.78-.36,4.18,1.15,6.79-3.59-1.33-6.29-5.22-7.28-8.32-1.46.58-.74,4.06-.18,5.28-1,.42-4.39-2.15-5.39-6.78-1.45-6.67,3-8.95,2.78-9.55a11.75,11.75,0,0,0-6.17-6.64c-2.06-.91-12-3.39-20.41-.75-13.78,4.35-25.73,4.06-33.09,2.61-7.64-1.51-10.33.11-12.54,1.46.48-3,6.55-6.42,14.68-6,5.8.3,12.31,2.7,25.7-2.52,7.78-3,18.32-4.38,26.76-.79,3.68,1.56,7,4.65,10.11,12.14,6,.72,11,3.32,12.54,9.59-2.68-2.26-4.58-2.5-6.32-2.29.23,4.83,7.51,8.51,7.23,8.49C372.12,413.47,369.54,411.62,368.77,411.16Z" transform="translate(-269.72 -267.95)"/><path d="M270.32,364.94c1.21,2.72,25,17.86,58.95,7.78a42.18,42.18,0,0,0,16-8.73c0,.69-5.16,11.09-17.5,15.82-16.15,6.18-32.28,4-42.81,2-11.28-1.79-4,8.22-2.42,10.28C281.69,392.1,269.88,376.17,270.32,364.94Z" transform="translate(-269.72 -267.95)"/><path d="M326.49,352.18a3.35,3.35,0,0,0,.65,2.12,2.42,2.42,0,0,0,4.09-.7l2.4.34c-.78,1.85-2.35,2.78-4.69,2.78a5.26,5.26,0,0,1-3.74-1.3,4.38,4.38,0,0,1-1.39-3.37,4.68,4.68,0,0,1,1.34-3.51,5.74,5.74,0,0,1,7.24-.07,4.56,4.56,0,0,1,1.29,3.42v.29Zm4.85-1.22a2.31,2.31,0,0,0-.67-1.62,2.43,2.43,0,0,0-3.44,0,2.34,2.34,0,0,0-.66,1.59Z" transform="translate(-269.72 -267.95)"/><path d="M335,341h2.52v7.32a4.39,4.39,0,0,1,3.26-1.11,4.5,4.5,0,0,1,3.38,1.4,4.61,4.61,0,0,1,1.34,3.29,4.77,4.77,0,0,1-1.33,3.43,4.57,4.57,0,0,1-3.44,1.38,3.8,3.8,0,0,1-3.15-1.13l-.06.84H335ZM343,352a2.82,2.82,0,0,0-.81-2,2.72,2.72,0,0,0-2.06-.86,2.66,2.66,0,0,0-2,.85,2.87,2.87,0,0,0-.78,2,2.8,2.8,0,0,0,.82,2,2.93,2.93,0,0,0,4.09,0A2.89,2.89,0,0,0,343,352Z" transform="translate(-269.72 -267.95)"/><path d="M349.42,348.44a3.62,3.62,0,0,1,3-1.22,2.92,2.92,0,0,1,1.2.23l-.31,2a2.55,2.55,0,0,0-1.25-.32c-1.78,0-2.66,1.1-2.66,3.3v4h-2.53v-8.92h2.53Z" transform="translate(-269.72 -267.95)"/><path d="M364.32,356.43h-2.47v-.82a5.06,5.06,0,0,1-6.71-.34,4.91,4.91,0,0,1-1.29-3.38,4.63,4.63,0,0,1,1.31-3.31,5.13,5.13,0,0,1,6.69-.23v-.84h2.47ZM362.13,352a2.77,2.77,0,0,0-.8-2,3.08,3.08,0,0,0-4.13,0,2.77,2.77,0,0,0-.8,2.07,2.74,2.74,0,0,0,.81,2.07,2.84,2.84,0,0,0,2.08.79,2.66,2.66,0,0,0,2.84-2.86Z" transform="translate(-269.72 -267.95)"/><path d="M369,348.33a4.17,4.17,0,0,1,3.15-1.11q3.56,0,3.55,3.77v5.44h-2.5v-4.72q0-2.82-2-2.82c-1.46,0-2.19,1-2.19,3v4.52h-2.53v-8.92H369Z" transform="translate(-269.72 -267.95)"/><path d="M387.57,355.66c0,3-1.65,4.58-4.93,4.58a6.39,6.39,0,0,1-3.7-1,3.09,3.09,0,0,1-1.51-2.67h2.68a1.72,1.72,0,0,0,.76,1.28,2.53,2.53,0,0,0,1.69.64c1.65,0,2.48-.86,2.48-2.58v-.56a4.19,4.19,0,0,1-3.25,1.17,4.45,4.45,0,0,1-3.41-1.31,4.5,4.5,0,0,1-1.24-3.2,4.77,4.77,0,0,1,1.33-3.43,4.59,4.59,0,0,1,3.45-1.38,3.89,3.89,0,0,1,3.12,1.16v-.86h2.53Zm-2.17-3.88a2.6,2.6,0,0,0-.78-2,2.89,2.89,0,0,0-2.06-.74,2.77,2.77,0,0,0-2.07.81,2.82,2.82,0,0,0-.79,2.06c0,1.77.95,2.66,2.86,2.66a2.74,2.74,0,0,0,2.07-.8A2.78,2.78,0,0,0,385.4,351.78Z" transform="translate(-269.72 -267.95)"/><path d="M399.66,352a4.4,4.4,0,0,1-1.49,3.43,5.61,5.61,0,0,1-3.9,1.33,5.71,5.71,0,0,1-3.92-1.33,4.65,4.65,0,0,1,0-6.84,5.62,5.62,0,0,1,3.91-1.33,5.72,5.72,0,0,1,3.92,1.32A4.34,4.34,0,0,1,399.66,352Zm-8.26,0a2.7,2.7,0,0,0,.8,2,2.86,2.86,0,0,0,2.09.79,2.63,2.63,0,0,0,2-.84,3,3,0,0,0,0-4,2.67,2.67,0,0,0-2.05-.85A2.77,2.77,0,0,0,391.4,352Z" transform="translate(-269.72 -267.95)"/><path class="cls-2" d="M324.11,294.89a9.18,9.18,0,0,1-4.91-1.09c-1.87-.84-3.3-5.12-8.56-4.61-1.94.18-10.67-2.85-12.63,7.09a21.4,21.4,0,0,0-.27,2.66A4.59,4.59,0,0,0,299,302.5c1.09,1.16,2.21,2.3,3.37,3.39,1.79,1.66,3.61,3.3,5.46,4.9.86.74,1.81,1.37,2.71,2l-.06.37c-2.68.29-5.24-.5-7.81-1.14a19.85,19.85,0,0,1-7.19-3.23,3.18,3.18,0,0,0-1.5,3c.13,3.95,3.45,6.22,6.43,7.39,5.48,2.13,8.8.58,10.45-.46-.66,1.15-6.41,6.52-15.81,5.64.06,1.19.09,2.32.19,3.45.09.95,1.79,3.09,7.46,3.31,1.93.08,5.82-1.58,7.22-2.92,4.15-4,5.68-8.32,5.56-10.87,1.1,1.86.4,5.82-1.81,10.57,2.69-.92,4.28-4.73,5.15-7.44a28.65,28.65,0,0,0,.87-10.31c2,3.93,1.61,8.1,1.92,12.34a11.33,11.33,0,0,1,7.23-1.17,11.91,11.91,0,0,1,4.42-11.09c.07-1.58,0-3.06.21-4.51a5.79,5.79,0,0,1,2.36-3.76C334.4,300.08,328.72,294.26,324.11,294.89ZM316.6,306.3c-2.09,2.84-5.43,2.87-7.53.05a9.19,9.19,0,0,1-1.77-5.3,9.91,9.91,0,0,1,1.5-6.14c2.15-3.33,5.86-3.35,8-.05A10.72,10.72,0,0,1,316.6,306.3Z" transform="translate(-269.72 -267.95)"/><path class="cls-2" d="M315.82,301a2.84,2.84,0,0,1-.83,1.05l1.07,1.95a6.06,6.06,0,0,0-.14-4.43A2,2,0,0,1,315.82,301Z" transform="translate(-269.72 -267.95)"/><path class="cls-2" d="M346.74,315.9c-1.2-.6-2.56-1.14-2.56-1.14l-.66,5.7,4,1.75C347.9,320.59,348.69,316.86,346.74,315.9Z" transform="translate(-269.72 -267.95)"/><path class="cls-2" d="M312.32,296.92c-1.34.06-2.34,1.72-2.94,3.25l2.83,0c.11-.62.18-1.75,1.37-2.06a2.18,2.18,0,0,1,1.74.39A2.84,2.84,0,0,0,312.32,296.92Z" transform="translate(-269.72 -267.95)"/><path class="cls-2" d="M278,290.17a9.47,9.47,0,0,0,3,9.62c4.74,4.3,9.38,3.15,9.38,3.15C286.91,295.11,278,290.17,278,290.17Z" transform="translate(-269.72 -267.95)"/><path class="cls-2" d="M339.14,317.76l3.59,2.23c.59-1.39.7-5.41.7-5.41s-1.8-.89-2.93-1.33C340,314.8,339.61,316.22,339.14,317.76Z" transform="translate(-269.72 -267.95)"/><path class="cls-2" d="M311.82,287l1.78.39c1,.23,4.45-2.74,1.82-12.15C312.72,278.22,308.89,286.37,311.82,287Z" transform="translate(-269.72 -267.95)"/><path class="cls-2" d="M340.58,306.85c2.51,1.08,4.52.79,6.82.51a22.66,22.66,0,0,0-3.8-2.82c-2.46-1.36-3.7-1.06-4.16-.23C338.81,305.49,340.16,306.67,340.58,306.85Z" transform="translate(-269.72 -267.95)"/><path class="cls-2" d="M338.65,317.42c.47-1.67,1.27-4.41,1.27-4.41-1.12-.56-2.13-.93-3.16-1.45a6.75,6.75,0,0,0,0,4C336.88,316.18,337.26,316.57,338.65,317.42Z" transform="translate(-269.72 -267.95)"/><path class="cls-2" d="M347.63,322.9c.12,2.43.86,3.38-.31,7.56,3.69-.54,5.49-3.63,4.16-7Z" transform="translate(-269.72 -267.95)"/><path class="cls-2" d="M348.68,316.78c-.12,1.82-.23,3.59-.35,5.47a5.73,5.73,0,0,0,3.35.34c1.27-.21,1-1.95,1-1.95A4.84,4.84,0,0,0,348.68,316.78Z" transform="translate(-269.72 -267.95)"/><path class="cls-2" d="M347,323.11a1,1,0,0,0-.51-.67c-.93-.44-1.89-.82-3-1.28a13.1,13.1,0,0,1-2.63,7.7,5.59,5.59,0,0,0,5.61,1.7C347.79,327.1,347.34,325.62,347,323.11Z" transform="translate(-269.72 -267.95)"/><path class="cls-2" d="M342.86,321.91a1.61,1.61,0,0,0-.86-1.7c-2.06-1.26-3.85-2.81-5.3-3.34.28,4.13,1,8,3.62,11.4a6,6,0,0,0,.7-.75A11.92,11.92,0,0,0,342.86,321.91Z" transform="translate(-269.72 -267.95)"/><path d="M344.25,300.71a5.73,5.73,0,0,0,4.2-.34c4.19-1.9,6.18-1,8.56,2.37a2.92,2.92,0,0,1,.24.37,23.67,23.67,0,0,1,3,13.5,10.19,10.19,0,0,1-2.49,5.82c-1,1.13-2.28,1.83-3.66.25a5.3,5.3,0,0,0-.51-.41l-1.29.87a30.13,30.13,0,0,1,.14,3.63,12.61,12.61,0,0,1-3.86,7.74,9.62,9.62,0,0,1-10.37,2.75c-3.1-.92-5-3.12-6.36-5.92a39.48,39.48,0,0,1-2.79-8.56c-1.4-.84-5.66.66-12.32,5.83-10.17,7.9-21.27,2.4-22,2.08-2.75,10.34-10.37,6.78-14.28,4.06,1.46-.34,8.76-2.82,7.57-14.66,1.19.82,1.92,1.3,3.23.51a19.34,19.34,0,0,1-3.79-13.55,14.91,14.91,0,0,1-7.09-1.68c-7.74-3.94-8.16-20.82-8-21.11,7.51,2,13.57,6.15,18.72,11.93,4.92-7.34,4.32-14.65.82-22.27a15.28,15.28,0,0,1,8.64,6.84c2.8-6.55-3.78-11.84-3.94-12.13A30.2,30.2,0,0,1,305,274.8c-.54-4.73-.92-4.45-1.77-6.85a20.24,20.24,0,0,1,5.25,8.95c.34-.42,4.51-5,6.63-6.94,1.68-1.54,2.73-1.2,3.52.94a23.58,23.58,0,0,1,1.14,12.2c-.34,2-1,4-1.52,6.17a2.07,2.07,0,0,0,.24.17c2.9,1.66,5.7,3.51,8.7,5,2.44,1.2,4.77,2.36,9.13,7C338.53,298.89,343.49,300.48,344.25,300.71Zm-41.56,11.36a19.85,19.85,0,0,1-7.19-3.23,3.18,3.18,0,0,0-1.5,3c.13,3.95,3.45,6.22,6.43,7.39,5.48,2.13,8.8.58,10.45-.46-.66,1.15-6.41,6.52-15.81,5.64.06,1.19.09,2.32.19,3.45.09.95,1.79,3.09,7.46,3.31,1.93.08,5.82-1.58,7.22-2.92,4.15-4,5.68-8.32,5.56-10.87,1.1,1.86.4,5.82-1.81,10.57,2.69-.92,4.28-4.73,5.15-7.44a28.65,28.65,0,0,0,.87-10.31c2,3.93,1.61,8.1,1.92,12.34a11.33,11.33,0,0,1,7.23-1.17,11.91,11.91,0,0,1,4.42-11.09c.07-1.58,0-3.06.21-4.51a5.79,5.79,0,0,1,2.36-3.76c-1.45-1.89-7.13-7.71-11.74-7.08a9.18,9.18,0,0,1-4.91-1.09c-1.87-.84-3.3-5.12-8.56-4.61-1.94.18-10.67-2.85-12.63,7.09a21.4,21.4,0,0,0-.27,2.66A4.59,4.59,0,0,0,299,302.5c1.09,1.16,2.21,2.3,3.37,3.39,1.79,1.66,3.61,3.3,5.46,4.9.86.74,1.81,1.37,2.71,2l-.06.37C307.82,313.5,305.26,312.71,302.69,312.07ZM278,290.17a9.47,9.47,0,0,0,3,9.62c4.74,4.3,9.38,3.15,9.38,3.15C286.91,295.11,278,290.17,278,290.17Zm35.57-2.77c1,.23,4.45-2.74,1.82-12.15-2.7,3-6.53,11.12-3.6,11.76Zm27.26,41.46a5.59,5.59,0,0,0,5.61,1.7c1.32-3.46.87-4.94.5-7.45a1,1,0,0,0-.51-.67c-.93-.44-1.89-.82-3-1.28A13.1,13.1,0,0,1,340.86,328.86Zm-.54-.59a6,6,0,0,0,.7-.75,11.92,11.92,0,0,0,1.84-5.61,1.61,1.61,0,0,0-.86-1.7c-2.06-1.26-3.85-2.81-5.3-3.34C337,321,337.66,324.88,340.32,328.27Zm11.16-4.84-3.85-.53c.12,2.43.86,3.38-.31,7.56C351,329.92,352.81,326.83,351.48,323.43Zm-4-1.22c.39-1.62,1.18-5.35-.77-6.31-1.2-.6-2.56-1.14-2.56-1.14l-.66,5.7Zm.82,0a5.73,5.73,0,0,0,3.35.34c1.27-.21,1-1.95,1-1.95a4.84,4.84,0,0,0-4-3.86Zm-4.73-17.71c-2.46-1.36-3.7-1.06-4.16-.23-.63,1.18.72,2.36,1.14,2.54,2.51,1.08,4.52.79,6.82.51A22.66,22.66,0,0,0,343.6,304.54Zm-4.46,13.22,3.59,2.23c.59-1.39.7-5.41.7-5.41s-1.8-.89-2.93-1.33Zm.78-4.75c-1.12-.56-2.13-.93-3.16-1.45a6.75,6.75,0,0,0,0,4c.15.64.53,1,1.92,1.88C339.12,315.75,339.92,313,339.92,313Z" transform="translate(-269.72 -267.95)"/><path d="M308.8,294.91c2.15-3.33,5.86-3.35,8-.05a10.72,10.72,0,0,1-.24,11.44c-2.09,2.84-5.43,2.87-7.53.05a9.19,9.19,0,0,1-1.77-5.3A9.91,9.91,0,0,1,308.8,294.91Zm3.52,2c-1.34.06-2.34,1.72-2.94,3.25l2.83,0c.11-.62.18-1.75,1.37-2.06a2.18,2.18,0,0,1,1.74.39A2.84,2.84,0,0,0,312.32,296.92Zm3.6,2.67a2,2,0,0,1-.1,1.43,2.84,2.84,0,0,1-.83,1.05l1.07,1.95A6.06,6.06,0,0,0,315.92,299.59Z" transform="translate(-269.72 -267.95)"/></svg>